<?xml version="1.0" encoding="utf-8"?>
<!-- Generator: Adobe Illustrator 21.0.0, SVG Export Plug-In . SVG Version: 6.00 Build 0)  -->
<svg version="1.1" id="Layer_1" xmlns="http://www.w3.org/2000/svg" xmlns:xlink="http://www.w3.org/1999/xlink" x="0px" y="0px"
	 width="1400px" height="980px" viewBox="0 0 1400 980" style="enable-background:new 0 0 1400 980;" xml:space="preserve">
<style type="text/css">
	.st0{fill:#615765;}
	.st1{fill:#706973;}
	.st2{fill:#605964;}
	.st3{fill:#7A757C;}
	.st4{fill:#D8D6E8;}
	.st5{fill:#CBC9DD;}
	.st6{fill:#F6AF7F;}
	.st7{fill:#FFD67B;}
	.st8{fill:#69BE5A;}
	.st9{fill:#599F4D;}
	.st10{fill:#BD4E4B;}
	.st11{fill:#D2875E;}
	.st12{fill:#B23B32;}
	.st13{fill:#CE8451;}
	.st14{fill:#EAE9F3;}
	.st15{fill:#C9C9E2;}
	.st16{fill:#635282;}
	.st17{fill:#C86B64;}
	.st18{fill:#B35654;}
	.st19{fill:#D9968C;}
	.st20{fill:#4E4660;}
	.st21{fill:#635E6D;}
	.st22{fill:#FFE18B;}
	.st23{fill:#F89C5B;}
	.st24{fill:#72776A;}
	.st25{fill:#565067;}
	.st26{fill:#E06663;}
	.st27{fill:#C74F50;}
	.st28{fill:#F19C9C;}
	.st29{fill:#B7B6CE;}
	.st30{fill:#B3CD89;}
	.st31{fill:#FDB740;}
	.st32{fill:#F47F51;}
	.st33{fill:#FBC3B1;}
	.st34{fill:#F79D80;}
	.st35{fill:#FAAB74;}
	.st36{fill:#A33823;}
	.st37{fill:#D8542B;}
	.st38{fill:#F05B71;}
	.st39{fill:#FFD54C;}
	.st40{fill:#FFFFFF;}
	.st41{fill:#EDBF65;}
	.st42{fill:#FFE4AE;}
	.st43{fill:#E04362;}
	.st44{fill:#3C384C;}
	.st45{fill:#BDBDD1;}
	.st46{fill:#A4A3BB;}
	.st47{fill:#463D49;}
	.st48{fill:#504B54;}
	.st49{fill:#4E4751;}
	.st50{fill:#E57373;}
</style>
<rect class="st0" width="1400" height="980"/>
<g>
	<path class="st1" d="M545.13263,836.47229H288.71765c-13.3374,0-24.14951-10.81213-24.14951-24.14954V407.50821
		c0-13.3374,10.8121-24.14951,24.14951-24.14951h256.41498c13.3374,0,24.14948,10.8121,24.14948,24.14951v404.81454
		C569.2821,825.66016,558.47003,836.47229,545.13263,836.47229z"/>
	<path class="st2" d="M517.06006,546.31085H316.79022c-12.57809,0-22.77469-10.19659-22.77469-22.77472v-88.81912
		c0-12.57813,10.19659-22.77472,22.77469-22.77472h200.26984c12.57806,0,22.77466,10.19659,22.77466,22.77472v88.81912
		C539.83472,536.11426,529.63812,546.31085,517.06006,546.31085z"/>
	<path class="st2" d="M517.06006,839.6485H316.79022c-12.57809,0-22.77469-10.19659-22.77469-22.77472V601.41626
		c0-12.57813,10.19659-22.77466,22.77469-22.77466h200.26984c12.57806,0,22.77466,10.19653,22.77466,22.77466v215.45752
		C539.83472,829.4519,529.63812,839.6485,517.06006,839.6485z"/>
	<path class="st1" d="M313.2778,503.96167h-0.00003c-3.86652,0-7.00095-3.13443-7.00095-7.00095v-35.6683
		c0-3.86649,3.13443-7.00092,7.00095-7.00092h0.00003c3.86649,0,7.00092,3.13443,7.00092,7.00092v35.6683
		C320.27872,500.82724,317.14429,503.96167,313.2778,503.96167z"/>
	<path class="st1" d="M313.2778,710.52618h-0.00003c-3.86652,0-7.00095-3.13446-7.00095-7.00092v-35.66833
		c0-3.86652,3.13443-7.00092,7.00095-7.00092h0.00003c3.86649,0,7.00092,3.1344,7.00092,7.00092v35.66833
		C320.27872,707.39172,317.14429,710.52618,313.2778,710.52618z"/>
</g>
<g>
	<path class="st1" d="M570.24231,537.01422v50.79535h336.03815v-50.79535c0-14.14465-11.46649-25.61118-25.61115-25.61118H595.85345
		C581.7088,511.40305,570.24231,522.86957,570.24231,537.01422z"/>
	<g>
		<circle class="st0" cx="640.50867" cy="549.60632" r="16.63906"/>
		<circle class="st0" cx="738.26135" cy="549.60632" r="16.63906"/>
		<circle class="st0" cx="836.0141" cy="549.60632" r="16.63906"/>
	</g>
	<rect x="570.24231" y="587.80957" class="st3" width="336.03821" height="251.8389"/>
	<path class="st1" d="M832.66156,835.29456H643.86121c-11.04108,0-19.99164-8.95056-19.99164-19.99158V647.99139
		c0-11.04108,8.95056-19.99164,19.99164-19.99164h188.80035c11.04108,0,19.99164,8.95056,19.99164,19.99164v167.31158
		C852.6532,826.34399,843.70264,835.29456,832.66156,835.29456z"/>
</g>
<rect x="906.28046" y="663.2962" class="st3" width="237.95267" height="46.19579"/>
<rect x="906.28046" y="709.492" class="st1" width="203.38744" height="125.80259"/>
<g>
	<path class="st4" d="M679.03436,663.86133c-10.34924,0-20.43738-5.284-26.13245-14.81415
		c-1.76727-2.95618-45.11261-71.66394-205.6991-8.04742c-15.61237,6.19159-33.2858-1.45673-39.4722-17.07117
		c-6.18585-15.61444,1.45776-33.28687,17.0722-39.47217c78.91833-31.26434,146.45535-39.02417,200.73184-23.06689
		c51.59491,15.16949,73.9516,47.04865,79.57428,56.45795c8.61633,14.41614,3.91376,33.08783-10.50342,41.70313
		C689.71857,662.47131,684.3418,663.86133,679.03436,663.86133z"/>
	<path class="st5" d="M701.33606,648.99609c-4.88702,2.92078-10.26373,4.31079-15.57123,4.31079
		c-10.34918,0-20.43738-5.284-26.13245-14.81421c-1.76721-2.95618-45.11255-71.66388-205.69907-8.04736
		c-15.61237,6.19159-33.2858-1.45673-39.47217-17.07117c-2.89978-7.3197-2.76056-15.09161-0.18576-21.92047
		c-8.13824,8.32092-11.10843,20.95514-6.54477,32.47491c6.1864,15.61444,23.85983,23.26276,39.4722,17.07117
		c160.58649-63.61652,203.93182,5.09125,205.6991,8.04742c5.69507,9.53015,15.7832,14.81415,26.13245,14.81415
		c5.30743,0,10.6842-1.39001,15.57117-4.31073c6.13348-3.66522,10.50092-9.15332,12.84039-15.35669
		C705.66254,646.00897,703.62256,647.62976,701.33606,648.99609z"/>
	<circle class="st6" cx="678.50488" cy="633.44757" r="35.29638"/>
</g>
<path class="st7" d="M810.08966,667.02319l-28.90546-14.21033c-1.69086-0.83124-3.46057-1.49164-5.28265-1.97125l-33.2746-3.17529
	c-5.78802-0.55237-11.42792-2.1499-16.64581-4.71509l-43.81329-21.57434c-3.47754-1.70959-7.82751-0.52069-9.64063,2.90405
	c-1.87616,3.5437-0.44263,7.91089,3.12982,9.66718l44.07965,21.70526c5.21796,2.56519,9.92731,6.05548,13.89954,10.30145
	l22.83563,24.40912c1.49255,1.1499,3.09625,2.14795,4.78711,2.97919l28.90552,14.21033
	c7.16077,3.52032,15.81958,0.56915,19.33997-6.59167l7.17688-14.59863C820.20166,679.20233,817.25049,670.54352,810.08966,667.02319
	z"/>
<g>
	<path class="st8" d="M782.79602,666.24243c-3.4931,2.0235-5.84894,5.79285-5.84894,10.12018
		c0,2.198,0.60779,4.25201,1.6637,6.00647c1.87225,3.11078,6.49829,3.11078,8.37054-0.00006
		c1.05585-1.75439,1.66364-3.80841,1.66364-6.00641C788.64496,672.03528,786.28912,668.26593,782.79602,666.24243z"/>
	<path class="st9" d="M786.98132,682.36902c1.05585-1.75439,1.66364-3.80841,1.66364-6.00641
		c0-4.32733-2.35583-8.09668-5.84894-10.12018v18.45972C784.42059,684.70215,786.04517,683.92444,786.98132,682.36902z"/>
</g>
<g>
	<rect x="368.78094" y="515.62042" class="st6" width="83.09078" height="47.48208"/>
	<g>
		<path class="st10" d="M368.78094,493.74664H347.6185c-8.15189,0-14.76035-6.60843-14.76035-14.76035v-45.70374h35.92279V493.74664
			z"/>
		<path class="st10" d="M523.29962,460.46606h-19.05884v-94.93158h0.00003c10.52585,0,19.05881,8.5329,19.05881,19.05878V460.46606z
			"/>
		<g>
			<path class="st6" d="M520.74921,474.80716h-17.44589c-8.29425,0-15.0181-6.72385-15.0181-15.0181v-0.00003
				c0-8.29425,6.72385-15.0181,15.0181-15.0181h17.44589c8.29425,0,15.01813,6.72385,15.01813,15.0181v0.00003
				C535.76733,468.08331,529.04346,474.80716,520.74921,474.80716z"/>
			<path class="st11" d="M503.30313,467.33807c-4.16229,0-7.5488-3.38654-7.5488-7.54935c0-4.16177,3.38651-7.54828,7.5488-7.54828
				h17.44626c4.16229,0,7.54883,3.38651,7.54883,7.54828c0,4.16281-3.38654,7.54935-7.54883,7.54935H503.30313z"/>
		</g>
		<path class="st6" d="M458.57092,537.49414h-47.27036c-39.49765,0-70.24847-34.29465-65.95734-73.5585l13.30109-121.70486
			h152.58286l13.30109,121.70486C528.8194,503.19949,498.06857,537.49414,458.57092,537.49414z"/>
		<g>
			<g>
				<path class="st12" d="M420.84402,402.24472H379.5365c-5.94009,0-10.75555,4.81537-10.75555,10.75555
					c0,5.94009,4.81546,10.75555,10.75555,10.75555h41.30753c5.94009,0,10.75555-4.81546,10.75555-10.75555
					C431.59958,407.06009,426.78412,402.24472,420.84402,402.24472z"/>
				<path class="st13" d="M414.43768,443.25891h-30.67352c-2.25876,0-4.08981-1.83105-4.08981-4.08978l0,0
					c0-2.25876,1.83105-4.08981,4.08981-4.08981h30.67352c2.25873,0,4.08981,1.83105,4.08981,4.08981l0,0
					C418.5275,441.42786,416.69641,443.25891,414.43768,443.25891z"/>
			</g>
			<g>
				<path class="st12" d="M518.61084,402.24472h-37.03946c-5.94009,0-10.75555,4.81537-10.75555,10.75555
					c0,5.94009,4.81546,10.75555,10.75555,10.75555h37.03946c5.94012,0,10.75555-4.81546,10.75555-10.75555
					C529.36639,407.06009,524.55096,402.24472,518.61084,402.24472z"/>
				<path class="st13" d="M512.20453,443.25891h-26.40549c-2.25873,0-4.08981-1.83105-4.08981-4.08978l0,0
					c0-2.25876,1.83109-4.08981,4.08981-4.08981h26.40549c2.25873,0,4.08978,1.83105,4.08978,4.08981l0,0
					C516.29431,441.42786,514.46326,443.25891,512.20453,443.25891z"/>
			</g>
		</g>
		<g>
			<path class="st12" d="M460.52914,476.46417c1.90308-17.05338-32.59296-23.13153-43.6004,4.4483
				c-7.67432,19.22845-22.96036,18.99466-31.2355,15.39081c-1.01587-0.44238-1.84189,0.87082-1.01114,1.604
				C400.21014,511.61221,454.86682,527.20386,460.52914,476.46417z"/>
			<path class="st12" d="M457.89145,476.46417c-1.90308-17.05338,32.59296-23.13153,43.6004,4.4483
				c7.67432,19.22845,22.96036,18.99466,31.2355,15.39081c1.01587-0.44238,1.84186,0.87082,1.01117,1.604
				C518.21045,511.61221,463.55377,527.20386,457.89145,476.46417z"/>
		</g>
		<g>
			<path class="st6" d="M351.62881,474.80716h-17.44589c-8.29425,0-15.0181-6.72385-15.0181-15.0181v-0.00003
				c0-8.29425,6.72385-15.0181,15.0181-15.0181h17.44589c8.29428,0,15.0181,6.72385,15.0181,15.0181v0.00003
				C366.64691,468.08331,359.9231,474.80716,351.62881,474.80716z"/>
			<path class="st11" d="M334.18274,467.33807c-4.16229,0-7.54883-3.38654-7.54883-7.54935
				c0-4.16177,3.38654-7.54828,7.54883-7.54828h17.44629c4.16229,0,7.5488,3.38651,7.5488,7.54828
				c0,4.16281-3.38651,7.54935-7.5488,7.54935H334.18274z"/>
		</g>
		<path class="st10" d="M332.85815,335.47299V444.7709h15.55167c8.69705,0,15.74741-7.05035,15.74741-15.74744v-93.55048H332.85815z
			"/>
		<path class="st10" d="M359.17783,350.76135v51.48337c14.21674,0,25.7417-11.52496,25.7417-25.7417
			C384.91953,362.28625,373.39456,350.76135,359.17783,350.76135z"/>
		<g>
			<path class="st14" d="M345.83917,231.29443l-21.06589,131.89209c-0.57114,6.50369,4.55438,12.09906,11.0831,12.09906h177.07568
				c6.52875,0,11.65424-5.59537,11.08313-12.09906l-21.06592-131.89209H345.83917z"/>
			<path class="st15" d="M524.0152,363.18649l-21.06595-131.89206h-19.2709l18.78806,131.89206
				c0.50934,6.50372-4.06198,12.09909-9.8847,12.09909h20.35037C519.46075,375.28558,524.58636,369.69022,524.0152,363.18649z"/>
			<circle class="st14" cx="500.13327" cy="237.95673" r="48.26154"/>
			<path class="st15" d="M540.64398,211.73981c1.55078,5.14395,2.39355,10.59491,2.39355,16.24449
				c0,31.04253-25.16498,56.20753-56.20758,56.20753c-0.20013,0-0.39706-0.013-0.59665-0.01508
				c4.40274,1.32233,9.0665,2.0415,13.89993,2.0415c26.65411,0,48.2616-21.60745,48.2616-48.26158
				C548.39484,228.28748,545.54047,219.29012,540.64398,211.73981z"/>
			<circle class="st14" cx="348.65518" cy="237.95673" r="48.26154"/>
			<circle class="st14" cx="424.39423" cy="200.09329" r="57.92747"/>
			<path class="st15" d="M467.72049,161.66052c3.43973,8.67929,5.35049,18.13109,5.35049,28.03464
				c0,29.63806-16.94232,55.30263-41.65994,67.88754c28.68088-3.46573,50.91064-27.87376,50.91064-57.48941
				C482.32169,185.34245,476.79907,171.88753,467.72049,161.66052z"/>
		</g>
	</g>
	<path class="st14" d="M450.2829,585.24298h-79.91315c-6.1188,0-11.0791-4.96027-11.0791-11.0791v-22.1228
		c0-6.11884,4.9603-11.0791,11.0791-11.0791h79.91315c6.11884,0,11.0791,4.96027,11.0791,11.0791v22.1228
		C461.362,580.28271,456.40173,585.24298,450.2829,585.24298z"/>
	<path class="st15" d="M450.28293,540.96198h-14.2403c5.64838,0,10.22726,4.57886,10.22726,10.22729v23.82648
		c0,5.64838-4.57889,10.22723-10.22726,10.22723h14.2403c6.11877,0,11.07904-4.96027,11.07904-11.0791v-22.12286
		C461.36197,545.92224,456.4017,540.96198,450.28293,540.96198z"/>
	<path class="st14" d="M517.78345,856.0708H302.86923V629.00409c0-30.75043,24.92816-55.67865,55.67865-55.67865h103.55688
		c30.75049,0,55.67868,24.92822,55.67868,55.67865V856.0708z"/>
	<path class="st15" d="M462.1048,573.32544h-18.93173c29.14645,0,52.77429,23.62787,52.77429,52.77435v229.97095h21.83609V629.00409
		C517.78345,598.25366,492.85529,573.32544,462.1048,573.32544z"/>
	<path class="st15" d="M463.87561,573.37018v62.94775c0,2.41156,1.95502,4.36658,4.36661,4.36658s4.36658-1.95502,4.36658-4.36658
		v-61.98938C469.76834,573.78595,466.85153,573.46344,463.87561,573.37018z"/>
	<circle class="st16" cx="451.87173" cy="609.25079" r="5.60182"/>
	<circle class="st16" cx="451.87173" cy="664.73547" r="5.60182"/>
	<circle class="st16" cx="451.87173" cy="720.22015" r="5.60182"/>
</g>
<g>
	<path class="st17" d="M1113.01453,816.87378H381.16617c-10.82394,0-19.59848,8.77454-19.59848,19.59845v0.00006
		c0,10.82397,8.77454,19.59851,19.59848,19.59851h731.84839c10.82397,0,19.59851-8.77454,19.59851-19.59851v-0.00006
		C1132.61304,825.64832,1123.8385,816.87378,1113.01453,816.87378z"/>
	<path class="st18" d="M1113.01453,816.87372h-49.44434c10.82397,0,19.59839,8.77454,19.59839,19.59851v0.00006
		c0,10.82397-8.77441,19.59851-19.59839,19.59851h49.44434c10.8241,0,19.59851-8.77454,19.59851-19.59851v-0.00006
		C1132.61304,825.64825,1123.83862,816.87372,1113.01453,816.87372z"/>
	<path class="st19" d="M401.38846,816.87378H257.21893c-10.82394,0-19.5985,8.77454-19.5985,19.59845v0.00006
		c0,10.82397,8.77455,19.59851,19.5985,19.59851h144.16953c10.82401,0,19.59848-8.77454,19.59848-19.59851v-0.00006
		C420.98694,825.64832,412.21246,816.87378,401.38846,816.87378z"/>
</g>
<g>
	<g>
		<path class="st20" d="M690.25385,803.71393h371.81244c3.63403,0,6.57996,2.94592,6.57996,6.5799v0.00006
			c0,3.63397-2.94592,6.5799-6.57996,6.5799H690.25385c-3.63397,0-6.57996-2.94592-6.57996-6.5799v-0.00006
			C683.67389,806.65985,686.61987,803.71393,690.25385,803.71393z"/>
		<path class="st21" d="M1048.93616,803.71393h13.13013c3.63403,0,6.57996,2.94592,6.57996,6.5799v0.00006
			c0,3.63397-2.94592,6.5799-6.57996,6.5799h-13.13013c-3.63403,0-6.57996-2.94592-6.57996-6.5799v-0.00006
			C1042.3562,806.65985,1045.30212,803.71393,1048.93616,803.71393z"/>
	</g>
	<g>
		<g>
			<g>
				<path class="st22" d="M785.70575,782.38855c0,6.59155-3.45642,12.50006-8.92126,16.5238
					c-5.46484-4.02374-8.9212-9.93225-8.9212-16.5238c0-6.59161,3.45636-12.50006,8.9212-16.52386
					C782.24933,769.88849,785.70575,775.79694,785.70575,782.38855z"/>
				<path class="st23" d="M780.5744,791.08301c0,3.12323-1.46832,5.92279-3.78992,7.82935
					c-2.32153-1.90656-3.78986-4.70612-3.78986-7.82935s1.46832-5.92279,3.78986-7.82935
					C779.10608,785.16022,780.5744,787.95978,780.5744,791.08301z"/>
			</g>
			<g>
				<g>
					<path class="st22" d="M760.46832,785.98975c0,5.12445-2.68707,9.71783-6.93561,12.84601
						c-4.24847-3.12817-6.93555-7.72156-6.93555-12.84601s2.68707-9.7179,6.93555-12.84607
						C757.78125,776.27185,760.46832,780.8653,760.46832,785.98975z"/>
					<path class="st23" d="M756.47913,792.74902c0,2.4281-1.14154,4.60455-2.94635,6.08673
						c-1.80487-1.48218-2.94641-3.65863-2.94641-6.08673s1.14154-4.60455,2.94641-6.08673
						C755.33759,788.14447,756.47913,790.32092,756.47913,792.74902z"/>
				</g>
				<g>
					<path class="st22" d="M806.97186,787.24689c0,5.12445-2.68707,9.71783-6.93561,12.84601
						c-4.24854-3.12817-6.93555-7.72156-6.93555-12.84601s2.68701-9.71783,6.93555-12.84607
						C804.28479,777.52905,806.97186,782.12244,806.97186,787.24689z"/>
					<path class="st23" d="M802.9826,794.00616c0,2.4281-1.14148,4.60455-2.94635,6.08673
						c-1.80487-1.48218-2.94635-3.65863-2.94635-6.08673c0-2.42804,1.14148-4.60455,2.94635-6.08673
						C801.84113,789.40161,802.9826,791.57813,802.9826,794.00616z"/>
				</g>
			</g>
			<g>
				<rect x="732.0589" y="798.91235" class="st24" width="93.89715" height="4.80156"/>
				<g>
					<path class="st20" d="M727.61316,811.00494c-2.65192,0-4.80157-2.14966-4.80157-4.80157v-15.2049
						c0-6.42291,5.22565-11.64752,11.64856-11.64752h9.1582c2.65186,0,4.80151,2.1496,4.80151,4.80151
						s-2.14966,4.80157-4.80151,4.80157h-9.1582c-1.12744,0-2.04547,0.91699-2.04547,2.04443v15.2049
						C732.41467,808.85529,730.26501,811.00494,727.61316,811.00494z"/>
					<path class="st20" d="M825.95654,811.00494c-2.65192,0-4.80157-2.14966-4.80157-4.80157v-15.2049
						c0-1.12744-0.91803-2.04443-2.04547-2.04443h-9.1582c-2.65186,0-4.80151-2.14966-4.80151-4.80157
						s2.14966-4.80151,4.80151-4.80151h9.1582c6.42291,0,11.64856,5.22461,11.64856,11.64752v15.2049
						C830.75806,808.85529,828.6084,811.00494,825.95654,811.00494z"/>
				</g>
				<path class="st20" d="M776.7843,808.51563c-2.65192,0-4.80157-2.14966-4.80157-4.80157v-19.56158
					c0-2.65192,2.14966-4.80151,4.80157-4.80151s4.80157,2.1496,4.80157,4.80151v19.56158
					C781.58588,806.36597,779.43622,808.51563,776.7843,808.51563z"/>
			</g>
		</g>
		<g>
			<rect x="930.81" y="798.91235" class="st24" width="93.89715" height="4.80156"/>
			<g>
				<path class="st20" d="M926.36414,811.00494c-2.65192,0-4.80157-2.14966-4.80157-4.80157v-15.2049
					c0-6.42291,5.22565-11.64752,11.64856-11.64752h9.1582c2.65192,0,4.80157,2.1496,4.80157,4.80151
					s-2.14966,4.80157-4.80157,4.80157h-9.1582c-1.12744,0-2.04547,0.91699-2.04547,2.04443v15.2049
					C931.16565,808.85529,929.01599,811.00494,926.36414,811.00494z"/>
				<path class="st20" d="M1024.70752,811.00494c-2.65192,0-4.80157-2.14966-4.80157-4.80157v-15.2049
					c0-1.12744-0.91803-2.04443-2.04547-2.04443h-9.15814c-2.65192,0-4.80157-2.14966-4.80157-4.80157
					s2.14966-4.80151,4.80157-4.80151h9.15814c6.42297,0,11.64856,5.22461,11.64856,11.64752v15.2049
					C1029.50903,808.85529,1027.35938,811.00494,1024.70752,811.00494z"/>
			</g>
			<path class="st20" d="M975.53528,808.51563c-2.65192,0-4.80157-2.14966-4.80157-4.80157v-19.56158
				c0-2.65192,2.14966-4.80151,4.80157-4.80151s4.80157,2.1496,4.80157,4.80151v19.56158
				C980.33685,806.36597,978.18719,808.51563,975.53528,808.51563z"/>
		</g>
	</g>
</g>
<g>
	<path class="st4" d="M697.54504,747.69586c-4.41968,0-8.00262-3.5824-8.00262-8.00262v-10.8681h-31.21014
		c-4.41962,0-8.00256-3.5824-8.00256-8.00256c0-4.42023,3.58295-8.00262,8.00256-8.00262h39.21277
		c4.42017,0,8.00256,3.5824,8.00256,8.00262v18.87067C705.54761,744.11346,701.96521,747.69586,697.54504,747.69586z"/>
	<path class="st25" d="M577.38367,720.82227L577.38367,720.82227c0,7.25677,5.88275,13.13953,13.13947,13.13953h72.77539
		c7.25671,0,13.13947-5.88275,13.13947-13.13953l0,0c0-7.25677-5.88275-13.13953-13.13947-13.13953h-72.77539
		C583.26642,707.68274,577.38367,713.56549,577.38367,720.82227z"/>
	<g>
		<path class="st26" d="M832.38885,756.76538H703.81378c-11.12292,0-20.13989-9.01697-20.13989-20.13989v-20.80676
			c0-2.28351,1.8512-4.13464,4.1347-4.13464h160.58545c2.28357,0,4.1347,1.85114,4.1347,4.13464v20.80676
			C852.52875,747.74841,843.51184,756.76538,832.38885,756.76538z"/>
		<path class="st27" d="M848.39404,711.68408h-15.82727c2.28345,0,4.1347,1.85107,4.1347,4.13464v20.80676
			c0,11.12292-9.01703,20.13989-20.13989,20.13989h15.82727c11.12292,0,20.13989-9.01697,20.13989-20.13989v-20.80676
			C852.52875,713.53516,850.67761,711.68408,848.39404,711.68408z"/>
		<path class="st27" d="M688.87292,750.09656c3.68597,4.08533,9.00513,6.66882,14.94086,6.66882h128.57507
			c5.93579,0,11.25494-2.5835,14.9408-6.66882H688.87292z"/>
		<path class="st28" d="M760.55969,714.88507h-18.39893c-1.19751,0-2.16833,0.97076-2.16833,2.16833v0.00006
			c0,1.19751,0.97083,2.16827,2.16833,2.16827h18.39893c1.19757,0,2.1684-0.97076,2.1684-2.16827v-0.00006
			C762.72809,715.85583,761.75726,714.88507,760.55969,714.88507z"/>
		<path class="st28" d="M776.63745,714.88507h-6.06744c-1.19751,0-2.16833,0.97076-2.16833,2.16833v0.00006
			c0,1.19751,0.97083,2.16827,2.16833,2.16827h6.06744c1.19751,0,2.16833-0.97076,2.16833-2.16827v-0.00006
			C778.80579,715.85583,777.83496,714.88507,776.63745,714.88507z"/>
	</g>
</g>
<path class="st6" d="M592.93347,739.28894h-74.93213c-13.55389,0-24.54132-10.98792-24.54132-24.54126
	c0-13.55341,10.98743-24.54132,24.54132-24.54132h74.93213c13.55389,0,24.54132,10.98792,24.54132,24.54132
	C617.47479,728.30103,606.48737,739.28894,592.93347,739.28894z"/>
<path class="st4" d="M490.59659,745.15753c-52.87186,0-89.27011-1.19727-118.30402-15.37476
	c-18.84103-9.20093-33.04877-23.18982-43.43494-42.76703c-8.95291-16.87531-15.26538-38.29785-19.86636-67.41669
	c-2.62115-16.58978,8.7023-32.16254,25.29156-34.78314c16.58716-2.62585,32.16199,8.70178,34.78317,25.29047
	c7.96454,50.4101,19.61676,59.99554,29.91333,65.02423c19.19843,9.37494,56.27139,9.29053,107.58911,9.18323
	c5.95352-0.01251,12.11594-0.02606,18.49557-0.02606c16.79504,0,30.40991,13.61481,30.40991,30.40985
	s-13.61487,30.40991-30.40991,30.40991c-6.33435,0-12.453,0.01349-18.36429,0.026
	C501.16879,745.14502,495.80038,745.15753,490.59659,745.15753z"/>
<path class="st5" d="M531.11536,733.45093c-6.33435,0-12.453,0.01355-18.36432,0.02606
	c-5.53094,0.01147-10.89935,0.02399-16.10312,0.02399c-52.87186,0-89.27014-1.19727-118.30405-15.37482
	c-18.841-9.20093-33.04874-23.18982-43.43494-42.76703c-8.95291-16.87524-15.26538-38.29785-19.86633-67.41669
	c-0.685-4.33521-0.40979-8.59833,0.65491-12.58173c-5.4267,6.50073-8.13168,15.21655-6.70624,24.23834
	c4.60098,29.11884,10.91345,50.54138,19.86636,67.41669c10.38617,19.57721,24.5939,33.5661,43.43494,42.76703
	c29.03391,14.17749,65.43216,15.37476,118.30402,15.37476c5.2038,0,10.5722-0.01251,16.10315-0.02399
	c5.91129-0.01251,12.02994-0.026,18.36429-0.026c14.08337,0,25.92566-9.57532,29.38422-22.56946
	C548.86993,729.20673,540.48962,733.45093,531.11536,733.45093z"/>
<circle class="st6" cx="594.76849" cy="725.44604" r="35.29638"/>
<g>
	<circle class="st29" cx="515.47375" cy="730.76074" r="5.31476"/>
	<circle class="st29" cx="492.53299" cy="730.76074" r="5.31476"/>
</g>
<g>
	<circle class="st9" cx="702.62952" cy="643.28528" r="7.16724"/>
	<circle class="st8" cx="702.62952" cy="643.28528" r="5.50816"/>
	<circle class="st30" cx="703.73126" cy="641.00775" r="1.10798"/>
	<circle class="st30" cx="705.41681" cy="644.49231" r="1.33351"/>
	<circle class="st30" cx="700.03821" cy="644.09729" r="1.72857"/>
</g>
<g>
	<circle class="st9" cx="837.83142" cy="669.96411" r="7.16724"/>
	<circle class="st8" cx="837.83142" cy="669.96411" r="5.50816"/>
	<circle class="st30" cx="838.93311" cy="667.68658" r="1.10798"/>
	<circle class="st30" cx="840.61865" cy="671.17114" r="1.33351"/>
	<circle class="st30" cx="835.24011" cy="670.77612" r="1.72857"/>
</g>
<g>
	<circle class="st9" cx="728.82416" cy="608.62067" r="7.16724"/>
	<circle class="st8" cx="728.82416" cy="608.62067" r="5.50816"/>
	<circle class="st30" cx="729.9259" cy="606.34314" r="1.10798"/>
	<circle class="st30" cx="731.61145" cy="609.8277" r="1.33351"/>
	<circle class="st30" cx="726.23291" cy="609.43262" r="1.72857"/>
</g>
<path class="st9" d="M817.21454,643.66162c-3.33136,0-6.04163-2.71027-6.04163-6.04108c0-3.33142,2.71027-6.04169,6.04163-6.04169
	c3.33142,0,6.04169,2.71027,6.04169,6.04169C823.25623,640.95135,820.54596,643.66162,817.21454,643.66162z M817.21454,633.27802
	c-2.39441,0-4.34247,1.94806-4.34247,4.34253c0,2.39441,1.94806,4.34192,4.34247,4.34192c2.39447,0,4.34253-1.94751,4.34253-4.34192
	C821.55707,635.22607,819.60901,633.27802,817.21454,633.27802z"/>
<path class="st31" d="M731.61768,645.17975c-2.59113,0-4.6991-2.10803-4.6991-4.69873c0-2.59113,2.10797-4.69916,4.6991-4.69916
	s4.69916,2.10803,4.69916,4.69916C736.31683,643.07172,734.2088,645.17975,731.61768,645.17975z M731.61768,637.10345
	c-1.86237,0-3.3775,1.5152-3.3775,3.37756s1.51514,3.37714,3.3775,3.37714s3.37756-1.51477,3.37756-3.37714
	S733.48004,637.10345,731.61768,637.10345z"/>
<g>
	<path class="st32" d="M785.40948,636.70715v3.57678c0,6.47644-5.25073,11.72723-11.72717,11.72723h-4.8454
		c-2.12695,0-3.85345-1.72644-3.85345-3.85345c0-1.06348,0.43408-2.02686,1.13037-2.72314
		c0.69623-0.70105,1.65961-1.13031,2.72308-1.13031h4.09192c1.82178,0,3.30017-1.47839,3.30017-3.30017
		c0-0.86322-0.32904-1.65009-0.88226-2.23669c-0.02386-0.03339-0.05725-0.06677-0.08588-0.0954
		c-0.59613-0.59613-1.42114-0.96808-2.33203-0.96808h-18.43732v-17.01135h14.89862c1.98401,0,3.88208,0.36243,5.63708,1.02057
		c1.55469,0.58661,2.995,1.40692,4.27783,2.41791C783.02496,627.05933,785.40948,631.60425,785.40948,636.70715z"/>
	<g>
		<path class="st33" d="M776.229,641.76587c0-0.12433-0.0105-0.24615-0.02582-0.36664
			c-0.19574,1.63538-1.58655,2.90503-3.27435,2.90503h-4.09192c-1.06348,0-2.02686,0.42926-2.72308,1.13031
			c-0.69629,0.69629-1.13037,1.65967-1.13037,2.72314c0,0.04669,0.00537,0.09204,0.00702,0.13843
			c0.03595-0.93848,0.45752-1.78668,1.12335-2.40643c0.69623-0.65253,1.65961-1.05206,2.72308-1.05206h4.09192
			C774.75061,644.83765,776.229,643.46155,776.229,641.76587z"/>
		<path class="st33" d="M779.30505,624.13104c-1.28284-1.01099-2.72314-1.8313-4.27783-2.41791
			c-1.755-0.65814-3.65308-1.02057-5.63708-1.02057h-14.89862v2.16754h14.89862c1.98401,0,3.88208,0.3374,5.63708,0.94995
			c1.55469,0.54602,2.995,1.30951,4.27783,2.25061c3.71991,2.72559,6.10443,6.95593,6.10443,11.70569v-1.0592
			C785.40948,631.60425,783.02496,627.05933,779.30505,624.13104z"/>
	</g>
	<path class="st34" d="M769.94818,626.2962v5.80402c0,2.15558-0.82513,4.12524-2.1795,5.6037h-4.20636
		c2.32733-0.80121,4.00128-3.00934,4.00128-5.6037v-5.80402c0-2.59436-1.68347-4.80719-4.01563-5.60364h4.2207
		C769.12305,622.17096,769.94818,624.14063,769.94818,626.2962z"/>
	<path class="st34" d="M771.70996,652.01117c-0.35791-0.60388-0.5672-1.30573-0.5672-2.05719v-4.27722
		c0-0.4823,0.08905-0.94312,0.24438-1.3725h-2.47809c-0.09662,0.44281-0.15082,0.90118-0.15082,1.3725v4.27722
		c0,0.71997,0.12402,1.41028,0.34314,2.05719H771.70996z"/>
	<path class="st34" d="M779.50537,627.47418l-0.81555,5.742c-0.3147,2.19855-1.46405,4.13953-3.23816,5.47491
		c-0.03339,0.02386-0.06677,0.05243-0.10492,0.07629c-0.02386-0.03339-0.05725-0.06677-0.08588-0.0954
		c-0.59613-0.59613-1.42114-0.96808-2.33203-0.96808h-0.69629c0.63422-0.20032,1.23993-0.51031,1.78839-0.92047
		c1.26379-0.94904,2.08411-2.33685,2.30823-3.90106l0.81549-5.74683c0.22418-1.56421-0.17639-3.12372-1.12543-4.38751
		c-0.29102-0.38629-0.62482-0.73444-0.992-1.03491c1.55469,0.58661,2.995,1.40692,4.27783,2.41791
		C779.59601,625.2041,779.66748,626.33441,779.50537,627.47418z"/>
	<path class="st34" d="M785.40948,638.49512v-1.78796c0-0.36322-0.01526-0.72266-0.03906-1.07983
		c-0.50977,0.45416-1.10187,0.83173-1.77399,1.09436l-5.40576,2.11115c-0.8175,0.3194-1.6629,0.43823-2.48645,0.39075
		c0.33405,0.51337,0.52478,1.12463,0.52478,1.78052c0,0.20996-0.02179,0.41461-0.05927,0.61371
		c0.96289-0.0144,1.93945-0.19318,2.88812-0.56342l5.40619-2.11163C784.79395,638.8139,785.10608,638.6601,785.40948,638.49512z"/>
	<path class="st34" d="M780.70605,647.83679l-4.34943-3.8418c-0.32043-0.28308-0.6026-0.59735-0.85046-0.93347
		c-0.50409,0.63043-1.23401,1.06952-2.06714,1.19928c0.38086,0.55188,0.8233,1.06628,1.33875,1.52167l4.34949,3.8418
		c0.24731,0.21838,0.50836,0.41431,0.77515,0.59973c0.7215-0.45245,1.39038-0.98041,1.995-1.57422
		C781.47461,648.42871,781.07288,648.16101,780.70605,647.83679z"/>
	<path class="st35" d="M754.48993,637.70392L754.48993,637.70392c-3.33624,0-6.04083-2.70459-6.04083-6.04083v-4.9281
		c0-3.33624,2.70459-6.04083,6.04083-6.04083l0,0c3.3363,0,6.04083,2.70459,6.04083,6.04083v4.9281
		C760.53076,634.99933,757.82623,637.70392,754.48993,637.70392z"/>
	<path class="st36" d="M768.09467,646.68091c-1.97681-2.05389-6.85657-0.56458-9.87012,2.336
		c-3.01361,2.90063-2.18579,5.31134-0.20892,7.36517c1.97681,2.05383,4.35413,2.97308,7.36774,0.07245
		C768.39691,653.55389,770.07153,648.73468,768.09467,646.68091z"/>
	<path class="st37" d="M769.13446,649.28058c1.23547-2.56909-1.86212-6.62299-5.63165-8.43573s-5.74011-0.19617-6.97559,2.37286
		c-1.23541,2.56897-1.26788,5.11761,2.50165,6.93036S767.89905,651.84955,769.13446,649.28058z"/>
</g>
<g>
	<path class="st32" d="M725.43628,524.3985l2.52917,2.52917c4.57953,4.57953,4.57953,12.00519,0,16.58478l-3.42615,3.42615
		c-1.50403,1.50403-3.94556,1.50403-5.44958,0c-0.75201-0.75195-1.12628-1.74011-1.12634-2.72479
		c-0.00336-0.98804,0.37433-1.97278,1.12634-2.72479l2.89343-2.89337c1.28815-1.28821,1.28815-3.37897-0.00006-4.66718
		c-0.61035-0.61041-1.39948-0.93414-2.20544-0.95776c-0.04047-0.00671-0.08765-0.00671-0.12817-0.00671
		c-0.84302,0-1.68945,0.32037-2.33356,0.96442l-13.03717,13.03723l-12.02881-12.02887l10.53491-10.53491
		c1.40289-1.40289,3.00134-2.48877,4.7077-3.26434c1.51416-0.68457,3.11261-1.12299,4.73462-1.31519
		C716.9281,519.26251,721.828,520.79016,725.43628,524.3985z"/>
	<g>
		<path class="st33" d="M722.52179,534.4671c-0.08789-0.08789-0.18146-0.16663-0.27759-0.24097
			c1.01801,1.2948,0.93237,3.17603-0.26105,4.36951l-2.89343,2.89337c-0.75201,0.75201-1.1297,1.73676-1.12634,2.72479
			c0.00006,0.98468,0.37433,1.97284,1.12634,2.72479c0.03302,0.03308,0.06885,0.06134,0.10278,0.09296
			c-0.63818-0.68903-0.93982-1.58685-0.90729-2.49591c0.03094-0.95374,0.42963-1.91742,1.18164-2.66943l2.89343-2.89343
			C723.6485,537.68457,723.72083,535.66614,722.52179,534.4671z"/>
		<path class="st33" d="M712.22717,519.82233c-1.62201,0.1922-3.22046,0.63062-4.73462,1.31519
			c-1.70636,0.77557-3.30481,1.86145-4.7077,3.26434l-10.53491,10.53491l1.53271,1.53271l10.53491-10.53491
			c1.40289-1.40289,2.98358-2.50653,4.65771-3.31433c1.48547-0.71326,3.04376-1.19177,4.61633-1.43347
			c4.55762-0.70313,9.23505,0.60205,12.59363,3.96063l-0.74896-0.7489C721.828,520.79016,716.9281,519.26251,712.22717,519.82233z"
			/>
	</g>
	<path class="st34" d="M707.14185,527.96967l4.10406,4.104c1.52423,1.52429,2.33356,3.50043,2.42126,5.50354l-2.97437,2.97437
		c1.07916-2.21222,0.70148-4.95728-1.13306-6.79175l-4.104-4.10406c-1.83453-1.83447-4.58966-2.2088-6.80188-1.12286l2.98444-2.9845
		C703.64142,525.63611,705.61761,526.44543,707.14185,527.96967z"/>
	<path class="st34" d="M726.5708,544.90704c-0.68005-0.17389-1.32428-0.52216-1.85565-1.05353l-3.02448-3.02448
		c-0.34106-0.34106-0.60388-0.72986-0.79767-1.14331l-1.75226,1.75232c0.24469,0.38141,0.53052,0.74384,0.86377,1.07709
		l3.02448,3.02454c0.50909,0.50909,1.08496,0.90942,1.69727,1.21198L726.5708,544.90704z"/>
	<path class="st34" d="M714.73279,522.04462l3.48346,4.6369c1.33209,1.77716,1.89191,3.96234,1.58167,6.16107
		c-0.00671,0.04047-0.01013,0.08429-0.02026,0.12811c-0.04047-0.00671-0.08765-0.00671-0.12817-0.00671
		c-0.84302,0-1.68945,0.32037-2.33356,0.96442l-0.49237,0.49243c0.30688-0.59015,0.51599-1.23761,0.61377-1.91547
		c0.2226-1.56476-0.17871-3.1261-1.12634-4.39063l-3.48694-4.64026c-0.94757-1.26459-2.33356-2.08411-3.89825-2.30664
		c-0.47888-0.06744-0.96112-0.07758-1.43323-0.03033c1.51416-0.68457,3.11261-1.12299,4.73462-1.31519
		C713.19165,520.37537,714.04144,521.12402,714.73279,522.04462z"/>
	<path class="st34" d="M726.70062,525.66278l-1.26434-1.26428c-0.25677-0.25684-0.52173-0.50024-0.79114-0.73596
		c-0.03937,0.68164-0.19104,1.36725-0.48065,2.02826l-2.32959,5.31525c-0.35223,0.80396-0.86597,1.48572-1.48187,2.03442
		c0.59918,0.12689,1.16632,0.42419,1.63007,0.888c0.1485,0.14844,0.27777,0.30853,0.39209,0.47583
		c0.67065-0.69104,1.23474-1.50793,1.6438-2.44061l2.32959-5.31586C726.49072,526.32343,726.60266,525.99396,726.70062,525.66278z"
		/>
	<path class="st34" d="M729.98035,535.59412l-5.79211,0.35901c-0.4267,0.02643-0.84851,0.00372-1.26147-0.05872
		c0.08942,0.80219-0.11627,1.62885-0.61359,2.30969c0.65955,0.12091,1.33612,0.17181,2.02258,0.12933l5.79211-0.35895
		c0.32928-0.02045,0.6524-0.06653,0.97217-0.12408c0.19025-0.83008,0.28992-1.67639,0.29755-2.5238
		C730.94226,535.46924,730.46893,535.56409,729.98035,535.59412z"/>
	<path class="st35" d="M704.27771,546.96667l-0.00006,0.00006c-2.35907,2.35907-6.1839,2.35907-8.54303,0l-3.48462-3.48468
		c-2.35913-2.35913-2.35913-6.18396,0-8.54303l0,0c2.35907-2.35913,6.1839-2.35913,8.54303,0l3.48468,3.48468
		C706.63678,540.78278,706.63678,544.6076,704.27771,546.96667z"/>
	<path class="st36" d="M720.24536,543.6944c-2.85016-0.05444-5.2475,4.4491-5.32739,8.63104
		c-0.0799,4.18201,2.21008,5.30127,5.06024,5.35571c2.8501,0.05444,5.18109-0.97656,5.26093-5.15857
		C725.31903,548.34064,723.09546,543.74884,720.24536,543.6944z"/>
	<path class="st37" d="M722.81885,544.79736c-0.94299-2.69012-5.99988-3.36639-9.94714-1.98273s-4.19757,3.92017-3.25458,6.61035
		c0.94293,2.69012,2.72217,4.5152,6.66943,3.13159C720.23383,551.17291,723.76184,547.48749,722.81885,544.79736z"/>
</g>
<g>
	<path class="st32" d="M797.73981,513.05743l-2.52917,2.52924c-4.57953,4.57947-12.00525,4.57947-16.58478-0.00006l-3.42621-3.42615
		c-1.50403-1.50403-1.50403-3.94559,0-5.44962c0.75201-0.75198,1.74011-1.12628,2.72479-1.12628
		c0.9881-0.00339,1.97278,0.3743,2.72479,1.12631l2.89343,2.89343c1.28815,1.28818,3.37897,1.28818,4.66711-0.00003
		c0.61041-0.61038,0.93414-1.39948,0.95776-2.20544c0.00671-0.0405,0.00671-0.08768,0.00671-0.12817
		c0-0.84305-0.32037-1.68948-0.96442-2.33356l-13.03717-13.03717l12.02881-12.02884l10.53491,10.53491
		c1.40289,1.40292,2.48877,3.00137,3.26434,4.7077c0.68457,1.51416,1.12299,3.11261,1.31519,4.73462
		C802.87573,504.54929,801.34808,509.44916,797.73981,513.05743z"/>
	<g>
		<path class="st33" d="M787.67114,510.14294c0.08789-0.08792,0.16663-0.18149,0.24103-0.27756
			c-1.2948,1.01801-3.17609,0.93237-4.36951-0.26108l-2.89343-2.89343c-0.75201-0.75201-1.73669-1.1297-2.72479-1.12631
			c-0.98468,0-1.97278,0.3743-2.72479,1.12628c-0.03302,0.03305-0.06134,0.06891-0.09296,0.10281
			c0.68909-0.63815,1.58691-0.93982,2.49591-0.90726c0.95374,0.03094,1.91748,0.42963,2.66949,1.18164l2.89337,2.8934
			C784.45367,511.26962,786.47211,511.34198,787.67114,510.14294z"/>
		<path class="st33" d="M802.31592,499.84833c-0.1922-1.62201-0.63062-3.22046-1.31519-4.73462
			c-0.77557-1.70633-1.86145-3.30478-3.26434-4.7077l-10.53491-10.53491l-1.53271,1.53271l10.53491,10.53491
			c1.40295,1.40289,2.50653,2.98361,3.31433,4.65775c0.71326,1.48544,1.19183,3.04373,1.43347,4.6163
			c0.70313,4.55762-0.60205,9.23508-3.96063,12.59363l0.74896-0.74896C801.34808,509.44916,802.87573,504.54929,802.31592,499.84833
			z"/>
	</g>
	<path class="st34" d="M794.16858,494.76303l-4.104,4.10403c-1.52423,1.52423-3.50043,2.33356-5.50354,2.42123l-2.97437-2.97433
		c2.21222,1.07916,4.95728,0.70148,6.79175-1.13303l4.10406-4.10403c1.83447-1.8345,2.2088-4.58963,1.12292-6.80191l2.98444,2.9845
		C796.50214,491.2626,795.69287,493.23877,794.16858,494.76303z"/>
	<path class="st34" d="M777.2312,514.19202c0.17389-0.68011,0.52216-1.32434,1.05353-1.85571l3.02448-3.02448
		c0.34106-0.34103,0.72986-0.60388,1.14331-0.79767l-1.75226-1.75229c-0.38147,0.24475-0.7439,0.53055-1.07715,0.86383
		l-3.02448,3.02448c-0.50909,0.50909-0.90948,1.0849-1.21198,1.69724L777.2312,514.19202z"/>
	<path class="st34" d="M800.09363,502.35394l-4.6369,3.48349c-1.77716,1.33209-3.96228,1.89191-6.16107,1.58163
		c-0.04047-0.00674-0.08429-0.01013-0.12811-0.02023c0.00671-0.0405,0.00671-0.08768,0.00671-0.12817
		c0-0.84305-0.32037-1.68948-0.96442-2.33356l-0.49237-0.49237c0.59015,0.30685,1.23761,0.51596,1.91541,0.61377
		c1.56476,0.22253,3.1261-0.17874,4.39069-1.12634l4.6402-3.48694c1.26465-0.94757,2.08411-2.33356,2.30664-3.89828
		c0.06744-0.47891,0.07758-0.96112,0.03033-1.43323c0.68457,1.51416,1.12299,3.11261,1.31519,4.73462
		C801.76288,500.81284,801.01422,501.6626,800.09363,502.35394z"/>
	<path class="st34" d="M796.47546,514.32178l1.26434-1.26434c0.25677-0.25677,0.50018-0.52173,0.7359-0.79114
		c-0.68158-0.03937-1.36725-0.19104-2.02826-0.48062l-5.31525-2.32962c-0.80389-0.35223-1.48572-0.86597-2.03442-1.48187
		c-0.12689,0.59918-0.42419,1.16632-0.888,1.6301c-0.14844,0.14847-0.30853,0.27777-0.47583,0.39206
		c0.69104,0.67065,1.508,1.23477,2.44061,1.64377l5.31592,2.32962C795.81482,514.11188,796.14429,514.22388,796.47546,514.32178z"/>
	<path class="st34" d="M786.54413,517.6015l-0.35895-5.79211c-0.02643-0.42673-0.00372-0.84848,0.05865-1.26144
		c-0.80219,0.08939-1.62885-0.1163-2.30969-0.61362c-0.12091,0.65955-0.17175,1.33612-0.12933,2.02261l0.35895,5.79208
		c0.02045,0.32928,0.06653,0.6524,0.12408,0.97217c0.83008,0.19025,1.67639,0.28992,2.5238,0.29755
		C786.66901,518.56342,786.57422,518.09009,786.54413,517.6015z"/>
	<path class="st35" d="M775.17157,491.89883L775.17157,491.89883c-2.35913-2.3591-2.35913-6.18393,0-8.54303l3.48462-3.48465
		c2.35913-2.3591,6.18396-2.3591,8.54303,0h0.00006c2.35907,2.3591,2.35907,6.18393,0,8.54303l-3.48468,3.48465
		C781.35547,494.25793,777.53064,494.25793,775.17157,491.89883z"/>
	<path class="st36" d="M778.44385,507.86655c0.05444-2.85016-4.4491-5.24756-8.63104-5.32742
		c-4.18201-0.0799-5.30127,2.21011-5.35571,5.06024c-0.05444,2.8501,0.97656,5.18109,5.15857,5.26099
		C773.79761,512.94019,778.3894,510.71661,778.44385,507.86655z"/>
	<path class="st37" d="M777.34088,510.44003c2.69019-0.94299,3.36639-5.99991,1.98273-9.94714
		c-1.38361-3.9473-3.92017-4.1976-6.61035-3.25461c-2.69012,0.94296-4.5152,2.72217-3.13153,6.66946
		C770.96533,507.85498,774.65076,511.383,777.34088,510.44003z"/>
</g>
<g>
	<path class="st32" d="M764.8844,583.00616l-2.52924,2.52917c-4.57953,4.57953-12.00519,4.57953-16.58478,0l-3.42615-3.42621
		c-1.50403-1.50397-1.50403-3.94556,0-5.44958c0.75195-0.75195,1.74011-1.12628,2.72479-1.12628
		c0.98804-0.00336,1.97278,0.37433,2.72479,1.12634l2.89337,2.89337c1.28821,1.28821,3.37897,1.28821,4.66718,0
		c0.61041-0.61035,0.93414-1.39948,0.95776-2.20544c0.00671-0.04047,0.00671-0.08765,0.00671-0.12817
		c0-0.84308-0.32037-1.68945-0.96442-2.33356l-13.03723-13.03717l12.02887-12.02881l10.53491,10.53491
		c1.40289,1.40289,2.48877,3.00134,3.26434,4.7077c0.68457,1.51416,1.12299,3.11255,1.31519,4.73462
		C770.02032,574.49799,768.49268,579.39783,764.8844,583.00616z"/>
	<g>
		<path class="st33" d="M754.81573,580.09167c0.08789-0.08795,0.16663-0.18152,0.24097-0.27759
			c-1.2948,1.01801-3.17603,0.93237-4.36951-0.26111l-2.89337-2.89337c-0.75201-0.75201-1.73676-1.1297-2.72479-1.12634
			c-0.98468,0-1.97284,0.37433-2.72479,1.12628c-0.03308,0.03308-0.06134,0.06891-0.09296,0.10284
			c0.68903-0.63818,1.58685-0.93988,2.49591-0.90729c0.95374,0.03094,1.91748,0.42963,2.66943,1.18164l2.89343,2.89343
			C751.59827,581.21832,753.6167,581.29071,754.81573,580.09167z"/>
		<path class="st33" d="M769.46051,569.79706c-0.1922-1.62207-0.63062-3.22046-1.31519-4.73462
			c-0.77557-1.70636-1.86145-3.30481-3.26434-4.7077l-10.53491-10.53491l-1.53271,1.53271l10.53491,10.53491
			c1.40289,1.40289,2.50653,2.98358,3.31433,4.65771c0.71326,1.48541,1.19177,3.04376,1.43347,4.61627
			c0.70313,4.55768-0.60205,9.23511-3.96063,12.59369l0.74896-0.74896C768.49268,579.39783,770.02032,574.49799,769.46051,569.79706
			z"/>
	</g>
	<path class="st34" d="M761.31317,564.71173l-4.104,4.10406c-1.52429,1.52423-3.50043,2.3335-5.50354,2.4212l-2.97437-2.9743
		c2.21222,1.07916,4.95728,0.70148,6.79175-1.13306l4.10406-4.10406c1.83447-1.83447,2.2088-4.5896,1.12286-6.80188l2.9845,2.9845
		C763.64673,561.2113,762.8374,563.1875,761.31317,564.71173z"/>
	<path class="st34" d="M744.37579,584.14069c0.17389-0.68005,0.52216-1.32434,1.05353-1.85565l3.02448-3.02454
		c0.34106-0.341,0.72986-0.60382,1.14331-0.79761l-1.75232-1.75232c-0.38141,0.24475-0.74384,0.53058-1.07709,0.86383
		l-3.02454,3.02448c-0.50903,0.50909-0.90942,1.0849-1.21198,1.69727L744.37579,584.14069z"/>
	<path class="st34" d="M767.23822,572.30267l-4.6369,3.48346c-1.77716,1.33209-3.96234,1.89191-6.16107,1.58167
		c-0.04047-0.00677-0.08429-0.01013-0.12811-0.02026c0.00671-0.04047,0.00671-0.08765,0.00671-0.12817
		c0-0.84308-0.32037-1.68945-0.96442-2.33356l-0.49243-0.49237c0.59015,0.30688,1.23761,0.51593,1.91547,0.61377
		c1.56476,0.22253,3.1261-0.17877,4.39063-1.12634l4.64026-3.48694c1.26459-0.94757,2.08411-2.33356,2.30664-3.89825
		c0.06744-0.47894,0.07758-0.96112,0.03033-1.43323c0.68457,1.51416,1.12299,3.11255,1.31519,4.73462
		C768.90747,570.76154,768.15881,571.61133,767.23822,572.30267z"/>
	<path class="st34" d="M763.62006,584.27045l1.26434-1.26428c0.25677-0.25684,0.50018-0.52179,0.7359-0.79114
		c-0.68164-0.03937-1.36725-0.19104-2.02826-0.48065l-5.31525-2.32959c-0.80396-0.35223-1.48572-0.86597-2.03442-1.48187
		c-0.12689,0.59918-0.42419,1.16626-0.888,1.63007c-0.14844,0.1485-0.30853,0.27777-0.47583,0.39209
		c0.69104,0.67065,1.50793,1.23474,2.44061,1.64374l5.31592,2.32965C762.95941,584.06055,763.28888,584.17255,763.62006,584.27045z"
		/>
	<path class="st34" d="M753.68872,587.55023l-0.35901-5.79211c-0.02643-0.42676-0.00372-0.84851,0.05872-1.26147
		c-0.80219,0.08936-1.62885-0.11627-2.30969-0.61359c-0.12091,0.65955-0.17181,1.33606-0.12933,2.02258l0.35895,5.79211
		c0.02045,0.32928,0.06653,0.6524,0.12408,0.97217c0.83008,0.19025,1.67639,0.28986,2.5238,0.29755
		C753.8136,588.51215,753.71875,588.03882,753.68872,587.55023z"/>
	<path class="st35" d="M742.31616,561.84753h-0.00006c-2.35907-2.35907-2.35907-6.1839,0-8.54303l3.48468-3.48468
		c2.35913-2.35907,6.18396-2.35907,8.54303,0v0.00006c2.35913,2.35907,2.35913,6.1839,0,8.54303l-3.48462,3.48462
		C748.50006,564.20667,744.67523,564.20667,742.31616,561.84753z"/>
	<path class="st36" d="M745.58844,577.81525c0.05444-2.85016-4.4491-5.24756-8.63104-5.32739
		c-4.18201-0.0799-5.30127,2.21008-5.35571,5.06024c-0.05444,2.8501,0.97656,5.18109,5.15857,5.26093
		C740.9422,582.88892,745.534,580.66534,745.58844,577.81525z"/>
	<path class="st37" d="M744.48547,580.38873c2.69019-0.94299,3.36639-5.99988,1.98273-9.94714
		c-1.38361-3.94727-3.92017-4.19757-6.61035-3.25458c-2.69012,0.94293-4.5152,2.72217-3.13153,6.66943
		C738.10992,577.80371,741.79535,581.33173,744.48547,580.38873z"/>
</g>
<g>
	<path class="st32" d="M802.45471,565.8689l2.52924,2.52917c4.57953,4.57953,12.00519,4.57953,16.58478,0l3.42615-3.42615
		c1.50403-1.50403,1.50403-3.94556,0-5.44958c-0.75201-0.75201-1.74011-1.12628-2.72479-1.12634
		c-0.98804-0.00336-1.97278,0.37433-2.72479,1.12634l-2.89337,2.89343c-1.28821,1.28815-3.37897,1.28815-4.66718-0.00006
		c-0.61041-0.61035-0.93414-1.39948-0.95776-2.20544c-0.00671-0.04047-0.00671-0.08765-0.00671-0.12817
		c0-0.84302,0.32037-1.68945,0.96442-2.3335l13.03717-13.03723l-12.02881-12.02881l-10.53491,10.53491
		c-1.40289,1.40289-2.48877,3.00134-3.26434,4.7077c-0.68457,1.51416-1.12299,3.11261-1.31519,4.73462
		C797.31879,557.36072,798.84644,562.26062,802.45471,565.8689z"/>
	<g>
		<path class="st33" d="M812.52338,562.95441c-0.08789-0.08789-0.16663-0.18146-0.24097-0.27759
			c1.29474,1.01801,3.17603,0.93237,4.36951-0.26105l2.89337-2.89343c0.75201-0.75201,1.73676-1.1297,2.72479-1.12634
			c0.98468,0.00006,1.97278,0.37433,2.72479,1.12634c0.03308,0.03302,0.06134,0.06885,0.09296,0.10278
			c-0.68903-0.63818-1.58685-0.93982-2.49591-0.90729c-0.95374,0.03094-1.91748,0.42963-2.66943,1.18164l-2.89343,2.89343
			C815.74084,564.08112,813.72241,564.15344,812.52338,562.95441z"/>
		<path class="st33" d="M797.8786,552.65979c0.1922-1.62201,0.63062-3.22046,1.31519-4.73462
			c0.77557-1.70636,1.86145-3.30481,3.26434-4.7077l10.53491-10.53491l1.53271,1.53271l-10.53491,10.53491
			c-1.40289,1.40289-2.50653,2.98358-3.31433,4.65771c-0.71326,1.48547-1.19177,3.04376-1.43347,4.61633
			c-0.70313,4.55762,0.60205,9.23505,3.96063,12.59363l-0.74896-0.74896
			C798.84644,562.26062,797.31879,557.36072,797.8786,552.65979z"/>
	</g>
	<path class="st34" d="M806.02594,547.57446l4.104,4.10406c1.52429,1.52423,3.50043,2.33356,5.50354,2.42126l2.97437-2.97437
		c-2.21222,1.07916-4.95728,0.70148-6.79175-1.13306l-4.10406-4.104c-1.83447-1.83453-2.2088-4.58966-1.12286-6.80188
		l-2.9845,2.98444C803.69238,544.07404,804.50165,546.05023,806.02594,547.57446z"/>
	<path class="st34" d="M822.96332,567.00342c-0.17389-0.68005-0.52216-1.32428-1.05353-1.85565l-3.02448-3.02448
		c-0.34106-0.34106-0.72986-0.60388-1.14331-0.79767l1.75232-1.75226c0.38141,0.24475,0.74384,0.53052,1.07709,0.86377
		l3.02448,3.02448c0.50909,0.50909,0.90948,1.08496,1.21204,1.69727L822.96332,567.00342z"/>
	<path class="st34" d="M800.10089,555.16541l4.6369,3.48346c1.77716,1.33209,3.96234,1.89191,6.16107,1.58167
		c0.04047-0.00671,0.08429-0.01013,0.12811-0.02026c-0.00671-0.04047-0.00671-0.08765-0.00671-0.12817
		c0-0.84302,0.32037-1.68945,0.96442-2.3335l0.49237-0.49243c-0.59009,0.30688-1.23761,0.51599-1.91541,0.61377
		c-1.56476,0.2226-3.1261-0.17871-4.39069-1.12634l-4.6402-3.48694c-1.26459-0.94757-2.08411-2.33356-2.30664-3.89825
		c-0.06744-0.47888-0.07758-0.96112-0.03033-1.43323c-0.68457,1.51416-1.12299,3.11261-1.31519,4.73462
		C798.43164,553.62427,799.1803,554.47406,800.10089,555.16541z"/>
	<path class="st34" d="M803.71906,567.13324l-1.26434-1.26434c-0.25677-0.25677-0.50018-0.52173-0.7359-0.79114
		c0.68164-0.03937,1.36725-0.19104,2.02826-0.48065l5.31525-2.32959c0.80389-0.35223,1.48572-0.86597,2.03442-1.48187
		c0.12689,0.59918,0.42419,1.16632,0.888,1.63007c0.14844,0.1485,0.30853,0.27783,0.47583,0.39209
		c-0.69104,0.67065-1.50793,1.23474-2.44061,1.6438l-5.31592,2.32959C804.3797,566.92334,804.05023,567.03528,803.71906,567.13324z"
		/>
	<path class="st34" d="M813.65039,570.41296l0.35901-5.79211c0.02643-0.4267,0.00372-0.84845-0.05872-1.26147
		c0.80219,0.08942,1.62885-0.11627,2.30969-0.61359c0.12091,0.65955,0.17181,1.33612,0.12933,2.02258l-0.35895,5.79211
		c-0.02045,0.32928-0.06653,0.6524-0.12408,0.97217c-0.83008,0.19025-1.67639,0.28992-2.5238,0.29755
		C813.52551,571.37488,813.62036,570.90155,813.65039,570.41296z"/>
	<path class="st35" d="M825.02295,544.71033v-0.00006c2.35913-2.35907,2.35913-6.1839,0-8.54303l-3.48462-3.48462
		c-2.35913-2.35913-6.18396-2.35913-8.54303,0l0,0c-2.35913,2.35907-2.35913,6.1839,0,8.54303l3.48462,3.48468
		C818.83905,547.0694,822.66388,547.0694,825.02295,544.71033z"/>
	<path class="st36" d="M821.75067,560.67798c-0.05444-2.85016,4.4491-5.2475,8.63104-5.32739
		c4.18201-0.0799,5.30127,2.21008,5.35571,5.06024c0.05444,2.8501-0.97656,5.18109-5.15857,5.26093
		C826.39691,565.75165,821.80511,563.52808,821.75067,560.67798z"/>
	<path class="st37" d="M822.85364,563.25146c-2.69019-0.94299-3.36639-5.99988-1.98273-9.94714
		c1.38361-3.94727,3.92017-4.19757,6.61035-3.25458c2.69012,0.94293,4.5152,2.72217,3.13153,6.66943
		C829.22919,560.66644,825.54376,564.19446,822.85364,563.25146z"/>
</g>
<g>
	<path class="st32" d="M799.0849,687.07257l2.52917,2.52917c4.57953,4.57953,12.00525,4.57953,16.58478,0l3.42615-3.42615
		c1.50403-1.50403,1.50409-3.94562,0.00006-5.44965c-0.75201-0.75195-1.74017-1.12628-2.72485-1.12628
		c-0.98804-0.00336-1.97278,0.37433-2.72479,1.12634l-2.89337,2.89343c-1.28821,1.28815-3.37897,1.28815-4.66718-0.00006
		c-0.61035-0.61035-0.93414-1.39948-0.9577-2.20544c-0.00677-0.04047-0.00677-0.08765-0.00677-0.12817
		c0-0.84302,0.32037-1.68945,0.96448-2.33356l13.03717-13.03717l-12.02887-12.02881l-10.53491,10.53491
		c-1.40289,1.40289-2.48877,3.00134-3.26434,4.7077c-0.68457,1.51416-1.12299,3.11261-1.31519,4.73462
		C793.94897,678.56439,795.47656,683.46429,799.0849,687.07257z"/>
	<g>
		<path class="st33" d="M809.1535,684.15808c-0.08789-0.08795-0.16663-0.18152-0.24097-0.27759
			c1.2948,1.01801,3.17603,0.93237,4.36951-0.26105l2.89337-2.89343c0.75201-0.75201,1.73676-1.1297,2.72479-1.12634
			c0.98468,0,1.97284,0.37433,2.72485,1.12628c0.03302,0.03308,0.06128,0.06891,0.0929,0.10284
			c-0.68903-0.63818-1.58685-0.93982-2.49591-0.90729c-0.95374,0.03094-1.91742,0.42963-2.66943,1.18164l-2.89343,2.89343
			C812.37097,685.28473,810.3526,685.35712,809.1535,684.15808z"/>
		<path class="st33" d="M794.50873,673.86346c0.1922-1.62201,0.63062-3.22046,1.31519-4.73462
			c0.77557-1.70636,1.86145-3.30481,3.26434-4.7077l10.53491-10.53491l1.53271,1.53271l-10.53491,10.53491
			c-1.40289,1.40289-2.50647,2.98358-3.31433,4.65771c-0.71326,1.48547-1.19177,3.04376-1.43347,4.61633
			c-0.70313,4.55762,0.60211,9.23505,3.96069,12.59363l-0.74896-0.74896
			C795.47656,683.46429,793.94897,678.56439,794.50873,673.86346z"/>
	</g>
	<path class="st34" d="M802.65607,668.77814l4.10406,4.10406c1.52423,1.52423,3.50037,2.33356,5.50354,2.4212l2.9743-2.9743
		c-2.21222,1.07916-4.95721,0.70148-6.79175-1.13306l-4.10406-4.104c-1.83447-1.83453-2.2088-4.58966-1.12286-6.80194
		l-2.9845,2.9845C800.32251,665.27771,801.13184,667.25391,802.65607,668.77814z"/>
	<path class="st34" d="M819.59344,688.20709c-0.17389-0.68005-0.52216-1.32428-1.05353-1.85565l-3.02448-3.02448
		c-0.341-0.34106-0.72986-0.60388-1.14325-0.79767l1.75226-1.75232c0.38141,0.24475,0.74384,0.53058,1.07715,0.86383
		l3.02448,3.02448c0.50909,0.50909,0.90942,1.0849,1.21198,1.69727L819.59344,688.20709z"/>
	<path class="st34" d="M796.73108,676.36908l4.63684,3.48346c1.77716,1.33209,3.96234,1.89191,6.16107,1.58167
		c0.04047-0.00677,0.08435-0.01013,0.12817-0.02026c-0.00677-0.04047-0.00677-0.08765-0.00677-0.12817
		c0-0.84302,0.32037-1.68945,0.96448-2.33356l0.49237-0.49237c-0.59015,0.30688-1.23761,0.51599-1.91547,0.61377
		c-1.56476,0.22253-3.1261-0.17871-4.39063-1.12634l-4.64026-3.48694c-1.26459-0.94757-2.08405-2.33356-2.30664-3.89825
		c-0.06744-0.47894-0.07758-0.96112-0.03033-1.43323c-0.68457,1.51416-1.12299,3.11261-1.31519,4.73462
		C795.06177,674.82794,795.81042,675.67773,796.73108,676.36908z"/>
	<path class="st34" d="M800.34918,688.33691l-1.26428-1.26434c-0.25684-0.25677-0.50024-0.52179-0.7359-0.79114
		c0.68158-0.03937,1.36719-0.19104,2.0282-0.48065l5.31525-2.32959c0.80396-0.35223,1.48572-0.86597,2.03442-1.48187
		c0.12689,0.59918,0.42419,1.16632,0.888,1.63007c0.14844,0.1485,0.30859,0.27777,0.47589,0.39209
		c-0.6911,0.67065-1.508,1.23474-2.44067,1.64374l-5.31586,2.32965C801.00983,688.12695,800.68036,688.23895,800.34918,688.33691z"
		/>
	<path class="st34" d="M810.28058,691.61664l0.35895-5.79211c0.02643-0.42676,0.00372-0.84851-0.05872-1.26147
		c0.80219,0.08942,1.62885-0.11627,2.30969-0.61359c0.12097,0.65955,0.17181,1.33612,0.12933,2.02258l-0.35895,5.79211
		c-0.02045,0.32928-0.06653,0.6524-0.12402,0.97217c-0.83008,0.19025-1.67645,0.28992-2.52386,0.29755
		C810.15564,692.57855,810.25049,692.10522,810.28058,691.61664z"/>
	<path class="st35" d="M821.65314,665.91394L821.65314,665.91394c2.35907-2.35907,2.35907-6.1839,0-8.54303l-3.48468-3.48462
		c-2.35907-2.35913-6.18396-2.35913-8.54303,0l0,0c-2.35913,2.35907-2.35913,6.1839,0,8.54303l3.48468,3.48462
		C815.46918,668.27307,819.29401,668.27307,821.65314,665.91394z"/>
	<path class="st36" d="M818.3808,681.88165c-0.05444-2.85016,4.4491-5.24756,8.63104-5.32739
		c4.18201-0.0799,5.30127,2.21008,5.35571,5.06024c0.05444,2.8501-0.97656,5.18109-5.15851,5.26093
		C823.02704,686.95532,818.43524,684.73175,818.3808,681.88165z"/>
	<path class="st37" d="M819.48383,684.45514c-2.69019-0.94299-3.36639-5.99988-1.98279-9.94714
		c1.38367-3.94727,3.92023-4.19757,6.61035-3.25458c2.69012,0.94293,4.5152,2.72217,3.13159,6.66943
		C825.85931,681.87012,822.17389,685.39813,819.48383,684.45514z"/>
</g>
<g>
	<path class="st32" d="M703.46747,673.91534l-2.52917,2.52924c-4.57953,4.57953-4.57953,12.00519,0,16.58472l3.42621,3.42621
		c1.50397,1.50403,3.94556,1.50403,5.44958,0c0.75201-0.75201,1.12628-1.74011,1.12628-2.72479
		c0.00336-0.98804-0.37433-1.97278-1.12634-2.72479l-2.89337-2.89343c-1.28821-1.28815-1.28821-3.37891,0-4.66711
		c0.61035-0.61041,1.39948-0.93414,2.20544-0.95776c0.04047-0.00671,0.08771-0.00671,0.12817-0.00671
		c0.84308,0,1.68945,0.32037,2.33356,0.96442l13.03717,13.03717l12.02881-12.02881l-10.53491-10.53491
		c-1.40289-1.40289-3.00134-2.48877-4.7077-3.26434c-1.5141-0.68457-3.11255-1.12299-4.73462-1.31519
		C711.97565,668.77942,707.07581,670.30707,703.46747,673.91534z"/>
	<g>
		<path class="st33" d="M706.38196,683.98401c0.08795-0.08789,0.18152-0.16663,0.27759-0.24097
			c-1.01801,1.29474-0.93237,3.17603,0.26111,4.36945l2.89337,2.89343c0.75201,0.75201,1.1297,1.73676,1.12634,2.72479
			c0,0.98468-0.37427,1.97278-1.12628,2.72479c-0.03308,0.03308-0.06891,0.06134-0.10284,0.09296
			c0.63818-0.68903,0.93988-1.58685,0.90729-2.49591c-0.03094-0.95374-0.42963-1.91748-1.18164-2.66943l-2.89343-2.89343
			C705.25531,687.20148,705.18292,685.18304,706.38196,683.98401z"/>
		<path class="st33" d="M716.67657,669.33923c1.62207,0.1922,3.22052,0.63062,4.73462,1.31519
			c1.70636,0.77557,3.30481,1.86145,4.7077,3.26434l10.53491,10.53491l-1.53271,1.53271l-10.53491-10.53491
			c-1.40289-1.40289-2.98358-2.50653-4.65771-3.31433c-1.48541-0.71326-3.04376-1.19177-4.61627-1.43347
			c-4.55768-0.70313-9.23511,0.60205-12.59369,3.96063l0.74896-0.74896
			C707.07581,670.30707,711.97565,668.77942,716.67657,669.33923z"/>
	</g>
	<path class="st34" d="M721.7619,677.48657l-4.10406,4.104c-1.52423,1.52429-2.3335,3.50043-2.4212,5.50354l2.9743,2.97437
		c-1.07916-2.21222-0.70148-4.95728,1.13306-6.79175l4.10406-4.10406c1.83447-1.83447,4.5896-2.2088,6.80188-1.12292
		l-2.9845-2.98444C725.26233,675.15302,723.28613,675.96228,721.7619,677.48657z"/>
	<path class="st34" d="M702.33295,694.42395c0.68005-0.17389,1.32434-0.52216,1.85565-1.05353l3.02454-3.02448
		c0.341-0.34106,0.60382-0.72986,0.79761-1.14331l1.75232,1.75232c-0.24475,0.38141-0.53058,0.74384-0.86383,1.07709
		l-3.02448,3.02448c-0.50909,0.50909-1.0849,0.90948-1.69727,1.21204L702.33295,694.42395z"/>
	<path class="st34" d="M714.17096,671.56152l-3.48346,4.6369c-1.33209,1.77716-1.89191,3.96234-1.58167,6.16107
		c0.00677,0.04047,0.01013,0.08429,0.02026,0.12811c0.04047-0.00671,0.08771-0.00671,0.12817-0.00671
		c0.84308,0,1.68945,0.32037,2.33356,0.96442l0.49237,0.49237c-0.30688-0.59009-0.51593-1.23761-0.61377-1.91541
		c-0.22253-1.56476,0.17877-3.1261,1.12634-4.39069l3.48694-4.6402c0.94757-1.26459,2.33356-2.08411,3.89825-2.30664
		c0.47894-0.06744,0.96112-0.07758,1.43323-0.03033c-1.5141-0.68457-3.11255-1.12299-4.73462-1.31519
		C715.7121,669.89227,714.8623,670.64093,714.17096,671.56152z"/>
	<path class="st34" d="M702.20319,675.17969l1.26428-1.26434c0.25684-0.25677,0.52179-0.50018,0.79114-0.7359
		c0.03937,0.68158,0.19104,1.36725,0.48065,2.02826l2.32959,5.31525c0.35223,0.80389,0.86597,1.48572,1.48187,2.03442
		c-0.59918,0.12689-1.16626,0.42419-1.63007,0.888c-0.14844,0.14844-0.27777,0.30853-0.39209,0.47583
		c-0.67065-0.69104-1.23474-1.50793-1.64374-2.44061l-2.32965-5.31592C702.41309,675.84033,702.30109,675.51086,702.20319,675.17969
		z"/>
	<path class="st34" d="M698.9234,685.11102l5.79211,0.35901c0.42676,0.02637,0.84851,0.00372,1.26147-0.05872
		c-0.08936,0.80219,0.11627,1.62885,0.61359,2.30969c-0.65955,0.12091-1.33606,0.17181-2.02258,0.12933l-5.79211-0.35895
		c-0.32928-0.02045-0.6524-0.06653-0.97217-0.12408c-0.19025-0.83008-0.28986-1.67639-0.29755-2.5238
		C697.96149,684.98615,698.43481,685.08099,698.9234,685.11102z"/>
	<path class="st35" d="M724.6261,696.48358L724.6261,696.48358c2.35907,2.35913,6.1839,2.35913,8.54303,0l3.48468-3.48462
		c2.35907-2.35913,2.35907-6.18396,0-8.54303h-0.00006c-2.35907-2.35913-6.1839-2.35913-8.54297,0l-3.48468,3.48462
		C722.26697,690.29968,722.26697,694.12451,724.6261,696.48358z"/>
	<path class="st36" d="M708.65839,693.2113c2.85016-0.05444,5.24756,4.4491,5.32739,8.63104
		c0.0799,4.18201-2.21008,5.30127-5.06024,5.35571c-2.85004,0.05444-5.18103-0.97656-5.26093-5.15857
		C703.58472,697.85754,705.80829,693.26575,708.65839,693.2113z"/>
	<path class="st37" d="M706.0849,694.31427c0.94299-2.69019,5.99988-3.36639,9.94714-1.98273
		c3.94727,1.38361,4.19757,3.92017,3.25458,6.61035c-0.94293,2.69012-2.72217,4.5152-6.66943,3.13153
		C708.66992,700.68982,705.14191,697.00439,706.0849,694.31427z"/>
</g>
<g>
	<path class="st32" d="M810.04541,588.41345l2.52917,2.52924c4.57953,4.57947,4.57953,12.00519-0.00006,16.58472l-3.42615,3.42621
		c-1.50403,1.50403-3.94556,1.50403-5.44958,0c-0.75201-0.75201-1.12628-1.74011-1.12628-2.72479
		c-0.00342-0.98804,0.37427-1.97278,1.12628-2.72479l2.89343-2.89343c1.28821-1.28815,1.28821-3.37891,0-4.66711
		c-0.61041-0.61041-1.39948-0.93414-2.20544-0.95776c-0.04053-0.00671-0.08771-0.00671-0.12817-0.00671
		c-0.84308,0-1.68951,0.32037-2.33356,0.96442l-13.03717,13.03717l-12.02887-12.02881l10.53491-10.53491
		c1.40295-1.40289,3.00134-2.48877,4.7077-3.26434c1.51416-0.68457,3.11261-1.12299,4.73462-1.31519
		C801.53723,583.27753,806.43707,584.80518,810.04541,588.41345z"/>
	<g>
		<path class="st33" d="M807.13086,598.48212c-0.08789-0.08789-0.18146-0.16663-0.27753-0.24097
			c1.01801,1.29474,0.93237,3.17603-0.26111,4.36945l-2.89343,2.89343c-0.75201,0.75201-1.1297,1.73676-1.12628,2.72479
			c0,0.98468,0.37427,1.97278,1.12628,2.72479c0.03302,0.03302,0.06891,0.06134,0.10278,0.09296
			c-0.63812-0.68903-0.93982-1.58691-0.90723-2.49591c0.03094-0.95374,0.42963-1.91748,1.18164-2.66949l2.89337-2.89337
			C808.25757,601.69958,808.3299,599.68115,807.13086,598.48212z"/>
		<path class="st33" d="M796.83624,583.83734c-1.62201,0.1922-3.22046,0.63062-4.73462,1.31519
			c-1.70636,0.77557-3.30475,1.86145-4.7077,3.26434l-10.53491,10.53491l1.53271,1.53271l10.53491-10.53491
			c1.40289-1.40289,2.98364-2.50653,4.65771-3.31433c1.48547-0.71326,3.04376-1.19183,4.61633-1.43347
			c4.55762-0.70313,9.23511,0.60205,12.59369,3.96063l-0.74896-0.74896
			C806.43707,584.80518,801.53723,583.27753,796.83624,583.83734z"/>
	</g>
	<path class="st34" d="M791.75092,591.98468l4.10406,4.104c1.52423,1.52423,2.33356,3.50043,2.42126,5.50354l-2.97437,2.97437
		c1.07916-2.21222,0.70148-4.95728-1.133-6.79175l-4.10406-4.10406c-1.83447-1.83447-4.5896-2.2088-6.80188-1.12292l2.9845-2.98444
		C788.25055,589.65112,790.22668,590.46039,791.75092,591.98468z"/>
	<path class="st34" d="M811.17993,608.92206c-0.68005-0.17389-1.32434-0.52216-1.85571-1.05353l-3.02448-3.02448
		c-0.341-0.34106-0.60388-0.72986-0.79767-1.14331l-1.75226,1.75232c0.24475,0.38141,0.53052,0.74384,0.86383,1.07709
		l3.02448,3.02448c0.50909,0.50909,1.0849,0.90948,1.6972,1.21204L811.17993,608.92206z"/>
	<path class="st34" d="M799.34186,586.05963l3.48352,4.6369c1.33209,1.77716,1.89191,3.96234,1.5816,6.16107
		c-0.00671,0.04047-0.01013,0.08429-0.0202,0.12811c-0.04053-0.00671-0.08771-0.00671-0.12817-0.00671
		c-0.84308,0-1.68951,0.32037-2.33356,0.96442l-0.49237,0.49237c0.30682-0.59015,0.51593-1.23761,0.61371-1.91541
		c0.2226-1.56476-0.17871-3.1261-1.12628-4.39069l-3.48694-4.6402c-0.94757-1.26459-2.33356-2.08411-3.89832-2.30664
		c-0.47888-0.06744-0.96112-0.07758-1.43323-0.03033c1.51416-0.68457,3.11261-1.12299,4.73462-1.31519
		C797.80078,584.39038,798.65051,585.13904,799.34186,586.05963z"/>
	<path class="st34" d="M811.30969,589.6778l-1.26428-1.26434c-0.25684-0.25677-0.52179-0.50018-0.7912-0.7359
		c-0.03937,0.68158-0.19098,1.36725-0.48059,2.02826l-2.32965,5.31525c-0.35223,0.80389-0.86597,1.48572-1.48187,2.03442
		c0.59918,0.12689,1.16632,0.42419,1.63013,0.888c0.14844,0.14844,0.27777,0.30853,0.39203,0.47583
		c0.67065-0.69104,1.2348-1.508,1.6438-2.44061l2.32959-5.31592C811.09979,590.33844,811.21179,590.00897,811.30969,589.6778z"/>
	<path class="st34" d="M814.58942,599.60913l-5.79211,0.35895c-0.4267,0.02643-0.84845,0.00372-1.26141-0.05865
		c0.08936,0.80219-0.11633,1.62885-0.61365,2.30969c0.65955,0.12091,1.33612,0.17181,2.02264,0.12933l5.79205-0.35895
		c0.32935-0.02045,0.6524-0.06653,0.97223-0.12408c0.19019-0.83008,0.28986-1.67639,0.29749-2.5238
		C815.55139,599.48425,815.07806,599.5791,814.58942,599.60913z"/>
	<path class="st35" d="M788.88678,610.98169L788.88678,610.98169c-2.35913,2.35913-6.18396,2.35913-8.54303,0l-3.48468-3.48462
		c-2.35907-2.35913-2.35907-6.18396,0-8.54303v-0.00006c2.35907-2.35907,6.18396-2.35907,8.54303,0l3.48468,3.48468
		C791.24585,604.79779,791.24585,608.62262,788.88678,610.98169z"/>
	<path class="st36" d="M804.85449,607.70941c-2.85016-0.05444-5.24756,4.4491-5.32745,8.63104
		c-0.0799,4.18201,2.21014,5.30127,5.06024,5.35571s5.18109-0.97656,5.26099-5.15857
		C809.92816,612.35565,807.70453,607.76385,804.85449,607.70941z"/>
	<path class="st37" d="M807.42798,608.81238c-0.94299-2.69019-5.99994-3.36639-9.94714-1.98273
		c-3.94733,1.38361-4.19763,3.92017-3.25464,6.61035c0.94299,2.69012,2.72217,4.5152,6.66943,3.13153
		C804.8429,615.18793,808.37091,611.5025,807.42798,608.81238z"/>
</g>
<path class="st38" d="M841.33563,625.31421c-0.89844-0.8985-2.3551-0.8985-3.2536,0l-5.48035,5.48035
	c-0.89844,0.89844-0.89844,2.35516,0,3.2536s2.35516,0.89844,3.2536,0l5.48035-5.48035
	C842.23413,627.66931,842.23413,626.21265,841.33563,625.31421z"/>
<path class="st38" d="M762.0257,687.16443c-1.27063,0-2.30066,1.03003-2.30066,2.30066v7.75043
	c0,1.27063,1.03003,2.30066,2.30066,2.30066c1.27057,0,2.3006-1.03003,2.3006-2.30066v-7.75043
	C764.32629,688.19446,763.29626,687.16443,762.0257,687.16443z"/>
<path class="st39" d="M785.74243,547.34534c-1.27057,0-2.3006,1.03003-2.3006,2.30066v7.75037
	c0,1.27063,1.03003,2.30066,2.3006,2.30066c1.27063,0,2.30066-1.03003,2.30066-2.30066V549.646
	C788.04309,548.37537,787.01306,547.34534,785.74243,547.34534z"/>
<path class="st39" d="M710.06659,610.79828c-0.89844,0.8985-0.89844,2.35516,0,3.2536l5.48035,5.48041
	c0.8985,0.89844,2.35516,0.89844,3.25366,0c0.89844-0.8985,0.89844-2.35516,0-3.25366l-5.48041-5.48035
	C712.42175,609.89984,710.96503,609.89984,710.06659,610.79828z"/>
<g>
	<path class="st8" d="M819.11871,595.01538c-1.03918,3.90082-0.03967,8.23199,3.0202,11.29187
		c1.5542,1.55426,3.4364,2.5769,5.42358,3.0708c3.52356,0.87579,6.79468-2.39532,5.91888-5.91888
		c-0.49396-1.98718-1.5166-3.86938-3.0708-5.42358C827.35071,594.97571,823.01953,593.9762,819.11871,595.01538z"/>
	<path class="st9" d="M833.48138,603.45917c-0.49396-1.98718-1.5166-3.86938-3.0708-5.42358
		c-3.05988-3.05988-7.39105-4.05939-11.29187-3.0202l13.05298,13.05298
		C833.32043,606.91962,833.91925,605.22095,833.48138,603.45917z"/>
</g>
<path class="st40" d="M832.38879,770.10315c-1.47339,0-2.66754-1.19415-2.66754-2.66754s1.19415-2.66754,2.66754-2.66754
	c15.51758,0,28.14252-12.62494,28.14252-28.14246c0-1.47339,1.19409-2.66754,2.66748-2.66754
	c1.47345,0,2.66754,1.19415,2.66754,2.66754C865.86633,755.08472,850.84796,770.10315,832.38879,770.10315z"/>
<path class="st40" d="M704.2774,770.10315c-16.2558,0-30.1181-11.60901-32.96069-27.60376
	c-0.25787-1.4505,0.70911-2.83533,2.15955-3.09271c1.44995-0.26257,2.83533,0.70752,3.0932,2.15906
	c2.38934,13.44397,14.0426,23.20233,27.70795,23.20233c1.47345,0,2.66754,1.19415,2.66754,2.66754
	S705.75085,770.10315,704.2774,770.10315z"/>
<path class="st40" d="M841.95233,778.81531c-1.47339,0-2.66754-1.19409-2.66754-2.66748c0-1.47345,1.19415-2.66754,2.66754-2.66754
	c15.51752,0,28.14246-12.62494,28.14246-28.14252c0-1.47339,1.19415-2.66748,2.66754-2.66748s2.66754,1.19409,2.66754,2.66748
	C875.42987,763.79694,860.41144,778.81531,841.95233,778.81531z"/>
<g>
	<path class="st7" d="M586.98566,801.31317H432.04648v15.56061h154.93918c4.297,0,7.78033-3.4834,7.78033-7.78033l0,0
		C594.76599,804.79651,591.28265,801.31317,586.98566,801.31317z"/>
	<rect x="432.04648" y="801.31317" class="st41" width="52.81715" height="15.56061"/>
	<rect x="484.86365" y="801.31317" class="st42" width="7.23474" height="15.56061"/>
	<rect x="432.04648" y="801.31317" class="st42" width="21.87377" height="15.56061"/>
</g>
<path class="st9" d="M548.06226,793.93298h-21.03693c-2.03796,0-3.69006,1.6521-3.69006,3.69006l0,0
	c0,2.03802,1.6521,3.69012,3.69006,3.69012h21.03693c2.03796,0,3.69012-1.6521,3.69012-3.69012l0,0
	C551.75238,795.58508,550.10022,793.93298,548.06226,793.93298z"/>
<path class="st8" d="M511.94525,793.93298h-21.03696c-2.03799,0-3.69009,1.6521-3.69009,3.69006l0,0
	c0,2.03802,1.6521,3.69012,3.69009,3.69012h21.03696c2.03796,0,3.69006-1.6521,3.69006-3.69012l0,0
	C515.63531,795.58508,513.98322,793.93298,511.94525,793.93298z"/>
<path class="st8" d="M562.88159,794.07672l-20.21222-5.83264c-1.95813-0.565-4.00348,0.56427-4.56854,2.52234l0,0
	c-0.56506,1.95807,0.56421,4.00348,2.52234,4.56854l20.21222,5.83258c1.95807,0.56506,4.00348-0.56421,4.56848-2.52228v-0.00006
	C565.96893,796.68713,564.83966,794.64178,562.88159,794.07672z"/>
<g>
	<circle class="st43" cx="574.99628" cy="798.60529" r="2.70784"/>
	<rect x="571.34235" y="795.89746" class="st43" width="3.65395" height="5.41569"/>
	<circle class="st38" cx="571.34229" cy="798.60529" r="2.70784"/>
</g>
<g>
	<circle class="st43" cx="561.52521" cy="798.60529" r="2.70784"/>
	<rect x="557.87128" y="795.89746" class="st43" width="3.65395" height="5.41569"/>
	<circle class="st38" cx="557.87128" cy="798.60529" r="2.70784"/>
</g>
<g>
	<circle class="st43" cx="541.52289" cy="798.60529" r="2.70784"/>
	<rect x="537.86896" y="795.89746" class="st43" width="3.65395" height="5.41569"/>
	<circle class="st38" cx="537.86896" cy="798.60529" r="2.70784"/>
</g>
<g>
	<circle class="st43" cx="526.8913" cy="798.60529" r="2.70784"/>
	<rect x="523.2373" y="795.89746" class="st43" width="3.65395" height="5.41569"/>
	<circle class="st38" cx="523.2373" cy="798.60529" r="2.70784"/>
</g>
<g>
	<path class="st25" d="M923.97882,718.33582h-48.03271c-5.88348,0-10.65302-4.76953-10.65302-10.65308l0,0
		c0-5.88348,4.76953-10.65302,10.65302-10.65302h48.03271V718.33582z"/>
	<path class="st44" d="M865.45795,709.492c0.86072,5.01996,5.22272,8.84381,10.48816,8.84381h48.03265V709.492H865.45795z"/>
	<path class="st45" d="M901.66547,690.02142v68.55316c0,11.63861,9.43494,21.07355,21.07349,21.07355h111.68878
		c11.63855,0,21.07349-9.43494,21.07349-21.07355v-68.55316H901.66547z"/>
	<path class="st46" d="M1042.3562,690.02142v68.55316c0,11.63855-8.62866,21.07355-19.27277,21.07355h11.3443
		c11.63855,0,21.07349-9.435,21.07349-21.07355v-68.55316H1042.3562z"/>
	<path class="st4" d="M963.29877,703.8902h-44.91675c-1.89447,0-3.43024-1.53577-3.43024-3.43024l0,0
		c0-1.89447,1.53577-3.43024,3.43024-3.43024h44.91675c1.89447,0,3.43024,1.53577,3.43024,3.43024l0,0
		C966.729,702.35443,965.19324,703.8902,963.29877,703.8902z"/>
	<path class="st4" d="M986.1554,703.8902h-7.73553c-1.89447,0-3.4303-1.53577-3.4303-3.43024l0,0
		c0-1.89447,1.53583-3.43024,3.4303-3.43024h7.73553c1.89447,0,3.43024,1.53577,3.43024,3.43024l0,0
		C989.58563,702.35443,988.04987,703.8902,986.1554,703.8902z"/>
	<g>
		<path class="st40" d="M942.8653,672.57666c-0.77734,0-1.54736-0.33759-2.07465-0.98883
			c-1.51611-1.87146-3.06555-4.32642-3.06555-8.34753c0-4.75049,2.12567-7.25653,3.83459-9.26862
			c1.49005-1.75684,2.5675-3.026,2.5675-5.81854c0-2.78949-1.07642-4.05652-2.56647-5.81128
			c-1.70892-2.01208-3.83563-4.51605-3.83563-9.26447c0-4.75049,2.12671-7.25549,3.83563-9.26758
			c0.32611-0.38556,0.65436-0.77008,0.9649-1.17334c0.98883-1.28479,1.60156-2.50909,1.60156-4.64105
			c0-1.47339,1.19409-2.66754,2.66754-2.66754c1.47339,0,2.66748,1.19415,2.66748,2.66754
			c0,3.87836-1.44733,6.25616-2.70813,7.89526c-0.36371,0.47101-0.74506,0.92218-1.1264,1.37128
			c-1.49115,1.7558-2.5675,3.02393-2.5675,5.81543c0,2.78943,1.07635,4.05652,2.56647,5.81128
			c1.70886,2.01208,3.83557,4.51605,3.83557,9.26447c0,4.75153-2.12671,7.25757-3.83453,9.27069
			c-1.49115,1.7558-2.5675,3.02496-2.5675,5.81647c0,2.24762,0.65955,3.48761,1.87561,4.99017
			c0.92737,1.1441,0.75128,2.82385-0.39392,3.75122C944.04797,672.38184,943.45404,672.57666,942.8653,672.57666z"/>
		<path class="st40" d="M977.8548,672.57666c-0.77734,0-1.54736-0.33759-2.07465-0.98883
			c-1.51611-1.87146-3.06555-4.32642-3.06555-8.34753c0-4.75049,2.12567-7.25653,3.83453-9.26862
			c1.49011-1.75684,2.5675-3.026,2.5675-5.81854c0-2.78949-1.07635-4.05652-2.56641-5.81128
			c-1.70892-2.01208-3.83563-4.51605-3.83563-9.26447c0-4.74945,2.12567-7.25342,3.8335-9.2655
			c0.32825-0.38556,0.65546-0.77112,0.96698-1.17542c0.98889-1.28479,1.60156-2.50909,1.60156-4.64105
			c0-1.47339,1.19415-2.66754,2.66754-2.66754s2.66754,1.19415,2.66754,2.66754c0,3.87836-1.44733,6.25616-2.70819,7.89526
			c-0.36365,0.47205-0.745,0.92322-1.12744,1.37335c-1.49005,1.75476-2.56647,3.02289-2.56647,5.81335
			c0,2.78943,1.07642,4.05652,2.56647,5.81128c1.70892,2.01208,3.83563,4.51605,3.83563,9.26447
			c0,4.75153-2.12671,7.25757-3.83459,9.27069c-1.49109,1.7558-2.5675,3.02496-2.5675,5.81647
			c0,2.24762,0.65961,3.48761,1.87561,4.99017c0.92743,1.1441,0.75128,2.82385-0.39386,3.75122
			C979.03748,672.38184,978.44354,672.57666,977.8548,672.57666z"/>
		<path class="st40" d="M1012.84534,672.57666c-0.77734,0-1.54742-0.33759-2.07465-0.98883
			c-1.51611-1.87146-3.06555-4.32642-3.06555-8.34753c0-4.75049,2.12567-7.25653,3.83453-9.26862
			c1.49011-1.75684,2.5675-3.026,2.5675-5.81854c0-2.78949-1.07635-4.05652-2.56647-5.81128
			c-1.70886-2.01208-3.83557-4.51605-3.83557-9.26447c0-4.74945,2.12567-7.25446,3.8335-9.26654
			c0.32721-0.38556,0.65442-0.77008,0.96594-1.17438c0.98993-1.28583,1.6026-2.51019,1.6026-4.64105
			c0-1.47339,1.19415-2.66754,2.66754-2.66754s2.66754,1.19415,2.66754,2.66754c0,3.87732-1.44836,6.25616-2.70923,7.89526
			c-0.36365,0.47101-0.745,0.92218-1.1264,1.37231c-1.49005,1.7558-2.56647,3.02393-2.56647,5.81439
			c0,2.78943,1.07642,4.05652,2.56647,5.81128c1.70886,2.01208,3.83563,4.51605,3.83563,9.26447
			c0,4.75153-2.12677,7.25757-3.83459,9.27069c-1.49109,1.7558-2.5675,3.02496-2.5675,5.81647
			c0,2.24762,0.65961,3.48761,1.87561,4.99017c0.92737,1.1441,0.75128,2.82385-0.39386,3.75122
			C1014.02802,672.38184,1013.43408,672.57666,1012.84534,672.57666z"/>
	</g>
</g>
<g>
	<path class="st47" d="M1161.89453,122.60132H238.10542c-14.54497,0-26.33601-11.79104-26.33601-26.33601v-0.00005
		c0-14.54498,11.79105-26.33601,26.33601-26.33601h923.78912c14.54504,0,26.33606,11.79103,26.33606,26.33601v0.00005
		C1188.23059,110.81028,1176.43958,122.60132,1161.89453,122.60132z"/>
	<path class="st48" d="M278.56509,96.26528v-0.00007c0-14.54497-11.79102-26.33601-26.336-26.33601h-14.12367
		c-14.54497,0-26.33601,11.79104-26.33601,26.33601v0.00007c0,14.54498,11.79105,26.33601,26.33601,26.33601h14.12367
		C266.77408,122.6013,278.56509,110.81026,278.56509,96.26528z"/>
</g>
<g>
	<circle class="st47" cx="726.39624" cy="308.40274" r="73.13694"/>
	<path class="st47" d="M726.39624,194.53766h-0.00006c-8.77386,0-15.88647-7.11263-15.88647-15.88647v-75.53136
		c0-8.77386,7.11261-15.88647,15.88647-15.88647h0.00006c8.77386,0,15.88647,7.11262,15.88647,15.88647v75.53136
		C742.28271,187.42503,735.1701,194.53766,726.39624,194.53766z"/>
	<rect x="716.75085" y="122.31869" class="st47" width="19.29074" height="174.86957"/>
	<circle class="st49" cx="730.90802" cy="311.77979" r="58.4124"/>
</g>
<g>
	<circle class="st47" cx="913.24194" cy="331.25012" r="80.69218"/>
	<path class="st47" d="M913.24194,205.62248h-0.00006c-9.68024,0-17.52759-7.84738-17.52759-17.5276v-83.33394
		c0-9.68023,7.84735-17.5276,17.52759-17.5276h0.00006c9.68024,0,17.52759,7.84737,17.52759,17.5276v83.33394
		C930.76953,197.7751,922.92218,205.62248,913.24194,205.62248z"/>
	<rect x="902.60016" y="125.94309" class="st47" width="21.28353" height="192.93407"/>
	<circle class="st49" cx="918.21979" cy="334.97601" r="64.44656"/>
</g>
<g>
	<rect x="341.79071" y="760.43103" class="st41" width="17.53832" height="6.09777"/>
	<g>
		<path class="st45" d="M358.6933,750.16107h-15.96533c-3.13138,0-5.66983,2.53851-5.66983,5.66986s2.53845,5.66986,5.66983,5.66986
			h15.96533c3.13138,0,5.66989-2.53851,5.66989-5.66986S361.82468,750.16107,358.6933,750.16107z"/>
		<g>
			<g>
				<circle class="st46" cx="341.85925" cy="757.75696" r="0.92373"/>
				<circle class="st46" cx="347.76019" cy="757.75696" r="0.92373"/>
				<circle class="st46" cx="353.66113" cy="757.75696" r="0.92373"/>
				<circle class="st46" cx="359.56207" cy="757.75696" r="0.92373"/>
			</g>
			<g>
				<circle class="st46" cx="344.80972" cy="753.90491" r="0.92373"/>
				<circle class="st46" cx="350.71066" cy="753.90491" r="0.92373"/>
				<circle class="st46" cx="356.6116" cy="753.90491" r="0.92373"/>
			</g>
		</g>
	</g>
	<path class="st7" d="M370.00735,808.95447l-7.97321-42.38916c-0.17636-0.93762-0.99524-1.61682-1.94928-1.61682h-19.06659
		c-0.95407,0-1.77295,0.6792-1.94931,1.61682l-7.97321,42.38916c-0.32095,1.7063,0.38898,3.44214,1.81363,4.43457l5.00272,3.48474
		h25.2789l5.00272-3.48474C369.61838,812.39661,370.32831,810.66077,370.00735,808.95447z"/>
	<path class="st41" d="M370.00735,808.95447l-7.97321-42.38916c-0.17633-0.93768-0.99524-1.61682-1.94931-1.61682h-2.54953
		l5.6557,51.92529l5.00272-3.4848C369.61838,812.39661,370.32831,810.66077,370.00735,808.95447z"/>
	<path class="st42" d="M331.09576,808.95447l7.97321-42.38916c0.17633-0.93768,0.99524-1.61682,1.94931-1.61682h2.54953
		l-5.6557,51.92529l-5.00272-3.4848C331.48474,812.39661,330.77481,810.66077,331.09576,808.95447z"/>
</g>
<g>
	<rect x="390.26312" y="760.43103" class="st27" width="17.53832" height="6.09777"/>
	<g>
		<path class="st45" d="M407.16571,750.16107h-15.96533c-3.13138,0-5.66983,2.53851-5.66983,5.66986
			s2.53845,5.66986,5.66983,5.66986h15.96533c3.13138,0,5.66986-2.53851,5.66986-5.66986S410.29709,750.16107,407.16571,750.16107z"
			/>
		<g>
			<g>
				<circle class="st46" cx="390.33163" cy="757.75696" r="0.92373"/>
				<circle class="st46" cx="396.2326" cy="757.75696" r="0.92373"/>
				<circle class="st46" cx="402.13354" cy="757.75696" r="0.92373"/>
				<circle class="st46" cx="408.03448" cy="757.75696" r="0.92373"/>
			</g>
			<g>
				<circle class="st46" cx="393.2821" cy="753.90491" r="0.92373"/>
				<circle class="st46" cx="399.18307" cy="753.90491" r="0.92373"/>
				<circle class="st46" cx="405.08401" cy="753.90491" r="0.92373"/>
			</g>
		</g>
	</g>
	<path class="st50" d="M418.47977,808.95447l-7.97321-42.38916c-0.17636-0.93762-0.99524-1.61682-1.94931-1.61682h-19.06659
		c-0.95404,0-1.77292,0.6792-1.94928,1.61682l-7.97321,42.38916c-0.32095,1.7063,0.38898,3.44214,1.81363,4.43457l5.00272,3.48474
		h25.2789l5.00272-3.48474C418.09079,812.39661,418.80072,810.66077,418.47977,808.95447z"/>
	<path class="st27" d="M418.47977,808.95447l-7.97321-42.38916c-0.17633-0.93768-0.99527-1.61682-1.94931-1.61682h-2.54953
		l5.6557,51.92529l5.00272-3.4848C418.09079,812.39661,418.80072,810.66077,418.47977,808.95447z"/>
	<path class="st28" d="M379.56818,808.95447l7.97321-42.38916c0.17633-0.93768,0.99524-1.61682,1.94928-1.61682h2.54956
		l-5.6557,51.92529l-5.00272-3.4848C379.95715,812.39661,379.24722,810.66077,379.56818,808.95447z"/>
</g>
</svg>
