<?xml version="1.0" encoding="utf-8"?>
<!-- Generator: Adobe Illustrator 22.1.0, SVG Export Plug-In . SVG Version: 6.00 Build 0)  -->
<svg version="1.1" xmlns="http://www.w3.org/2000/svg" xmlns:xlink="http://www.w3.org/1999/xlink" x="0px" y="0px"
	 viewBox="0 0 1400 1000" style="enable-background:new 0 0 1400 1000;" xml:space="preserve">
<style type="text/css">
	.st0{fill:#FFF2DD;}
	.st1{opacity:0.41;fill:#E5BC7F;}
	.st2{fill:#FF541F;}
	.st3{fill:#D83509;}
	.st4{fill:#96250B;}
	.st5{fill:#FF931D;}
	.st6{fill:#FFFFFF;}
	.st7{fill:#E8EEEF;}
	.st8{fill:#0E7777;}
	.st9{fill:#056865;}
	.st10{fill:#2BB4BC;}
	.st11{opacity:0.46;fill:#0E7777;}
	.st12{fill:#FFAE1F;}
	.st13{opacity:0.6;fill:#E5BC7F;}
	.st14{fill:#054946;}
	.st15{fill:none;}
	.st16{fill:#C96A1B;}
	.st17{fill:#DD7222;}
	.st18{fill:#A54D0C;}
	.st19{opacity:0.4;fill:#FF541F;}
	.st20{fill:#E6ECED;}
	.st21{opacity:0.81;fill:#FFFFFF;}
	.st22{opacity:0.28;fill:#FFFFFF;}
	.st23{opacity:0.57;fill:#E5BC7F;}
	.st24{fill:#E5BC7F;}
</style>
<g id="BACKGROUND">
	<rect x="-4" y="-1" class="st0" width="1400" height="1000"/>
</g>
<g id="OBJECT">
	<g>
		<g>
			<path class="st1" d="M1153.5,828.7c32-66.2,49.9-140.4,49.9-218.9c0-278.1-225.4-503.5-503.5-503.5S196.5,331.8,196.5,609.8
				c0,78.4,17.9,152.7,49.9,218.9H1153.5z"/>
			<g>
				<g id="XMLID_176_">
					<polygon id="XMLID_114_" class="st2" points="235.7,345.7 277.9,304.4 468.2,498.3 426.1,539.7 					"/>
					
						<rect id="XMLID_175_" x="368" y="267.5" transform="matrix(0.7137 -0.7005 0.7005 0.7137 -176.3775 375.3258)" class="st3" width="5.9" height="271.8"/>
					
						<rect id="XMLID_137_" x="257.6" y="320.2" transform="matrix(0.7137 -0.7005 0.7005 0.7137 -146.9168 283.2271)" class="st4" width="30.8" height="2.2"/>
					<g id="XMLID_115_">
						
							<rect id="XMLID_134_" x="272.7" y="324.5" transform="matrix(0.7137 -0.7005 0.7005 0.7137 -146.8717 291.8293)" class="st4" width="21.7" height="2.2"/>
						
							<rect id="XMLID_132_" x="279.9" y="331.9" transform="matrix(0.7137 -0.7005 0.7005 0.7137 -149.9876 299.0293)" class="st4" width="21.7" height="2.2"/>
						
							<rect id="XMLID_131_" x="287.2" y="339.3" transform="matrix(0.7137 -0.7005 0.7005 0.7137 -153.1249 306.27)" class="st4" width="21.7" height="2.2"/>
						
							<rect id="XMLID_130_" x="286.7" y="349.9" transform="matrix(0.7137 -0.7005 0.7005 0.7137 -159.4049 312.1417)" class="st4" width="30.8" height="2.2"/>
					</g>
					<g id="XMLID_116_">
						
							<rect id="XMLID_123_" x="302.5" y="354.6" transform="matrix(0.7137 -0.7005 0.7005 0.7137 -159.4504 321.3734)" class="st4" width="21.7" height="2.2"/>
						
							<rect id="XMLID_122_" x="309.8" y="362" transform="matrix(0.7137 -0.7005 0.7005 0.7137 -162.5701 328.5732)" class="st4" width="21.7" height="2.2"/>
						
							<rect id="XMLID_119_" x="317.1" y="369.5" transform="matrix(0.7137 -0.7005 0.7005 0.7137 -165.7035 335.8141)" class="st4" width="21.7" height="2.2"/>
						
							<rect id="XMLID_117_" x="316.6" y="380.1" transform="matrix(0.7137 -0.7005 0.7005 0.7137 -171.9671 341.6695)" class="st4" width="30.8" height="2.2"/>
					</g>
					<g id="XMLID_129_">
						
							<rect id="XMLID_163_" x="332.5" y="385.4" transform="matrix(0.7137 -0.7005 0.7005 0.7137 -172.4535 351.1559)" class="st4" width="21.7" height="2.2"/>
						
							<rect id="XMLID_162_" x="339.8" y="392.9" transform="matrix(0.7137 -0.7005 0.7005 0.7137 -175.5909 358.3966)" class="st4" width="21.7" height="2.2"/>
						
							<rect id="XMLID_161_" x="347.1" y="400.3" transform="matrix(0.7137 -0.7005 0.7005 0.7137 -178.6833 365.6551)" class="st4" width="21.7" height="2.2"/>
						
							<rect id="XMLID_144_" x="346.6" y="410.9" transform="matrix(0.7137 -0.7005 0.7005 0.7137 -184.9564 371.5226)" class="st4" width="30.8" height="2.2"/>
					</g>
					<g id="XMLID_124_">
						
							<rect id="XMLID_128_" x="362.4" y="415.6" transform="matrix(0.7137 -0.7005 0.7005 0.7137 -185.054 380.7407)" class="st4" width="21.7" height="2.2"/>
						
							<rect id="XMLID_127_" x="369.7" y="423" transform="matrix(0.7137 -0.7005 0.7005 0.7137 -188.1287 387.9583)" class="st4" width="21.7" height="2.2"/>
						
							<rect id="XMLID_126_" x="376.9" y="430.4" transform="matrix(0.7137 -0.7005 0.7005 0.7137 -191.2663 395.199)" class="st4" width="21.7" height="2.2"/>
						
							<rect id="XMLID_125_" x="376.5" y="441.1" transform="matrix(0.7137 -0.7005 0.7005 0.7137 -197.5379 401.0912)" class="st4" width="30.8" height="2.2"/>
					</g>
					<g id="XMLID_170_">
						
							<rect id="XMLID_174_" x="392.1" y="446.2" transform="matrix(0.7137 -0.7005 0.7005 0.7137 -197.9432 410.3193)" class="st4" width="21.7" height="2.2"/>
						
							<rect id="XMLID_173_" x="399.4" y="453.6" transform="matrix(0.7137 -0.7005 0.7005 0.7137 -201.0224 417.5367)" class="st4" width="21.7" height="2.2"/>
						
							<rect id="XMLID_172_" x="406.7" y="461" transform="matrix(0.7137 -0.7005 0.7005 0.7137 -204.1556 424.7776)" class="st4" width="21.7" height="2.2"/>
						
							<rect id="XMLID_171_" x="406.2" y="471.6" transform="matrix(0.7137 -0.7005 0.7005 0.7137 -210.4197 430.6397)" class="st4" width="30.8" height="2.2"/>
					</g>
					<g id="XMLID_165_">
						
							<rect id="XMLID_169_" x="421.9" y="476.3" transform="matrix(0.7137 -0.7005 0.7005 0.7137 -210.5258 439.8633)" class="st4" width="21.7" height="2.2"/>
						
							<rect id="XMLID_168_" x="429.3" y="483.8" transform="matrix(0.7137 -0.7005 0.7005 0.7137 -213.6179 447.1218)" class="st4" width="21.7" height="2.2"/>
						
							<rect id="XMLID_167_" x="436.5" y="491.2" transform="matrix(0.7137 -0.7005 0.7005 0.7137 -216.7381 454.3216)" class="st4" width="21.7" height="2.2"/>
						
							<rect id="XMLID_166_" x="436" y="501.8" transform="matrix(0.7137 -0.7005 0.7005 0.7137 -223.0424 460.1908)" class="st4" width="30.8" height="2.2"/>
					</g>
				</g>
				<g>
					<g>
						<polygon class="st5" points="308.9,453.4 282.9,479.4 463.8,651.1 480.6,634.3 						"/>
						<polygon class="st2" points="299.7,462.6 474.6,640.3 480.6,634.3 308.9,453.4 						"/>
						<path class="st2" d="M487.5,657.9L487.5,657.9c-4.4,4.4-11.2,5-15.2,1.2l-8.4-8l16.8-16.8l8,8.4
							C492.4,646.7,491.9,653.5,487.5,657.9z"/>
					</g>
					<polygon class="st6" points="249.8,439.1 282.9,479.4 308.9,453.4 268.7,420.3 					"/>
					<polygon class="st7" points="268.7,420.3 259.6,429.4 299.8,462.5 308.9,453.4 					"/>
					<path class="st2" d="M263.7,391.4c-11.8-11.8-66.5-24.3-66.5-24.3s12.4,54.6,24.3,66.5s30.9,12,42.5,0.3
						C275.7,422.3,275.6,403.3,263.7,391.4z"/>
					<path class="st8" d="M263.7,391.4c-11.8-11.8-66.5-24.3-66.5-24.3s12.4,54.6,24.3,66.5s30.9,12,42.5,0.3
						C275.7,422.3,275.6,403.3,263.7,391.4z"/>
					<path class="st9" d="M263.7,391.4c-11.8-11.8-66.5-24.3-66.5-24.3s1,4.5,2.8,11.3c17,4.7,40.4,12.2,47.7,19.5
						c11.8,11.8,12,30.9,0.3,42.5c-0.7,0.7-1.5,1.4-2.2,2c6.7-0.6,13.2-3.4,18.2-8.5C275.7,422.3,275.6,403.3,263.7,391.4z"/>
					<path class="st7" d="M280.4,429.9c-1.3,4.7-3.8,9.2-7.5,12.9c-3.9,3.9-8.7,6.5-13.7,7.7l-7.5-9.1c4.6-1.4,8.8-3.8,12.4-7.4
						c3.4-3.4,5.8-7.4,7.2-11.6L280.4,429.9z"/>
				</g>
				<g>
					
						<rect x="298.4" y="440.2" transform="matrix(0.7071 -0.7071 0.7071 0.7071 -314.1435 392.2583)" class="st10" width="36" height="270.3"/>
					
						<rect x="318.2" y="432" transform="matrix(0.7071 -0.7071 0.7071 0.7071 -305.9316 395.6598)" class="st11" width="12.8" height="270.3"/>
					<polygon class="st12" points="233.6,467 208.1,492.5 173.7,433.9 175,432.6 					"/>
					<polygon class="st8" points="198.3,446.3 175,432.6 173.7,433.9 187.4,457.2 					"/>
					<path class="st2" d="M438.9,697.8L438.9,697.8c-7,7-18.4,7-25.5,0l-14.2-14.2l25.5-25.5l14.2,14.2
						C445.9,679.4,445.9,690.8,438.9,697.8z"/>
				</g>
				<path class="st13" d="M1201.9,826.9H144.4c-18.4,0-33.4,15-33.4,33.4v0c0,18.4,15,33.4,33.4,33.4h1057.5
					c18.4,0,33.4-15,33.4-33.4v0C1235.3,841.9,1220.3,826.9,1201.9,826.9z"/>
				<g>
					
						<rect x="1194.5" y="425.6" transform="matrix(0.8266 0.5628 -0.5628 0.8266 460.6439 -603.0283)" class="st9" width="28.9" height="40.9"/>
					
						<rect x="1020.8" y="680.9" transform="matrix(0.8266 0.5628 -0.5628 0.8266 574.1552 -460.989)" class="st8" width="28.9" height="40.9"/>
					<g>
						<path class="st10" d="M1243.7,657.5c-1.6,2.4-3.3,4.7-5.1,7c-18.2,23.7-42.5,40.5-69.1,49.5c-3.1,1.1-6.2,2-9.4,2.9
							c-27.9,7.5-57.9,6.7-86-2.9c-12.1-4.2-23.9-10-35-17.6c-11.1-7.6-20.8-16.4-29.2-26.1c-19.3-22.6-31-50.2-34.3-78.9
							c-0.4-3.3-0.6-6.5-0.8-9.8c-1.3-28.1,5.3-56.8,20.7-82.5c1.5-2.5,3-4.9,4.6-7.3c0.2-0.3,0.4-0.6,0.6-0.9
							c18-26,42.8-44.4,70.4-54.5c3.1-1.1,6.1-2.1,9.3-3c28.8-8.4,60-8,89.2,2c12.1,4.2,23.9,10,35,17.6
							c11.1,7.6,20.8,16.4,29.2,26.1c20.1,23.5,31.9,52.4,34.6,82.3c0.3,3.2,0.5,6.5,0.6,9.7c0.7,29.4-7.3,59.3-24.9,85.5
							C1244.1,656.9,1243.9,657.2,1243.7,657.5z"/>
						<path class="st11" d="M1244.2,656.6c17.6-26.2,25.6-56.1,24.9-85.5c-0.1-3.3-0.3-6.5-0.6-9.7c-2.7-29.9-14.5-58.8-34.6-82.3
							c-6.5-7.6-13.9-14.7-22.2-21c3.4,10,5.6,20.3,6.6,30.8c0.3,2.9,0.4,5.8,0.5,8.8c0.7,26.4-6.6,53.3-22.4,77
							c-0.2,0.3-0.4,0.5-0.5,0.8c-1.5,2.2-3,4.2-4.5,6.3c-16.4,21.4-38.2,36.4-62.2,44.6c-2.8,1-5.6,1.8-8.4,2.6
							c-25.1,6.7-52.1,6.1-77.4-2.7c-10.9-3.8-21.5-9-31.5-15.8c-10-6.8-18.7-14.7-26.2-23.5c-4-4.7-7.6-9.6-10.8-14.7
							c-0.1,3.1,0,6.3,0.1,9.4c0.2,3.3,0.4,6.5,0.8,9.8c3.3,28.7,15,56.3,34.3,78.9c8.3,9.7,18.1,18.5,29.2,26.1
							c11.1,7.6,22.9,13.4,35,17.6c28.1,9.7,58.1,10.4,86,2.9c3.2-0.8,6.3-1.8,9.4-2.9c26.6-9.1,50.9-25.8,69.1-49.5
							c1.7-2.3,3.4-4.6,5.1-7C1243.9,657.2,1244.1,656.9,1244.2,656.6z"/>
						<path class="st6" d="M1190.5,634.8l1.5-2l46.6,31.7c1.7-2.3,3.4-4.6,5.1-7c0.2-0.3,0.4-0.6,0.6-0.9l-46.7-31.8l1.4-2.2
							c12.3-18.5,21.9-37.8,28.6-57.3l0.8-2.4l2.4,0.7c13.5,4.1,26.3,6.6,38.3,7.4c-0.1-3.3-0.3-6.5-0.6-9.7
							c-10.9-0.9-22.6-3.2-34.9-6.9l-2.4-0.7l0.7-2.5c2.8-10.6,4.7-20.9,5.5-30.8c1.3-15.5,0.1-29.4-3.5-41.3
							c-8.3-9.7-18.1-18.5-29.2-26.1c-11.1-7.6-22.9-13.4-35-17.6c-12.4,1-25.8,5-39.7,11.9c-8.9,4.4-17.9,9.9-26.6,16.4l-2,1.5
							l-1.6-2c-8.1-10.1-14.5-20.2-19.2-29.9c-3.1,0.9-6.2,1.9-9.3,3c5.1,10.7,12.1,21.7,21,32.8l1.6,2l-1.9,1.7
							c-15.7,13.4-30.1,29.4-42.9,47.7l-1.5,2.1l-46.7-31.8c-0.2,0.3-0.4,0.6-0.6,0.9c-1.6,2.4-3.2,4.8-4.6,7.3l46.6,31.7l-1.3,2.1
							c-11.1,17.7-19.7,36.1-25.7,54.4l-0.8,2.5l-2.5-0.8c-13-4-25.4-6.5-37-7.5c0.2,3.3,0.4,6.5,0.8,9.8c10.4,1,21.7,3.4,33.6,7.2
							l2.4,0.7l-0.6,2.4c-2.3,9.3-3.9,18.5-4.6,27.3c-1.3,15.5-0.1,29.4,3.5,41.3c8.3,9.7,18.1,18.5,29.2,26.1
							c11.1,7.6,22.9,13.4,35,17.6c12.4-1,25.8-5,39.7-11.9c7.9-3.9,15.9-8.7,23.8-14.3l2-1.4l1.6,1.9c7.7,9.6,14.1,19.3,18.9,28.7
							c3.2-0.8,6.3-1.8,9.4-2.9c-5.2-10.4-12.1-21-20.6-31.6l-1.6-2l2-1.7C1164.2,666.4,1178,651.6,1190.5,634.8z M1035.3,693.5
							l-2.3-2.2c-13.3-13-19.1-34.3-16.9-61.5c0.7-7.9,2-16.1,4-24.4l0.7-2.9l2.8,1.1c17.4,6.7,34.7,15.6,51.5,26.5l2.3,1.5
							L1035.3,693.5z M1082.9,623.5l-2.2-1.4c-18-11.7-36.5-21.2-54.8-28.1l-2.3-0.9l0.8-2.4c5.7-17.5,13.9-35,24.5-52l1.5-2.3
							l62.8,42.8L1082.9,623.5z M1118.6,571.1l-63-42.9l1.5-2.2c12.3-17.5,26.1-32.9,41.1-45.7l2-1.7l1.7,1.9
							c13.4,14.9,29.2,28.9,46.9,41.5l2.1,1.5L1118.6,571.1z M1156.4,515.6l-2.2-1.6c-16.8-12-31.7-25.2-44.5-39.2l-2-2.2l2.4-1.7
							c8-5.9,16.2-10.9,24.3-14.9c24.5-12.1,46.4-14.5,63.4-6.9l2.9,1.3L1156.4,515.6z M1208.7,455.9l2.3,2.2
							c13.3,13,19.1,34.3,16.9,61.5c-0.8,9-2.4,18.5-4.9,28.1l-0.7,2.8l-2.7-1c-17.6-6.7-35.3-15.8-52.7-27l-2.3-1.5L1208.7,455.9z
							 M1130.9,680.6c-7,4.9-14.2,9.2-21.3,12.7c-24.5,12.1-46.4,14.5-63.4,6.9l-2.9-1.3l42.2-62l2.2,1.6
							c16.4,11.8,31.1,24.6,43.6,38.2l2,2.2L1130.9,680.6z M1182.4,629.5c-12,16.1-25.2,30.2-39.4,41.9l-1.9,1.6l-1.7-1.9
							c-13.2-14.5-28.8-28.2-46.3-40.7l-2.1-1.5l30.2-44.4l62.9,42.8L1182.4,629.5z M1126.6,576.5l32.3-47.5l2.2,1.4
							c18.3,11.9,37.1,21.5,55.8,28.5l2.4,0.9l-0.8,2.4c-6.4,18.6-15.7,37.1-27.4,54.9l-1.5,2.2L1126.6,576.5z"/>
					</g>
					<rect x="1113.8" y="736.5" class="st9" width="18" height="82.9"/>
					<path class="st9" d="M1169.3,800h-91.6c-7.2,0-13.1,5.9-13.1,13.1v9.6h117.8v-9.6C1182.3,805.9,1176.5,800,1169.3,800z"/>
					<rect x="1064.6" y="819" class="st14" width="117.8" height="3.7"/>
					<path class="st14" d="M1169.3,800h-24.5c7.2,0,13.1,5.9,13.1,13.1v9.6h24.5v-9.6C1182.3,805.9,1176.5,800,1169.3,800z"/>
					<path class="st9" d="M1198.1,822.6h-149.3c-7.4,0-13.3,6-13.3,13.3v17.7h175.9v-17.7C1211.4,828.6,1205.4,822.6,1198.1,822.6z"
						/>
					<path class="st14" d="M1198.1,822.6h-38c7.4,0,13.3,6,13.3,13.3v17.7h38v-17.7C1211.4,828.6,1205.4,822.6,1198.1,822.6z"/>
					<g>
						<path class="st15" d="M1033.5,704.7c11.9,8.1,24.4,14.3,37.4,18.8c30,10.3,62,11.1,91.8,3.1c3.4-0.9,6.7-1.9,10-3
							c28.5-9.7,54.4-27.6,73.9-52.9c1.9-2.4,3.7-4.9,5.4-7.5c0.2-0.3,0.4-0.6,0.6-0.9c18.8-28,27.4-60,26.6-91.4
							c-0.1-3.5-0.3-6.9-0.6-10.4c-2.9-31.9-15.5-62.8-37-87.9c-1-1.2-2-2.3-3.1-3.5c-0.4-0.4-0.8-0.8-1.1-1.2
							c-0.7-0.7-1.3-1.4-2-2.1c-0.5-0.5-1-1-1.5-1.5c-0.6-0.6-1.1-1.1-1.7-1.7c-0.6-0.6-1.2-1.1-1.8-1.7c-0.2-0.2-0.4-0.4-0.6-0.5
							c-1.7-1.6-3.4-3.1-5.1-4.6c-0.2-0.2-0.4-0.3-0.6-0.5c-0.9-0.8-1.8-1.5-2.7-2.3c-0.2-0.2-0.4-0.3-0.6-0.5
							c-3.3-2.7-6.8-5.3-10.4-7.8c-0.1,0-0.1-0.1-0.2-0.1l-179.4,258.3C1031.8,703.5,1032.6,704.1,1033.5,704.7z"/>
						<path class="st9" d="M1288.9,570.6c-0.1-3.7-0.3-7.4-0.6-11.1c-3.1-33.9-16.5-66.7-39.3-93.3c-1.1-1.2-2.1-2.5-3.3-3.7
							c-0.4-0.4-0.8-0.9-1.2-1.3c-0.7-0.8-1.4-1.5-2.1-2.3c-0.5-0.5-1-1.1-1.6-1.6c-0.6-0.6-1.2-1.2-1.8-1.8
							c-0.6-0.6-1.2-1.2-1.9-1.8c-0.2-0.2-0.4-0.4-0.6-0.6c-1.8-1.7-3.6-3.3-5.4-4.9c-0.2-0.2-0.4-0.3-0.6-0.5
							c-1-0.8-1.9-1.6-2.9-2.4c-0.2-0.2-0.4-0.4-0.7-0.5c-3.5-2.9-7.2-5.6-11.1-8.2c0,0-0.1,0-0.1-0.1l-5.5,8c0.1,0,0.1,0.1,0.2,0.1
							c3.6,2.5,7.1,5.1,10.4,7.8c0.2,0.2,0.4,0.3,0.6,0.5c0.9,0.8,1.8,1.5,2.7,2.3c0.2,0.2,0.4,0.3,0.6,0.5c1.7,1.5,3.4,3,5.1,4.6
							c0.2,0.2,0.4,0.4,0.6,0.5c0.6,0.6,1.2,1.1,1.8,1.7c0.6,0.6,1.1,1.1,1.7,1.7c0.5,0.5,1,1,1.5,1.5c0.7,0.7,1.3,1.4,2,2.1
							c0.4,0.4,0.8,0.8,1.1,1.2c1,1.1,2.1,2.3,3.1,3.5c21.4,25.1,34.1,56,37,87.9c0.3,3.5,0.5,6.9,0.6,10.4
							c0.8,31.4-7.8,63.3-26.6,91.4c-0.2,0.3-0.4,0.6-0.6,0.9c-1.7,2.6-3.5,5-5.4,7.5c-19.5,25.4-45.4,43.2-73.9,52.9
							c-3.3,1.1-6.7,2.2-10,3c-29.8,8-61.8,7.2-91.8-3.1c-12.9-4.5-25.5-10.7-37.4-18.8c-0.9-0.6-1.7-1.2-2.6-1.8l-5.5,8
							c0.9,0.6,1.7,1.2,2.6,1.9c12.6,8.6,25.9,15.2,39.7,19.9c31.9,11,65.9,11.8,97.5,3.3c3.6-1,7.1-2,10.7-3.2
							c30.2-10.3,57.7-29.3,78.4-56.2c2-2.6,3.9-5.2,5.7-7.9c0.2-0.3,0.5-0.7,0.7-1C1280.7,637.9,1289.8,604,1288.9,570.6z"/>
					</g>
				</g>
				<path class="st16" d="M1048.8,354.4H381c-16.9,0-30.7,13.8-30.7,30.7v411.5c0,16.9,13.8,30.7,30.7,30.7h667.8
					c16.9,0,30.7-13.8,30.7-30.7V385.1C1079.5,368.2,1065.7,354.4,1048.8,354.4z"/>
				<path class="st17" d="M1048.8,354.4H381c-16.9,0-30.7,13.8-30.7,30.7v411.5c0,16.9,13.8,30.7,30.7,30.7h667.8
					c16.9,0,30.7-13.8,30.7-30.7V385.1C1079.5,368.2,1065.7,354.4,1048.8,354.4z"/>
				<path class="st18" d="M1048.8,354.4h-17c16.9,0,30.7,13.8,30.7,30.7v411.5c0,16.9-13.8,30.7-30.7,30.7h17
					c16.9,0,30.7-13.8,30.7-30.7V385.1C1079.5,368.2,1065.7,354.4,1048.8,354.4z"/>
				<path class="st9" d="M1037.5,385.5c3.6,0,6.6,3,6.6,6.6v397.5c0,3.6-3,6.6-6.6,6.6H392.4c-3.6,0-6.6-3-6.6-6.6V392.1
					c0-3.6,3-6.6,6.6-6.6H1037.5z"/>
				<path class="st14" d="M403,409.4c0-3.6,3-6.6,6.6-6.6h634.4v-10.7c0-3.6-3-6.6-6.6-6.6H392.4c-3.6,0-6.6,3-6.6,6.6v397.5
					c0,3.6,3,6.6,6.6,6.6H403V409.4z"/>
				<g>
					<path class="st10" d="M450.7,645.5v175.8c0,25.9-21,46.8-46.8,46.8H238.5c-25.9,0-46.8-21-46.8-46.8V645.5
						c0-19.6,15.9-35.4,35.4-35.4h188.1C434.8,610.1,450.7,626,450.7,645.5z"/>
					<path class="st10" d="M415.2,610.1h-18.9c19.6,0,35.4,15.9,35.4,35.4v175.8c0,25.9-21,46.8-46.8,46.8h18.9
						c25.9,0,46.8-21,46.8-46.8V645.5C450.7,626,434.8,610.1,415.2,610.1z"/>
					<path class="st12" d="M417.2,763.9v28.4c0,30.3-41.5,54.9-71.8,54.9H280c-30.3,0-54.9-24.6-54.9-54.9v-28.4
						c0-14.2,11.5-25.6,25.6-25.6h140.8C405.7,738.2,417.2,749.7,417.2,763.9z"/>
					<path class="st12" d="M468.2,603.2v71.4c0,13.3-10.8,24.1-24.1,24.1H198.2c-13.3,0-24.1-10.8-24.1-24.1v-71.4
						c0-22.4,18.2-40.6,40.6-40.6h213C450.1,562.6,468.2,580.8,468.2,603.2z"/>
					<path class="st3" d="M245.4,608.8h-24.7c-1.7,0-3.1,1.4-3.1,3.1v98.3c0,2.2,1,4.3,2.7,5.7l10.7,8.7c1.2,1,2.9,1,4.2,0l10.6-8.7
						c1.7-1.4,2.7-3.5,2.7-5.6v-98.3C248.5,610.2,247.2,608.8,245.4,608.8z"/>
					<path class="st2" d="M245.4,555.5h-24.7c-1.7,0-3.1,1.4-3.1,3.1v139c0,2.2,1,4.3,2.7,5.7l10.7,8.7c1.2,1,2.9,1,4.2,0l10.6-8.7
						c1.7-1.4,2.7-3.5,2.7-5.6V558.6C248.5,556.9,247.2,555.5,245.4,555.5z"/>
					<path class="st6" d="M250.4,643h-34.6c-2.4,0-4.4,2-4.4,4.4v26.4c0,2.4,2,4.4,4.4,4.4h34.6c2.4,0,4.4-2,4.4-4.4v-26.4
						C254.7,645,252.8,643,250.4,643z M248.4,672.1h-30.6V649h30.6V672.1z"/>
					<path class="st19" d="M262.3,647.4v26.3c0,2.4-2,4.4-4.4,4.4h-1.8v19.5c0,0.3,0,0.5,0,0.8h-7.5c0-0.3,0-0.5,0-0.8v-19.5h1.8
						c2.4,0,4.4-2,4.4-4.4v-26.3c0-2.4-2-4.4-4.4-4.4h-1.8v-80.4h7.5V643h1.8C260.3,643,262.3,645,262.3,647.4z"/>
					<path class="st19" d="M432.5,562.9v-0.3h-7.5v0h-24.6c22.4,0,12.2,18.2,12.2,40.6v71.4c0,13.3,17.5,24.1,4.2,24.1h27.3
						c13.3,0,24.1-10.8,24.1-24.1v-71.4C468.2,582.4,452.6,565.3,432.5,562.9z"/>
					<path class="st3" d="M421.6,608.8h-24.7c-1.7,0-3.1,1.4-3.1,3.1v98.3c0,2.2,1,4.3,2.7,5.7l10.7,8.7c1.2,1,2.9,1,4.2,0l10.6-8.7
						c1.7-1.4,2.7-3.5,2.7-5.6v-98.3C424.7,610.2,423.3,608.8,421.6,608.8z"/>
					<path class="st2" d="M421.6,555.5h-24.7c-1.7,0-3.1,1.4-3.1,3.1v139c0,2.2,1,4.3,2.7,5.7l10.7,8.7c1.2,1,2.9,1,4.2,0l10.6-8.7
						c1.7-1.4,2.7-3.5,2.7-5.6V558.6C424.7,556.9,423.3,555.5,421.6,555.5z"/>
					<path class="st6" d="M426.5,643H392c-2.4,0-4.4,2-4.4,4.4v26.4c0,2.4,2,4.4,4.4,4.4h34.6c2.4,0,4.4-2,4.4-4.4v-26.4
						C430.9,645,428.9,643,426.5,643z M424.5,672.1h-30.6V649h30.6V672.1z"/>
					<g>
						<path class="st12" d="M375,554.9c-1-25.9-22.2-46.2-48.1-46.2h-11.4c-25.9,0-47.1,20.3-48.1,46.2l-0.3,7.7h21.4l0.3-7.1
							c0.7-14.2,12.4-25.4,26.6-25.4h11.4c14.3,0,26,11.1,26.6,25.4l0.3,7.1h21.4L375,554.9z"/>
						<path class="st19" d="M267.4,554.6c0,0.1,0,0.2,0,0.3l-0.3,7.7h21.4l0.3-7.1c0-0.3,0-0.6,0.1-0.9H267.4z"/>
						<path class="st19" d="M374.9,554.6h-21.5c0,0.3,0.1,0.6,0.1,0.9l0.3,7.1h21.4l-0.3-7.7C374.9,554.8,374.9,554.7,374.9,554.6z"
							/>
					</g>
					<path class="st19" d="M391.6,738.3h-9.5c14.2,0,25.6,11.5,25.6,25.6v5.1H225.1v9.1h182.6v14.2c0,30.3-41.5,54.9-71.8,54.9h9.5
						c30.3,0,71.8-24.6,71.8-54.9v-28.4C417.2,749.7,405.7,738.3,391.6,738.3z"/>
					<path class="st2" d="M369.6,773.2v28.5c0,5.2,4.3,9.5,9.5,9.5s9.5-4.3,9.5-9.5v-28.5H369.6z M379.2,805.9
						c-2.7,0-4.9-2.2-4.9-4.9s2.2-4.9,4.9-4.9c2.7,0,4.9,2.2,4.9,4.9S381.9,805.9,379.2,805.9z"/>
				</g>
				<g>
					<g>
						<path class="st12" d="M959.5,678.9l-3.8,2.9c-2.1,1.6-5.1,1.2-6.7-0.9l-24-31.4c-1.6-2.1-1.2-5.1,0.9-6.7l3.8-2.9
							c2.1-1.6,5.1-1.2,6.7,0.9l24,31.4C962,674.3,961.6,677.3,959.5,678.9z"/>
						<path class="st2" d="M963.1,633c4.6-3.5,4-10.7-1.2-13.3c-13.6-7-31.6-5.5-45.7,5.2c-14,10.7-20.2,27.7-17,42.7
							c1.2,5.7,7.9,8.2,12.5,4.7L963.1,633z"/>
						<path class="st3" d="M961.8,619.6c-13.6-7-31.6-5.5-45.7,5.2c-3.1,2.4-5.8,5-8.1,7.9c12.8-6.9,27.6-7.1,39.2-1.1
							c4.1,2.1,5.3,7,3.4,10.7l12.3-9.4C967.7,629.4,967,622.3,961.8,619.6z"/>
					</g>
					<g>
						
							<rect x="1072" y="636.3" transform="matrix(-0.7944 -0.6074 0.6074 -0.7944 1535.0602 1841.3025)" class="st12" width="14.4" height="49.1"/>
						<path class="st2" d="M1053.5,628.9c-1.6-1.2-1.6-3.6-0.1-4.9c14-11.7,35.8-11.8,52.3,0.8c16.5,12.6,22.1,33.7,14.5,50.3
							c-0.8,1.8-3.1,2.4-4.7,1.2L1053.5,628.9z"/>
						<path class="st3" d="M1105.7,624.9c-2.3-1.8-4.7-3.2-7.2-4.5c10.6,12.6,13.5,29.5,7.2,43.3c-0.8,1.8-3.1,2.4-4.7,1.2l-48.4-37
							c0.2,0.4,0.5,0.8,0.9,1.1l62,47.4c1.6,1.2,3.9,0.6,4.7-1.2C1127.8,658.6,1122.2,637.5,1105.7,624.9z"/>
					</g>
					<path class="st12" d="M972.1,853l22.4-47c1.3-2.7,0.1-6-2.6-7.3l-9.9-4.7c-2.7-1.3-6-0.1-7.3,2.6L950,848
						c-1.8,3.9,1,8.3,5.2,8.3h11.6C969.1,856.3,971.1,855,972.1,853z"/>
					<path class="st12" d="M1055,856.3h11.6c4.3,0,7.1-4.5,5.2-8.3l-24.6-51.5c-1.3-2.7-4.6-3.9-7.3-2.6l-9.9,4.7
						c-2.7,1.3-3.9,4.6-2.6,7.3l22.4,47C1050.7,855,1052.7,856.3,1055,856.3z"/>
					<path class="st5" d="M994.5,806L979,838.5c-7.1-2.2-13.9-5.2-20.2-8.9l15.8-33.1c1.3-2.7,4.6-3.9,7.3-2.6l9.9,4.7
						C994.6,799.9,995.8,803.2,994.5,806z"/>
					<path class="st5" d="M1062.3,828.1c-6.2,3.9-12.9,7-19.9,9.5l-15.1-31.6c-1.3-2.7-0.1-6,2.6-7.3l9.9-4.7c2.7-1.3,6-0.1,7.3,2.6
						L1062.3,828.1z"/>
					<path class="st19" d="M994.5,806L979,838.5c-7.1-2.2-13.9-5.2-20.2-8.9l15.8-33.1c1.3-2.7,4.6-3.9,7.3-2.6l9.9,4.7
						C994.6,799.9,995.8,803.2,994.5,806z"/>
					<path class="st19" d="M1062.3,828.1c-6.2,3.9-12.9,7-19.9,9.5l-15.1-31.6c-1.3-2.7-0.1-6,2.6-7.3l9.9-4.7
						c2.7-1.3,6-0.1,7.3,2.6L1062.3,828.1z"/>
					<circle class="st2" cx="1009.3" cy="742.4" r="93.7"/>
					<circle class="st6" cx="1009.3" cy="742.4" r="78.9"/>
					<path class="st20" d="M936.4,745.4c0-43.5,35.3-78.9,78.9-78.9c11.5,0,22.4,2.5,32.3,6.9c-11.3-6.3-24.4-9.9-38.3-9.9
						c-43.5,0-78.9,35.3-78.9,78.9c0,32.1,19.1,59.6,46.6,71.9C952.8,800.9,936.4,775.1,936.4,745.4z"/>
					<circle class="st8" cx="1009.3" cy="742.4" r="5.5"/>
					<g>
						<path class="st8" d="M1009.3,672.7L1009.3,672.7c-1.7,0-3.1,1.4-3.1,3.1v10c0,1.7,1.4,3.1,3.1,3.1l0,0c1.7,0,3.1-1.4,3.1-3.1
							v-10C1012.4,674.1,1011,672.7,1009.3,672.7z"/>
						<path class="st8" d="M1009.3,795.9L1009.3,795.9c-1.7,0-3.1,1.4-3.1,3.1v10c0,1.7,1.4,3.1,3.1,3.1l0,0c1.7,0,3.1-1.4,3.1-3.1
							v-10C1012.4,797.3,1011,795.9,1009.3,795.9z"/>
						<path class="st8" d="M939.6,742.4L939.6,742.4c0,1.7,1.4,3.1,3.1,3.1h10c1.7,0,3.1-1.4,3.1-3.1l0,0c0-1.7-1.4-3.1-3.1-3.1h-10
							C941,739.3,939.6,740.7,939.6,742.4z"/>
						<path class="st8" d="M1062.8,742.4L1062.8,742.4c0,1.7,1.4,3.1,3.1,3.1h10c1.7,0,3.1-1.4,3.1-3.1l0,0c0-1.7-1.4-3.1-3.1-3.1
							h-10C1064.2,739.3,1062.8,740.7,1062.8,742.4z"/>
					</g>
					<path class="st8" d="M1008.8,744.6L1008.8,744.6c-1.4-0.3-2.3-1.7-2-3.1l11.2-49.1c0.3-1.4,1.7-2.3,3.1-2l0,0
						c1.4,0.3,2.3,1.7,2,3.1l-11.2,49.1C1011.7,744.1,1010.2,745,1008.8,744.6z"/>
					<path class="st8" d="M1007.8,742.2L1007.8,742.2c-0.9,1.1-2.5,1.3-3.7,0.5l-17.6-14.3c-1.1-0.9-1.3-2.5-0.5-3.7l0,0
						c0.9-1.1,2.5-1.3,3.7-0.5l17.6,14.3C1008.4,739.4,1008.6,741.1,1007.8,742.2z"/>
				</g>
				<g>
					<g>
						<path class="st12" d="M804.8,465.1c32.2,32.2,25.2,91.4,25.2,91.4s-59.2,7-91.4-25.2s-25.2-91.4-25.2-91.4
							S772.5,432.9,804.8,465.1z"/>
						<path class="st19" d="M783.2,470c19.3,19.3,15.1,54.8,15.1,54.8s-35.5,4.2-54.8-15.1c-19.3-19.3-15.1-54.8-15.1-54.8
							S763.9,450.7,783.2,470z"/>
					</g>
					<polygon class="st14" points="724,394.6 669.4,449.2 712.8,479.9 754.7,438.1 					"/>
					<path class="st2" d="M592.8,404.8c0,0-11.5,33.7,25.7,95.2l64.7,64.7l17-17c-10-18.9-45.3-73.3-21.2-110.2l-46.2-24.6
						L592.8,404.8z"/>
					<path class="st3" d="M632.8,412.9l-40-8.1c0,0-2.9,8.5-1.1,24.6l20.5,4.1l46.2,24.6c-18.9,29.1-1.1,69,12.2,93.9l12.7,12.7
						l17-17c-10-18.9-45.3-73.3-21.2-110.2L632.8,412.9z"/>
					<path class="st2" d="M672.2,315.3c0,0,33.7-11.5,95.2,25.7l64.7,64.7l-17,17c0,0-78.6-41.8-110.2-21.2l-24.6-46.2L672.2,315.3z
						"/>
					<path class="st3" d="M672.2,315.3l2.9,14.5c16,0.8,41.7,6.4,76.2,27.3l64.7,64.7l16-16L767.4,341
						C705.9,303.8,672.2,315.3,672.2,315.3z"/>
					<g>
						<path class="st10" d="M474.1,200.9l-0.1-0.1c0,0,0,0.1,0,0.1c-0.1,0-0.1,0-0.1,0l0.1,0.1c-1,8.9-22.6,218.9,207.1,269.8
							l31.3-31.3l0.2-0.2l31.3-31.3C693,178.3,483,199.9,474.1,200.9z"/>
						<path class="st11" d="M474.1,200.9l-0.1-0.1c0,0,0,0.1,0,0.1c-0.1,0-0.1,0-0.1,0l0.1,0.1c-0.2,1.5-0.9,8.9-1,20.3
							c55.5-0.1,207.3,17.5,249.6,208.1l21.4-21.4C693,178.3,483,199.9,474.1,200.9z"/>
						<path class="st2" d="M595,218.7c-60.7-24-116.4-18.2-120.9-17.7l-0.1-0.1c0,0,0,0.1,0,0.1c-0.1,0-0.1,0-0.1,0l0.1,0.1
							c-0.5,4.5-6.3,60.2,17.7,120.9L595,218.7z"/>
						<path class="st3" d="M474.1,200.9l-0.1-0.1c0,0,0,0.1,0,0.1c-0.1,0-0.1,0-0.1,0l0.1,0.1c-0.2,1.5-0.9,8.9-1,20.3
							c22.4,0,60.4,2.8,100.6,18.7l21.4-21.4C534.3,194.7,478.6,200.4,474.1,200.9z"/>
						<g>
							<circle class="st14" cx="604.1" cy="328.9" r="48.4"/>
							<circle class="st6" cx="604.1" cy="328.9" r="34.8"/>
						</g>
					</g>
				</g>
				<path class="st12" d="M836.4,599.9c-37.7-9.3-75.8,13.6-85.1,51.3c-9.3,37.7,13.6,75.8,51.3,85.1c37.7,9.3,75.8-13.6,85.1-51.3
					C897.1,647.3,874.1,609.2,836.4,599.9z M870.4,680.7c-4.5,18.2-18.5,32.7-36.5,37.9c-7.6,2.2-15.6,2.6-23.4,1.3
					c-1.2-0.2-2.5-0.5-3.7-0.8c-4.3-1.1-8.3-2.6-12-4.6c-6.6-3.5-12.3-8.4-16.8-14.2c-5.8-7.5-9.6-16.5-10.7-26.1
					c-0.7-6.1-0.4-12.4,1.2-18.7c4.5-18.2,18.5-32.7,36.5-37.9c6.7-1.9,13.7-2.5,20.6-1.7c2.2,0.2,4.4,0.6,6.5,1.2
					c7.2,1.8,13.9,5,19.6,9.5c5,3.9,9.4,8.8,12.7,14.4c0.5,0.8,1,1.6,1.4,2.5c2.6,5,4.5,10.2,5.4,15.7
					C872.5,666.2,872.2,673.5,870.4,680.7z"/>
				<path class="st21" d="M865.9,643.5c-0.4-0.8-0.9-1.7-1.4-2.5c-3.4-5.6-7.7-10.5-12.7-14.4c-5.7-4.4-12.4-7.7-19.6-9.5
					c-2.2-0.5-4.3-0.9-6.5-1.2c-6.9-0.8-13.9-0.3-20.6,1.7c-18,5.2-32,19.7-36.5,37.9c-1.6,6.3-1.9,12.6-1.2,18.7
					c1.1,9.6,4.9,18.6,10.7,26.1c4.5,5.8,10.2,10.6,16.8,14.2c3.7,2,7.7,3.5,12,4.6c1.2,0.3,2.4,0.6,3.7,0.8
					c7.8,1.4,15.8,0.9,23.4-1.3c18-5.2,32-19.7,36.5-37.9c1.8-7.2,2-14.5,0.8-21.6C870.3,653.7,868.5,648.4,865.9,643.5z"/>
				<path class="st12" d="M813.7,731.6l-17.3,68c-1,4.2-3.4,7.3-5.1,6.9l-5.9-1.5l-5.9-1.5c-1.8-0.4-2.4-4.3-1.3-8.5l17.3-68
					L813.7,731.6z"/>
				<path class="st2" d="M784.9,768.9c-4.3-1.2-8.8,1.3-9.9,5.6l-22.5,81.1c-1.6,5.6,1.9,11.5,7.7,13.2l14.1,3.9
					c5.8,1.6,11.9-1.7,13.4-7.3l22.4-81.1c1.2-4.3-1.3-8.7-5.6-9.9L784.9,768.9z"/>
				<path class="st9" d="M719.8,826.6v22.9c0,8.4-9.5,15.1-21.2,15.1H453.9c-11.7,0-21.2-6.8-21.2-15.1v-22.9
					c0-8.4,9.5-15.1,21.2-15.1h244.7C710.3,811.4,719.8,818.2,719.8,826.6z"/>
				<path class="st14" d="M698.6,811.4H668c11.7,0,21.2,6.8,21.2,15.1v22.9c0,8.4-9.5,15.1-21.2,15.1h30.7
					c11.7,0,21.2-6.8,21.2-15.1v-22.9C719.8,818.2,710.3,811.4,698.6,811.4z"/>
				<rect x="548.3" y="811.4" class="st12" width="38.5" height="53.2"/>
				<rect x="481.8" y="811.4" class="st12" width="38.5" height="53.2"/>
				<g>
					<path class="st12" d="M489.9,790.2v-19.4c0-7.1,5.7-12.8,12.8-12.8h195.5c-3.1-5.7-9.1-9.5-16-9.5H471.3
						c-10.1,0-18.2,8.2-18.2,18.3v27.6c0,10.1,8.2,18.2,18.2,18.2h210.9c6.9,0,12.9-3.9,16-9.5H502.7
						C495.6,803,489.9,797.3,489.9,790.2z"/>
					<path class="st6" d="M682.5,758H502.7c-7.1,0-12.8,5.7-12.8,12.8v19.4c0,7.1,5.7,12.8,12.8,12.8h179.8V758z"/>
					<rect x="659.2" y="758" class="st7" width="23.3" height="45.1"/>
				</g>
				<g>
					<path class="st6" d="M485.2,703h118.2c6,0,10.8,4.9,10.8,10.9v16.4c0,6-4.9,10.8-10.8,10.8H485.2V703z"/>
					<path class="st10" d="M614.3,722.9v-2.9c0-6-4.9-10.9-10.8-10.9H471.9c2.6-4.8,7.7-14.3,13.6-14.3H630
						c8.5,0,15.4,6.9,15.4,15.4v23.4c0,8.5-6.9,15.4-15.4,15.4H485.5c-5.9,0-11-10.7-13.6-15.5h131.6
						C609.5,733.8,614.3,728.9,614.3,722.9z"/>
					<path class="st8" d="M630,694.9h-15c8.5,0,15.4,6.9,15.4,15.4v23.4c0,8.5-6.9,15.4-15.4,15.4h15c8.5,0,15.4-6.9,15.4-15.4
						v-23.4C645.5,701.9,638.5,694.9,630,694.9z"/>
				</g>
				<g>
					<path class="st2" d="M605.7,596.2c-18.5-25.4-41.5-14.3-52-4.2c-10.5-10.2-28.6-21.2-47,4.2c-20.2,27.7-11.5,69.3,3.8,91.2
						c6.1,8.7,18.6,12,29.2,7.9l16.5-6.4l16.5,6.4c10.6,4.1,23.1,0.8,29.2-7.9C617.1,665.6,625.8,623.9,605.7,596.2z"/>
					<g>
						<path class="st3" d="M605.7,596.2c-14.2-19.5-31.1-17.5-42.9-10.9c3.8,2.5,7.5,6,11.1,10.9c20.2,27.7,11.5,69.3-3.8,91.2
							c-1.4,1.9-3.1,3.6-5,5l7.6,2.9c10.6,4.1,23.1,0.8,29.2-7.9C617.1,665.6,625.8,623.9,605.7,596.2z"/>
					</g>
					<path class="st3" d="M554.4,601.6c0,0-3.1-21.6-8.7-31.9c-1.6-3-0.2-6.7,2.9-8l0,0c3.5-1.5,7.5,0.8,8,4.6
						C557.7,575.2,558.7,590.3,554.4,601.6z"/>
				</g>
				<path class="st22" d="M851.7,626.6L778,700.3c-5.8-7.5-9.6-16.5-10.7-26.1l58.3-58.3c2.2,0.2,4.4,0.6,6.5,1.2
					C839.4,618.9,846,622.2,851.7,626.6z"/>
				<path class="st22" d="M871.3,659.1l-60.7,60.7c-1.2-0.2-2.5-0.5-3.7-0.8c-4.3-1.1-8.3-2.6-12-4.6l71-71
					C868.5,648.4,870.3,653.7,871.3,659.1z"/>
				<g>
					<g>
						<path class="st12" d="M1022.5,457.7C1022.6,457.7,1022.6,457.6,1022.5,457.7c0.8-0.6,1.5-1.3,2-2.3
							c10.1-19.6,27-23.9,43.9-35.4c25-17,41.5-42.9,40.3-73.7c-1.9-51.4-57.3-80.6-102.8-64.1c-23.5,8.5-38.6,29.8-44.8,53.3
							c-5.5,21.3,0.1,40.4,1.7,61.3c0.8,10.5-7.3,18.8-7.5,28.4c0,1.7,0.2,3.1,0.7,4.3l61.7,30.9
							C1019.6,459.9,1020.8,458.9,1022.5,457.7z"/>
					</g>
					<path class="st19" d="M1108.8,346.4c-1.3-34.5-26.7-59-57-66.4c16.3,12,27.6,30.4,28.5,53.2c1.2,30.8-15.3,56.6-40.3,73.7
						c-16.9,11.5-33.8,15.9-43.9,35.4c-0.5,1-1.2,1.7-1.9,2.2c0,0-0.1,0.1-0.1,0.1c-1.3,0.9-2.4,1.7-3.5,2.3l27.4,13.7
						c1.7-0.6,2.9-1.6,4.7-2.8c0,0,0.1-0.1,0.1-0.1c0.7-0.5,1.4-1.2,1.9-2.2c10.1-19.6,27-23.9,43.9-35.4
						C1093.5,403,1110,377.2,1108.8,346.4z"/>
					<path class="st3" d="M966.1,497.7L966.1,497.7c-8.4-3.9-13.1-13-11.5-22.1l4-22.4l46.3,21.5l-14.5,17.5
						C984.5,499.3,974.5,501.6,966.1,497.7z"/>
					<path class="st2" d="M1031.3,457l-76-35.3c-4.2-2-9.3-0.1-11.3,4.1v0c-2,4.2-0.1,9.3,4.1,11.3l76,35.3c4.2,2,9.3,0.1,11.3-4.1
						v0C1037.4,464,1035.5,458.9,1031.3,457z"/>
					<path class="st2" d="M1024.4,471.8l-76-35.3c-4.2-2-9.3-0.1-11.3,4.1v0c-2,4.2-0.1,9.3,4.1,11.3l76,35.3
						c4.2,2,9.3,0.1,11.3-4.1v0C1030.5,478.8,1028.7,473.7,1024.4,471.8z"/>
				</g>
			</g>
		</g>
		<path class="st23" d="M1206.2,323.9l4.9,8.9c2.4,4.4,6,8,10.4,10.4l8.9,4.9c2.6,1.4,2.6,5.1,0,6.5l-8.9,4.9
			c-4.4,2.4-8,6-10.4,10.4l-4.9,8.9c-1.4,2.6-5.1,2.6-6.5,0l-4.9-8.9c-2.4-4.4-6-8-10.4-10.4l-8.9-4.9c-2.6-1.4-2.6-5.1,0-6.5
			l8.9-4.9c4.4-2.4,8-6,10.4-10.4l4.9-8.9C1201.1,321.3,1204.8,321.3,1206.2,323.9z"/>
		<path class="st23" d="M1295.2,173.4l6.1,11.1c3,5.5,7.5,9.9,12.9,12.9l11.1,6.1c3.2,1.8,3.2,6.4,0,8.1l-11.1,6.1
			c-5.5,3-9.9,7.5-12.9,12.9l-6.1,11.1c-1.8,3.2-6.4,3.2-8.1,0l-6.1-11.1c-3-5.5-7.5-9.9-12.9-12.9l-11.1-6.1
			c-3.2-1.8-3.2-6.4,0-8.1l11.1-6.1c5.5-3,9.9-7.5,12.9-12.9l6.1-11.1C1288.8,170.2,1293.5,170.2,1295.2,173.4z"/>
		<path class="st24" d="M1266.4,714l5,9.1c2.4,4.5,6.1,8.1,10.6,10.6l9.1,5c2.6,1.4,2.6,5.2,0,6.7l-9.1,5
			c-4.5,2.4-8.1,6.1-10.6,10.6l-5,9.1c-1.4,2.6-5.2,2.6-6.7,0l-5-9.1c-2.4-4.5-6.1-8.1-10.6-10.6l-9.1-5c-2.6-1.4-2.6-5.2,0-6.7
			l9.1-5c4.5-2.4,8.1-6.1,10.6-10.6l5-9.1C1261.2,711.4,1265,711.4,1266.4,714z"/>
		<path class="st23" d="M145.2,734l3.8,7c1.9,3.4,4.7,6.2,8.1,8.1l7,3.8c2,1.1,2,4,0,5.1l-7,3.8c-3.4,1.9-6.2,4.7-8.1,8.1l-3.8,7
			c-1.1,2-4,2-5.1,0l-3.8-7c-1.9-3.4-4.7-6.2-8.1-8.1l-7-3.8c-2-1.1-2-4,0-5.1l7-3.8c3.4-1.9,6.2-4.7,8.1-8.1l3.8-7
			C141.2,732,144.1,732,145.2,734z"/>
		<path class="st24" d="M864.3,236.6l6.5,11.8c3.2,5.8,8,10.6,13.8,13.8l11.8,6.5c3.4,1.9,3.4,6.8,0,8.7l-11.8,6.5
			c-5.8,3.2-10.6,8-13.8,13.8l-6.5,11.8c-1.9,3.4-6.8,3.4-8.7,0l-6.5-11.8c-3.2-5.8-8-10.6-13.8-13.8l-11.8-6.5
			c-3.4-1.9-3.4-6.8,0-8.7l11.8-6.5c5.8-3.2,10.6-8,13.8-13.8l6.5-11.8C857.5,233.1,862.4,233.1,864.3,236.6z"/>
		<path class="st23" d="M761.3,95.3l5.7,10.5c2.8,5.2,7.1,9.4,12.2,12.2l10.5,5.7c3,1.7,3,6,0,7.7l-10.5,5.7
			c-5.2,2.8-9.4,7.1-12.2,12.2l-5.7,10.5c-1.7,3-6,3-7.7,0l-5.7-10.5c-2.8-5.2-7.1-9.4-12.2-12.2l-10.5-5.7c-3-1.7-3-6,0-7.7
			l10.5-5.7c5.2-2.8,9.4-7.1,12.2-12.2l5.7-10.5C755.3,92.2,759.6,92.2,761.3,95.3z"/>
		<path class="st24" d="M323.5,79.5l6,11c3,5.4,7.4,9.9,12.9,12.9l11,6c3.2,1.8,3.2,6.4,0,8.1l-11,6c-5.4,3-9.9,7.4-12.9,12.9l-6,11
			c-1.8,3.2-6.4,3.2-8.1,0l-6-11c-3-5.4-7.4-9.9-12.9-12.9l-11-6c-3.2-1.8-3.2-6.4,0-8.1l11-6c5.4-3,9.9-7.4,12.9-12.9l6-11
			C317.2,76.3,321.8,76.3,323.5,79.5z"/>
		<path class="st24" d="M418.2,276.7l4.1,7.4c2,3.6,5,6.6,8.6,8.6l7.4,4.1c2.2,1.2,2.2,4.3,0,5.4l-7.4,4.1c-3.6,2-6.6,5-8.6,8.6
			l-4.1,7.4c-1.2,2.2-4.3,2.2-5.4,0l-4.1-7.4c-2-3.6-5-6.6-8.6-8.6l-7.4-4.1c-2.2-1.2-2.2-4.3,0-5.4l7.4-4.1c3.6-2,6.6-5,8.6-8.6
			l4.1-7.4C413.9,274.6,417,274.6,418.2,276.7z"/>
		<path class="st24" d="M97.2,539.7l5.3,9.6c2.6,4.7,6.5,8.6,11.2,11.2l9.6,5.3c2.8,1.5,2.8,5.5,0,7.1l-9.6,5.3
			c-4.7,2.6-8.6,6.5-11.2,11.2l-5.3,9.6c-1.5,2.8-5.5,2.8-7.1,0l-5.3-9.6c-2.6-4.7-6.5-8.6-11.2-11.2l-9.6-5.3
			c-2.8-1.5-2.8-5.5,0-7.1l9.6-5.3c4.7-2.6,8.6-6.5,11.2-11.2l5.3-9.6C91.6,536.9,95.6,536.9,97.2,539.7z"/>
		<path class="st23" d="M187.5,274.6l3.9,7.2c1.9,3.6,4.9,6.5,8.4,8.4l7.2,3.9c2.1,1.1,2.1,4.2,0,5.3l-7.2,3.9
			c-3.6,1.9-6.5,4.9-8.4,8.4l-3.9,7.2c-1.1,2.1-4.2,2.1-5.3,0l-3.9-7.2c-1.9-3.6-4.9-6.5-8.4-8.4l-7.2-3.9c-2.1-1.1-2.1-4.2,0-5.3
			l7.2-3.9c3.6-1.9,6.5-4.9,8.4-8.4l3.9-7.2C183.3,272.5,186.3,272.5,187.5,274.6z"/>
		<path class="st24" d="M1090.8,119.1l2.8,5.2c1.4,2.5,3.5,4.6,6,6l5.2,2.8c1.5,0.8,1.5,3,0,3.8l-5.2,2.8c-2.5,1.4-4.6,3.5-6,6
			l-2.8,5.2c-0.8,1.5-3,1.5-3.8,0l-2.8-5.2c-1.4-2.5-3.5-4.6-6-6l-5.2-2.8c-1.5-0.8-1.5-3,0-3.8l5.2-2.8c2.5-1.4,4.6-3.5,6-6
			l2.8-5.2C1087.9,117.6,1090,117.6,1090.8,119.1z"/>
	</g>
</g>
</svg>
