<?xml version="1.0" encoding="UTF-8" standalone="no"?>
<svg
   xmlns:dc="http://purl.org/dc/elements/1.1/"
   xmlns:cc="http://creativecommons.org/ns#"
   xmlns:rdf="http://www.w3.org/1999/02/22-rdf-syntax-ns#"
   xmlns:svg="http://www.w3.org/2000/svg"
   xmlns="http://www.w3.org/2000/svg"
   viewBox="0 0 1866.6667 1306.6667"
   height="1306.6667"
   width="1866.6667"
   xml:space="preserve"
   id="svg2"
   version="1.1"><metadata
     id="metadata8"><rdf:RDF><cc:Work
         rdf:about=""><dc:format>image/svg+xml</dc:format><dc:type
           rdf:resource="http://purl.org/dc/dcmitype/StillImage" /></cc:Work></rdf:RDF></metadata><defs
     id="defs6"><clipPath
       id="clipPath30"
       clipPathUnits="userSpaceOnUse"><path
         id="path28"
         d="M 0,980 H 1400 V 0 H 0 Z" /></clipPath><clipPath
       id="clipPath408"
       clipPathUnits="userSpaceOnUse"><path
         id="path406"
         d="M 0,978.696 H 1400 V 524.478 H 0 Z" /></clipPath><clipPath
       id="clipPath412"
       clipPathUnits="userSpaceOnUse"><path
         id="path410"
         d="M 1400,524.478 0,666.737 v 311.959 h 1400 z" /></clipPath><clipPath
       id="clipPath416"
       clipPathUnits="userSpaceOnUse"><path
         id="path414"
         d="M -32768,32767 H 32767 V -32768 H -32768 Z" /></clipPath><linearGradient
       id="linearGradient422"
       spreadMethod="pad"
       gradientTransform="matrix(485.08224,840.18719,840.18719,-485.08224,488.25879,384.83984)"
       gradientUnits="userSpaceOnUse"
       y2="0"
       x2="1"
       y1="0"
       x1="0"><stop
         id="stop418"
         offset="0"
         style="stop-opacity:1;stop-color:#ffffff" /><stop
         id="stop420"
         offset="1"
         style="stop-opacity:0.09999237;stop-color:#ffffff" /></linearGradient><mask
       id="mask424"
       height="1"
       width="1"
       y="0"
       x="0"
       maskUnits="userSpaceOnUse"><g
         id="g434"><g
           id="g432"
           clip-path="url(#clipPath416)"><g
             id="g430"><g
               id="g428"><path
                 id="path426"
                 style="fill:url(#linearGradient422);stroke:none"
                 d="M -32768,32767 H 32767 V -32768 H -32768 Z" /></g></g></g></g></mask><linearGradient
       id="linearGradient440"
       spreadMethod="pad"
       gradientTransform="matrix(485.08224,840.18719,840.18719,-485.08224,488.25879,384.83984)"
       gradientUnits="userSpaceOnUse"
       y2="0"
       x2="1"
       y1="0"
       x1="0"><stop
         id="stop436"
         offset="0"
         style="stop-opacity:1;stop-color:#ffb600" /><stop
         id="stop438"
         offset="1"
         style="stop-opacity:1;stop-color:#ffffff" /></linearGradient></defs><g
     transform="matrix(1.3333333,0,0,-1.3333333,0,1306.6667)"
     id="g10"><path
       id="path12"
       style="fill:#525e66;fill-opacity:1;fill-rule:nonzero;stroke:none"
       d="M 0,0 H 1400 V 980 H 0 Z" /><path
       id="path14"
       style="fill:#434e54;fill-opacity:1;fill-rule:nonzero;stroke:none"
       d="M 1147.994,492.572 H 1400 v 252.005 h -252.006 z" /><g
       transform="translate(1235.9199,665.9092)"
       id="g16"><path
         id="path18"
         style="fill:#525e66;fill-opacity:1;fill-rule:nonzero;stroke:none"
         d="m 0,0 v 14.574 l -11.409,21.835 h 11.3 l 5.24,-12.446 5.241,12.446 H 21.616 L 10.316,14.574 V 0 Z" /></g><g
       transform="translate(1259.5586,665.9092)"
       id="g20"><path
         id="path22"
         style="fill:#525e66;fill-opacity:1;fill-rule:nonzero;stroke:none"
         d="M 0,0 V 36.409 H 23.035 V 27.402 H 10.316 V 22.927 H 22.653 V 13.919 H 10.316 V 9.007 h 12.719 l 0,-9.007 z" /></g><g
       id="g24"><g
         clip-path="url(#clipPath30)"
         id="g26"><g
           transform="translate(1284.5615,670.1123)"
           id="g32"><path
             id="path34"
             style="fill:#525e66;fill-opacity:1;fill-rule:nonzero;stroke:none"
             d="m 0,0 4.75,8.078 c 2.237,-2.292 5.568,-3.821 9.171,-3.821 2.019,0 3.385,0.764 3.385,2.075 0,4.039 -16.159,1.746 -16.159,14.738 0,5.895 4.585,11.737 13.592,11.737 4.859,0 9.225,-1.53 12.446,-4.258 l -4.639,-7.861 c -2.402,2.02 -5.351,3.002 -8.134,3.002 -1.965,0 -2.784,-0.819 -2.784,-1.911 0,-3.82 16.158,-2.182 16.158,-14.519 C 27.786,-0.056 22.6,-4.858 14.029,-4.858 7.698,-4.858 3.331,-3.057 0,0" /></g><g
           transform="translate(1235.9199,600.3965)"
           id="g36"><path
             id="path38"
             style="fill:#525e66;fill-opacity:1;fill-rule:nonzero;stroke:none"
             d="m 0,0 v 14.575 l -11.409,21.834 h 11.3 l 5.24,-12.445 5.241,12.445 H 21.616 L 10.316,14.575 V 0 Z" /></g><g
           transform="translate(1279.0459,618.5742)"
           id="g40"><path
             id="path42"
             style="fill:#525e66;fill-opacity:1;fill-rule:nonzero;stroke:none"
             d="m 0,0 c 0,5.731 -2.237,9.717 -6.223,9.717 -4.039,0 -6.222,-3.986 -6.222,-9.717 0,-5.677 2.183,-9.717 6.222,-9.717 C -2.237,-9.717 0,-5.677 0,0 m -22.98,0 c 0,11.136 6.496,18.833 16.757,18.833 10.263,0 16.704,-7.697 16.704,-18.833 0,-11.136 -6.441,-18.832 -16.704,-18.832 -10.261,0 -16.757,7.696 -16.757,18.832" /></g><g
           transform="translate(1293.1328,613.8252)"
           id="g44"><path
             id="path46"
             style="fill:#525e66;fill-opacity:1;fill-rule:nonzero;stroke:none"
             d="M 0,0 V 22.98 H 10.372 V -0.108 c 0,-3.003 1.691,-4.914 4.803,-4.914 3.111,0 4.804,1.911 4.804,4.914 V 22.98 H 30.351 V 0.055 c 0,-9.007 -6.114,-14.138 -15.176,-14.138 C 6.114,-14.083 0,-8.952 0,0" /></g><g
           transform="translate(1226.1484,553.0625)"
           id="g48"><path
             id="path50"
             style="fill:#525e66;fill-opacity:1;fill-rule:nonzero;stroke:none"
             d="m 0,0 c 0,11.19 6.496,18.832 16.867,18.832 8.353,0 11.901,-5.677 13.701,-10.371 L 22.053,4.858 c -0.763,2.838 -2.62,4.859 -5.186,4.859 -4.039,0 -6.331,-3.986 -6.331,-9.717 0,-5.731 2.292,-9.717 6.331,-9.717 2.62,0 4.531,2.293 5.186,5.131 l 8.515,-3.493 C 28.931,-12.719 25.328,-18.832 16.867,-18.832 6.496,-18.832 0,-11.136 0,0" /></g><g
           transform="translate(1273.5879,560.6504)"
           id="g52"><path
             id="path54"
             style="fill:#525e66;fill-opacity:1;fill-rule:nonzero;stroke:none"
             d="m 0,0 -2.838,-12.064 h 5.677 z m 5.896,-25.766 -1.092,4.695 h -9.607 l -1.092,-4.695 H -17.03 l 10.807,36.41 H 6.223 l 10.808,-36.41 z" /></g><g
           transform="translate(1312.8398,534.8848)"
           id="g56"><path
             id="path58"
             style="fill:#525e66;fill-opacity:1;fill-rule:nonzero;stroke:none"
             d="M 0,0 -9.881,16.649 V 0 h -10.316 v 36.409 h 10.481 l 9.17,-15.611 V 36.409 H 9.771 L 9.771,0 Z" /></g><path
           id="path60"
           style="fill:#434e54;fill-opacity:1;fill-rule:nonzero;stroke:none"
           d="M 1078.657,597.293 H 881.159 v 252.005 h 197.498 z" /><path
           id="path62"
           style="fill:#727e84;fill-opacity:1;fill-rule:nonzero;stroke:none"
           d="M 566.002,425.551 H 0 V 880.47 h 566.002 z" /><path
           id="path64"
           style="fill:#626c70;fill-opacity:1;fill-rule:nonzero;stroke:none"
           d="M 214.114,425.551 H 71.621 v 227.46 h 142.493 z" /><path
           id="path66"
           style="fill:#626c70;fill-opacity:1;fill-rule:nonzero;stroke:none"
           d="M 142.868,425.551 H 0.375 v 98.927 h 142.493 z" /><path
           id="path68"
           style="fill:#626c70;fill-opacity:1;fill-rule:nonzero;stroke:none"
           d="M 416.252,425.551 H 273.759 v 171.742 h 142.493 z" /><path
           id="path70"
           style="fill:#626c70;fill-opacity:1;fill-rule:nonzero;stroke:none"
           d="M 566.002,425.551 H 406.138 v 253.608 h 159.864 z" /><path
           id="path72"
           style="fill:#626c70;fill-opacity:1;fill-rule:nonzero;stroke:none"
           d="M 322.975,425.551 H 180.482 v 130.677 h 142.493 z" /><g
           transform="translate(153.5161,425.5508)"
           id="g74"><path
             id="path76"
             style="fill:#858f93;fill-opacity:1;fill-rule:nonzero;stroke:none"
             d="M 0,0 H -92.997 L 69.05,451.86 h 92.996 z" /></g><g
           transform="translate(256.0396,425.5508)"
           id="g78"><path
             id="path80"
             style="fill:#858f93;fill-opacity:1;fill-rule:nonzero;stroke:none"
             d="m 0,0 h -55.644 l 162.047,451.86 h 55.643 z" /></g><path
           id="path82"
           style="fill:#434e54;fill-opacity:1;fill-rule:nonzero;stroke:none"
           d="M 1400,0 H 0 v 108.668 h 1400 z" /><g
           transform="translate(917.709,142.335)"
           id="g84"><path
             id="path86"
             style="fill:#ffa776;fill-opacity:1;fill-rule:nonzero;stroke:none"
             d="m 0,0 -25.869,-50 c 0,0 43.676,-16.657 59.999,-22.667 10.69,-3.936 13.333,-16.667 2,-16.667 h -141.333 c -24,0 44,111.334 44,111.334 z" /></g><g
           transform="translate(917.6816,142.335)"
           id="g88"><path
             id="path90"
             style="fill:#f49473;fill-opacity:1;fill-rule:nonzero;stroke:none"
             d="m 0,0 -17.419,-33.667 h -74.784 c 14,27.834 31,55.667 31,55.667 z" /></g><g
           transform="translate(482.292,142.335)"
           id="g92"><path
             id="path94"
             style="fill:#ffa776;fill-opacity:1;fill-rule:nonzero;stroke:none"
             d="m 0,0 25.869,-50 c 0,0 -43.676,-16.657 -60,-22.667 -10.69,-3.936 -13.333,-16.667 -2,-16.667 h 141.334 c 24,0 -44,111.334 -44,111.334 z" /></g><g
           transform="translate(482.292,142.335)"
           id="g96"><path
             id="path98"
             style="fill:#f49473;fill-opacity:1;fill-rule:nonzero;stroke:none"
             d="m 0,0 17.419,-33.667 h 74.784 c -14,27.834 -31,55.667 -31,55.667 z" /></g><g
           transform="translate(925.6338,296.9512)"
           id="g100"><path
             id="path102"
             style="fill:#d32424;fill-opacity:1;fill-rule:nonzero;stroke:none"
             d="m 0,0 c -12.822,-29.188 -34.54,-47.878 -48.506,-41.742 -13.967,6.136 -14.894,34.771 -2.071,63.961 12.822,29.19 34.54,47.88 48.506,41.744 C 11.896,57.827 12.823,29.191 0,0" /></g><g
           transform="translate(962.9834,328.04)"
           id="g104"><path
             id="path106"
             style="fill:#302e2d;fill-opacity:1;fill-rule:nonzero;stroke:none"
             d="M 0,0 C 21.753,-8.268 32.683,-32.604 24.411,-54.353 16.145,-76.104 -8.191,-87.032 -29.94,-78.765 l -201.063,69.562 c -21.754,8.267 -32.681,32.603 -24.413,54.352 8.268,21.751 32.603,32.681 54.354,24.413 z" /></g><g
           transform="translate(969.0361,320.9814)"
           id="g108"><path
             id="path110"
             style="fill:#302e2d;fill-opacity:1;fill-rule:nonzero;stroke:none"
             d="m 0,0 c -20.819,10.391 -46.121,1.935 -56.511,-18.885 l -71.152,-142.186 c 0.576,-0.274 1.153,-0.545 1.733,-0.816 14.099,-6.582 59.642,-29.209 73.897,-36.343 l 70.92,141.718 C 29.277,-35.69 20.821,-10.389 0,0" /></g><g
           transform="translate(924.9395,360.209)"
           id="g112"><path
             id="path114"
             style="fill:#f74343;fill-opacity:1;fill-rule:nonzero;stroke:none"
             d="m 0,0 -157.738,54.816 c -28.834,10.961 -61.093,-3.527 -72.053,-32.361 -10.959,-28.831 3.525,-61.09 32.362,-72.049 L -47.812,-105 C -62.814,-65.662 -43.678,-7.975 0,0" /></g><g
           transform="translate(474.3652,296.9512)"
           id="g116"><path
             id="path118"
             style="fill:#d32424;fill-opacity:1;fill-rule:nonzero;stroke:none"
             d="m 0,0 c 12.823,-29.188 34.54,-47.878 48.506,-41.742 13.967,6.136 14.895,34.771 2.072,63.961 C 37.755,51.409 16.036,70.099 2.071,63.963 -11.896,57.827 -12.823,29.191 0,0" /></g><g
           transform="translate(437.0151,328.04)"
           id="g120"><path
             id="path122"
             style="fill:#302e2d;fill-opacity:1;fill-rule:nonzero;stroke:none"
             d="M 0,0 C -21.752,-8.268 -32.682,-32.604 -24.411,-54.353 -16.144,-76.104 8.191,-87.032 29.94,-78.765 L 231.003,-9.203 C 252.757,-0.936 263.685,23.4 255.417,45.149 247.148,66.9 222.813,77.83 201.062,69.562 Z" /></g><g
           transform="translate(430.9634,320.9814)"
           id="g124"><path
             id="path126"
             style="fill:#302e2d;fill-opacity:1;fill-rule:nonzero;stroke:none"
             d="m 0,0 c 20.819,10.391 46.122,1.935 56.51,-18.885 l 71.153,-142.186 c -0.577,-0.274 -1.154,-0.545 -1.734,-0.816 -14.098,-6.582 -59.641,-29.209 -73.896,-36.343 l -70.92,141.718 C -29.278,-35.69 -20.821,-10.389 0,0" /></g><g
           transform="translate(475.0601,360.209)"
           id="g128"><path
             id="path130"
             style="fill:#f74343;fill-opacity:1;fill-rule:nonzero;stroke:none"
             d="m 0,0 157.738,54.816 c 28.834,10.961 61.092,-3.527 72.053,-32.361 10.959,-28.831 -3.527,-61.09 -32.362,-72.049 L 47.811,-105 C 62.814,-65.662 43.678,-7.975 0,0" /></g><g
           transform="translate(873.5381,256.5381)"
           id="g132"><path
             id="path134"
             style="fill:#f74343;fill-opacity:1;fill-rule:nonzero;stroke:none"
             d="M 0,0 3.59,-1.329 C 0.837,5.89 -0.763,13.728 -1.275,21.761 -1.735,14.404 -1.324,7.048 0,0" /></g><g
           transform="translate(767.2012,403.5029)"
           id="g136"><path
             id="path138"
             style="fill:#ffbf1f;fill-opacity:1;fill-rule:nonzero;stroke:none"
             d="m 0,0 141.347,-49.12 c 4.997,2.741 10.466,4.744 16.391,5.826 L 0,11.522 c -28.834,10.961 -61.093,-3.527 -72.053,-32.361 -3.206,-8.435 -4.219,-17.161 -3.348,-25.563 0.494,4.7 1.589,9.415 3.348,14.041 C -61.093,-3.527 -28.834,10.961 0,0" /></g><g
           transform="translate(704.8506,371.1416)"
           id="g140"><path
             id="path142"
             style="fill:#ffbf1f;fill-opacity:1;fill-rule:nonzero;stroke:none"
             d="M 0,0 C 1.759,-4.626 2.854,-9.341 3.349,-14.041 4.22,-5.639 3.206,3.088 0,11.522 -10.96,40.356 -43.219,54.845 -72.053,43.884 l -157.738,-54.817 c 5.925,-1.082 11.395,-3.085 16.392,-5.826 l 141.346,49.12 C -43.219,43.322 -10.96,28.834 0,0" /></g><g
           transform="translate(527.7363,278.2998)"
           id="g144"><path
             id="path146"
             style="fill:#f74343;fill-opacity:1;fill-rule:nonzero;stroke:none"
             d="m 0,0 c -0.513,-8.034 -2.112,-15.872 -4.865,-23.091 l 3.59,1.329 C 0.049,-14.714 0.46,-7.356 0,0" /></g><g
           transform="translate(392.2441,516.1592)"
           id="g148"><path
             id="path150"
             style="fill:#f49473;fill-opacity:1;fill-rule:nonzero;stroke:none"
             d="m 0,0 c -18.811,-4.551 -37.75,7.007 -42.3,25.816 -4.551,18.811 7.007,37.749 25.817,42.301 l 170.65,46.789 c 18.809,4.551 37.746,-7.008 42.298,-25.817 4.551,-18.809 -7.008,-37.748 -25.818,-42.299 z" /></g><g
           transform="translate(556.7739,640.0283)"
           id="g152"><path
             id="path154"
             style="fill:#289358;fill-opacity:1;fill-rule:nonzero;stroke:none"
             d="m 0,0 -106.337,-29.939 24.104,-85.611 106.337,29.938 c 23.641,6.656 37.41,31.216 30.753,54.858 C 48.201,-7.113 23.641,6.657 0,0" /></g><g
           transform="translate(570.4873,641.665)"
           id="g156"><path
             id="path158"
             style="fill:#ffbf1f;fill-opacity:1;fill-rule:nonzero;stroke:none"
             d="m 0,0 c -4.515,0.168 -9.131,-0.346 -13.713,-1.637 l -106.338,-29.939 4.077,-14.481 88.613,24.95 C -19.314,-13.043 -10.129,-6.034 0,0" /></g><g
           transform="translate(412.397,726.3623)"
           id="g160"><path
             id="path162"
             style="fill:#f49473;fill-opacity:1;fill-rule:nonzero;stroke:none"
             d="m 0,0 c 2.738,-3.167 5.52,-6.285 8.327,-9.389 0.005,-0.005 7.412,6.325 7.416,6.321 l 2.038,1.747 c 4.653,4.002 5.18,11.016 1.18,15.67 -4.001,4.652 -11.016,5.18 -15.669,1.179 L -6.259,7.355 C -4.178,4.898 -2.105,2.433 0,0" /></g><g
           transform="translate(380.7158,706.4702)"
           id="g164"><path
             id="path166"
             style="fill:#ffa776;fill-opacity:1;fill-rule:nonzero;stroke:none"
             d="m 0,0 c 13.259,-0.478 26.352,1.885 39.615,1.7 0.018,0 1.474,28.231 1.489,28.23 l 0.34,8.504 c 0.753,19.438 -4.489,36.587 -23.942,36.587 -32.636,0 -45.698,-14.419 -46.452,-33.858 L -30.587,1.346 C -20.392,0.874 -10.198,0.368 0,0" /></g><g
           transform="translate(378.6885,514.3745)"
           id="g168"><path
             id="path170"
             style="fill:#ffa776;fill-opacity:1;fill-rule:nonzero;stroke:none"
             d="m 0,0 c 19.339,-0.751 35.623,14.317 36.373,33.657 l 5.27,160.138 c -0.532,0.008 -1.063,0.018 -1.593,0.024 -12.941,0.163 -55.205,1.728 -68.455,2.257 L -33.656,36.372 C -34.406,17.033 -19.337,0.75 0,0" /></g><g
           transform="translate(1007.7559,516.1592)"
           id="g172"><path
             id="path174"
             style="fill:#f49473;fill-opacity:1;fill-rule:nonzero;stroke:none"
             d="m 0,0 c 18.811,-4.551 37.75,7.007 42.3,25.816 4.551,18.811 -7.008,37.749 -25.818,42.301 l -170.648,46.789 c -18.811,4.551 -37.746,-7.008 -42.299,-25.817 -4.551,-18.809 7.007,-37.748 25.818,-42.299 z" /></g><g
           transform="translate(837.7266,642.4707)"
           id="g176"><path
             id="path178"
             style="fill:#289358;fill-opacity:1;fill-rule:nonzero;stroke:none"
             d="M 0,0 106.337,-29.939 82.232,-115.55 -24.104,-85.612 c -23.642,6.656 -37.411,31.216 -30.754,54.858 C -48.203,-7.113 -23.641,6.657 0,0" /></g><g
           transform="translate(939.9863,598.0249)"
           id="g180"><path
             id="path182"
             style="fill:#ffbf1f;fill-opacity:1;fill-rule:nonzero;stroke:none"
             d="M 0,0 4.077,14.48 -102.26,44.42 c -4.583,1.29 -9.2,1.805 -13.716,1.637 10.13,-6.035 19.314,-13.044 27.362,-21.107 z" /></g><g
           transform="translate(987.6035,726.3623)"
           id="g184"><path
             id="path186"
             style="fill:#f49473;fill-opacity:1;fill-rule:nonzero;stroke:none"
             d="m 0,0 c -2.738,-3.167 -5.521,-6.285 -8.327,-9.389 -0.005,-0.005 -7.414,6.325 -7.416,6.321 l -2.038,1.747 c -4.653,4.002 -5.181,11.016 -1.181,15.67 4.001,4.652 11.016,5.18 15.67,1.179 L 6.258,7.355 C 4.177,4.898 2.104,2.433 0,0" /></g><g
           transform="translate(1019.2842,706.4702)"
           id="g188"><path
             id="path190"
             style="fill:#ffa776;fill-opacity:1;fill-rule:nonzero;stroke:none"
             d="m 0,0 c -13.259,-0.478 -26.352,1.885 -39.616,1.7 -0.018,0 -1.473,28.231 -1.488,28.23 l -0.34,8.504 c -0.753,19.438 4.489,36.587 23.942,36.587 32.636,0 45.697,-14.419 46.451,-33.858 L 30.586,1.346 C 20.392,0.874 10.197,0.368 0,0" /></g><g
           transform="translate(1143.7988,732.2446)"
           id="g192"><path
             id="path194"
             style="fill:#939597;fill-opacity:1;fill-rule:nonzero;stroke:none"
             d="m 0,0 c -1.031,-5.875 -6.661,-9.798 -12.579,-8.792 -285.428,48.571 -577.012,48.571 -862.44,0 -5.918,-1.006 -11.549,2.916 -12.579,8.792 -1.03,5.875 2.977,11.487 8.956,12.503 287.827,48.98 581.86,48.98 869.686,0 C -2.978,11.487 1.03,5.875 0,0" /></g><g
           transform="translate(265.1567,735.8735)"
           id="g196"><path
             id="path198"
             style="fill:#ffbf1f;fill-opacity:1;fill-rule:nonzero;stroke:none"
             d="m 0,0 c 287.827,48.979 581.86,48.979 869.686,0 3.73,-0.634 6.692,-3.057 8.143,-6.217 0.369,0.81 0.653,1.672 0.813,2.588 1.03,5.875 -2.977,11.487 -8.956,12.504 C 581.86,57.854 287.827,57.854 0,8.875 -5.979,7.858 -9.986,2.246 -8.956,-3.629 -8.795,-4.545 -8.511,-5.407 -8.143,-6.217 -6.692,-3.057 -3.73,-0.634 0,0" /></g><g
           transform="translate(435.0459,752.376)"
           id="g200"><path
             id="path202"
             style="fill:#ffbb99;fill-opacity:1;fill-rule:nonzero;stroke:none"
             d="m 0,0 c 0,-29.115 -16.488,-29.115 -36.828,-29.115 -20.34,0 -36.829,0 -36.829,29.115 0,16.08 16.489,29.115 36.829,29.115 C -16.488,29.115 0,16.08 0,0" /></g><g
           transform="translate(398.2178,773.6924)"
           id="g204"><path
             id="path206"
             style="fill:#ffbf1f;fill-opacity:1;fill-rule:nonzero;stroke:none"
             d="m 0,0 c 19.117,0 34.829,-11.516 36.649,-26.251 0.117,1.545 0.179,3.185 0.179,4.935 0,16.08 -16.488,29.115 -36.828,29.115 -20.34,0 -36.828,-13.035 -36.828,-29.115 0,-1.75 0.062,-3.39 0.18,-4.935 C -34.829,-11.516 -19.117,0 0,0" /></g><g
           transform="translate(1021.3115,514.3745)"
           id="g208"><path
             id="path210"
             style="fill:#ffa776;fill-opacity:1;fill-rule:nonzero;stroke:none"
             d="m 0,0 c -19.34,-0.751 -35.622,14.317 -36.373,33.657 l -5.271,160.138 c 0.532,0.008 1.064,0.018 1.593,0.024 12.941,0.163 55.206,1.728 68.455,2.257 L 33.655,36.372 C 34.406,17.033 19.336,0.75 0,0" /></g><g
           transform="translate(964.9541,752.376)"
           id="g212"><path
             id="path214"
             style="fill:#ffbb99;fill-opacity:1;fill-rule:nonzero;stroke:none"
             d="m 0,0 c 0,-29.115 16.488,-29.115 36.828,-29.115 20.34,0 36.828,0 36.828,29.115 0,16.08 -16.488,29.115 -36.828,29.115 C 16.488,29.115 0,16.08 0,0" /></g><g
           transform="translate(1001.7822,773.6924)"
           id="g216"><path
             id="path218"
             style="fill:#ffbf1f;fill-opacity:1;fill-rule:nonzero;stroke:none"
             d="m 0,0 c 19.117,0 34.829,-11.516 36.649,-26.251 0.117,1.545 0.179,3.185 0.179,4.935 0,16.08 -16.488,29.115 -36.828,29.115 -20.34,0 -36.828,-13.035 -36.828,-29.115 0,-1.75 0.062,-3.39 0.18,-4.935 C -34.829,-11.516 -19.117,0 0,0" /></g><g
           transform="translate(894.333,537.1685)"
           id="g220"><path
             id="path222"
             style="fill:#2eaa69;fill-opacity:1;fill-rule:nonzero;stroke:none"
             d="m 0,0 c 0,-107.327 0,-238.93 -194.334,-238.93 -194.333,0 -194.333,131.603 -194.333,238.93 0,107.328 87.006,149.737 194.333,149.737 C -87.007,149.737 0,107.328 0,0" /></g><g
           transform="translate(543.0801,636.1729)"
           id="g224"><path
             id="path226"
             style="fill:#ffbf1f;fill-opacity:1;fill-rule:nonzero;stroke:none"
             d="M 0,0 C 32.571,15.815 112.914,35.104 156.919,35.104 200.925,35.104 281.268,15.815 313.84,0 l -13.994,12.139 c -35.512,26.82 -86.397,38.593 -142.927,38.593 -56.53,0 -107.415,-11.773 -142.926,-38.593 z" /></g><g
           transform="translate(806.417,432.208)"
           id="g228"><path
             id="path230"
             style="fill:#289358;fill-opacity:1;fill-rule:nonzero;stroke:none"
             d="m 0,0 c -2.163,-4.013 -7.35,-5.42 -11.661,-3.356 -59.891,28.721 -129.623,28.721 -189.513,0 -4.312,-2.063 -9.498,-0.657 -11.66,3.356 -2.162,4.008 -0.172,9.271 4.526,11.521 64.399,30.884 139.381,30.884 203.78,0 C 0.172,9.271 2.161,4.008 0,0" /></g><g
           transform="translate(779.4033,642.4927)"
           id="g232"><path
             id="path234"
             style="fill:#289358;fill-opacity:1;fill-rule:nonzero;stroke:none"
             d="m 0,0 c 0,-43.854 -35.552,-79.404 -79.404,-79.404 -43.854,0 -79.405,35.55 -79.405,79.404 0,43.854 35.551,79.405 79.405,79.405 C -35.552,79.405 0,43.854 0,0" /></g><g
           transform="translate(638.9282,660.8262)"
           id="g236"><path
             id="path238"
             style="fill:#f49473;fill-opacity:1;fill-rule:nonzero;stroke:none"
             d="m 0,0 c 0,-10.125 -8.209,-18.333 -18.333,-18.333 -10.125,0 -18.333,8.208 -18.333,18.333 0,10.125 8.208,18.333 18.333,18.333 C -8.209,18.333 0,10.125 0,0" /></g><g
           transform="translate(797.7373,660.8262)"
           id="g240"><path
             id="path242"
             style="fill:#f49473;fill-opacity:1;fill-rule:nonzero;stroke:none"
             d="m 0,0 c 0,-10.125 -8.209,-18.333 -18.334,-18.333 -10.126,0 -18.334,8.208 -18.334,18.333 0,10.125 8.208,18.333 18.334,18.333 C -8.209,18.333 0,10.125 0,0" /></g><g
           transform="translate(779.4033,664.1094)"
           id="g244"><path
             id="path246"
             style="fill:#ffa776;fill-opacity:1;fill-rule:nonzero;stroke:none"
             d="m 0,0 c 0,-43.854 -35.552,-79.405 -79.404,-79.405 -43.854,0 -79.405,35.551 -79.405,79.405 0,43.854 35.551,79.405 79.405,79.405 C -35.552,79.405 0,43.854 0,0" /></g><g
           transform="translate(735.9287,714.0386)"
           id="g248"><path
             id="path250"
             style="fill:#302e2d;fill-opacity:1;fill-rule:nonzero;stroke:none"
             d="m 0,0 c 0,-8.31 -16.086,-15.046 -35.93,-15.046 -19.843,0 -35.93,6.736 -35.93,15.046 0,8.31 16.087,15.045 35.93,15.045 C -16.086,15.045 0,8.31 0,0" /></g><g
           transform="translate(621.8164,673.8916)"
           id="g252"><path
             id="path254"
             style="fill:#302e2d;fill-opacity:1;fill-rule:nonzero;stroke:none"
             d="M 0,0 C 6.565,32.965 39.064,41.488 78.183,41.488 117.3,41.488 149.8,32.965 156.366,0 h 0.621 C 152.166,39.238 118.724,69.623 78.183,69.623 37.641,69.623 4.199,39.238 -0.622,0 Z" /></g><g
           transform="translate(699.999,733.8042)"
           id="g256"><path
             id="path258"
             style="fill:#ffbf1f;fill-opacity:1;fill-rule:nonzero;stroke:none"
             d="M 0,0 C 49.107,0 70.668,-33.492 70.668,-33.492 57.504,-7.846 30.81,9.71 0,9.71 -30.81,9.71 -57.504,-7.846 -70.667,-33.492 -70.667,-33.492 -46.963,0 0,0" /></g><g
           transform="translate(699.999,610.439)"
           id="g260"><path
             id="path262"
             style="fill:#f49473;fill-opacity:1;fill-rule:nonzero;stroke:none"
             d="m 0,0 c -39.472,0 -72.211,28.804 -78.36,66.538 -0.684,-4.189 -1.044,-8.486 -1.044,-12.868 0,-43.853 35.55,-79.404 79.404,-79.404 43.853,0 79.404,35.551 79.404,79.404 0,4.382 -0.36,8.679 -1.043,12.868 C 72.211,28.804 39.472,0 0,0" /></g><g
           transform="translate(699.999,636.1729)"
           id="g264"><path
             id="path266"
             style="fill:#f49473;fill-opacity:1;fill-rule:nonzero;stroke:none"
             d="M 0,0 C -23.159,0 -44,-9.917 -58.516,-25.734 -44,-41.551 -23.159,-51.468 0,-51.468 c 23.159,0 44,9.917 58.515,25.734 C 44,-9.917 23.159,0 0,0" /></g><g
           transform="translate(707.835,638.3247)"
           id="g268"><path
             id="path270"
             style="fill:#ff6f64;fill-opacity:1;fill-rule:nonzero;stroke:none"
             d="m 0,0 c 0,-3.242 -4.595,-5.871 -7.836,-5.871 -3.242,0 -7.835,2.629 -7.835,5.871 l 1.964,23.615 c 0,3.242 2.629,5.87 5.871,5.87 3.241,0 5.871,-2.628 5.871,-5.87 z" /></g><g
           transform="translate(681.4253,659.7842)"
           id="g272"><path
             id="path274"
             style="fill:#302e2d;fill-opacity:1;fill-rule:nonzero;stroke:none"
             d="m 0,0 c -0.589,-1.836 -2.556,-2.847 -4.393,-2.256 l -21.571,6.931 c -1.837,0.59 -2.847,2.557 -2.257,4.393 0.59,1.836 2.556,2.846 4.392,2.256 L -2.256,4.393 C -0.42,3.803 0.59,1.836 0,0" /></g><g
           transform="translate(681.5288,661.4912)"
           id="g276"><path
             id="path278"
             style="fill:#302e2d;fill-opacity:1;fill-rule:nonzero;stroke:none"
             d="m 0,0 c 0.368,-1.893 -0.869,-3.726 -2.762,-4.094 l -22.242,-4.322 c -1.894,-0.368 -3.726,0.869 -4.094,2.762 -0.368,1.893 0.869,3.726 2.762,4.094 L -4.094,2.762 C -2.201,3.13 -0.368,1.894 0,0" /></g><g
           transform="translate(720.7168,659.7842)"
           id="g280"><path
             id="path282"
             style="fill:#302e2d;fill-opacity:1;fill-rule:nonzero;stroke:none"
             d="m 0,0 c 0.59,-1.836 2.556,-2.847 4.393,-2.256 l 21.572,6.931 c 1.836,0.59 2.846,2.557 2.257,4.393 -0.59,1.836 -2.557,2.846 -4.394,2.256 L 2.256,4.393 C 0.42,3.803 -0.59,1.836 0,0" /></g><g
           transform="translate(720.6133,661.4912)"
           id="g284"><path
             id="path286"
             style="fill:#302e2d;fill-opacity:1;fill-rule:nonzero;stroke:none"
             d="m 0,0 c -0.367,-1.893 0.868,-3.726 2.762,-4.094 l 22.242,-4.322 c 1.893,-0.368 3.726,0.869 4.095,2.762 0.367,1.893 -0.869,3.726 -2.763,4.094 L 4.095,2.762 C 2.201,3.13 0.368,1.894 0,0" /></g><g
           transform="translate(730.2393,613.5776)"
           id="g288"><path
             id="path290"
             style="fill:#f74343;fill-opacity:1;fill-rule:nonzero;stroke:none"
             d="m 0,0 c 0,-7.193 -13.538,-7.635 -30.24,-7.635 -16.701,0 -30.241,0.442 -30.241,7.635 0,7.193 13.54,13.025 30.241,13.025 C -13.538,13.025 0,7.193 0,0" /></g><g
           transform="translate(713.8936,616.2725)"
           id="g292"><path
             id="path294"
             style="fill:#d32424;fill-opacity:1;fill-rule:nonzero;stroke:none"
             d="m 0,0 c 0,-4.798 -6.221,-8.688 -13.895,-8.688 -7.674,0 -13.895,3.89 -13.895,8.688 0,4.798 6.221,8.688 13.895,8.688 C -6.221,8.688 0,4.798 0,0" /></g><g
           transform="translate(673.7109,620.0127)"
           id="g296"><path
             id="path298"
             style="fill:#ffffff;fill-opacity:1;fill-rule:nonzero;stroke:none"
             d="M 0,0 C 5.204,-2.338 15.023,-1.944 26.288,-1.944 37.554,-1.944 47.372,-2.338 52.576,0 47.372,3.935 37.554,6.59 26.288,6.59 15.023,6.59 5.204,3.935 0,0" /></g><g
           transform="translate(672.7954,608.9409)"
           id="g300"><path
             id="path302"
             style="fill:#ffffff;fill-opacity:1;fill-rule:nonzero;stroke:none"
             d="M 0,0 C 4.906,-2.771 15.243,-2.999 27.204,-2.999 39.165,-2.999 49.501,-2.771 54.408,0 49.501,4.34 39.165,5.086 27.204,5.086 15.243,5.086 4.906,4.34 0,0" /></g><g
           transform="translate(1256.5762,711.6846)"
           id="g304"><path
             id="path306"
             style="fill:#b5b5b5;fill-opacity:1;fill-rule:nonzero;stroke:none"
             d="M 0,0 C -6.48,-15.223 -23.944,-22.365 -39.007,-15.953 -54.07,-9.541 -61.028,7.998 -54.548,23.221 -48.067,38.444 -30.603,45.587 -15.54,39.174 -0.477,32.762 6.481,15.223 0,0" /></g><g
           transform="translate(1224.9131,635.064)"
           id="g308"><path
             id="path310"
             style="fill:#302e2d;fill-opacity:1;fill-rule:nonzero;stroke:none"
             d="m 0,0 c -1.835,-14.769 -15.296,-25.254 -30.064,-23.419 l -76.208,9.469 c -14.77,1.835 -25.255,15.295 -23.42,30.064 l 21.363,171.927 c 1.835,14.769 15.296,25.254 30.063,23.418 l 76.208,-9.468 c 14.77,-1.835 25.255,-15.296 23.42,-30.065 z" /></g><g
           transform="translate(1222.8555,837.0547)"
           id="g312"><path
             id="path314"
             style="fill:#232222;fill-opacity:1;fill-rule:nonzero;stroke:none"
             d="m 0,0 -39.073,4.855 c 11.057,-4.457 18.191,-15.922 16.651,-28.313 l -21.362,-171.925 c -1.835,-14.769 -15.296,-25.255 -30.065,-23.42 l -37.134,4.615 c 2.124,-0.856 4.389,-1.458 6.768,-1.753 l 76.208,-9.469 c 14.769,-1.835 28.23,8.65 30.065,23.419 L 23.42,-30.065 C 25.255,-15.296 14.77,-1.835 0,0" /></g><g
           transform="translate(1130.9355,619.5859)"
           id="g316"><path
             id="path318"
             style="fill:#ff6f64;fill-opacity:1;fill-rule:nonzero;stroke:none"
             d="m 0,0 8.631,-1.072 30.516,225.098 -8.63,1.072 z" /></g><g
           transform="translate(143.4238,711.6846)"
           id="g320"><path
             id="path322"
             style="fill:#b5b5b5;fill-opacity:1;fill-rule:nonzero;stroke:none"
             d="M 0,0 C 6.48,-15.223 23.945,-22.365 39.007,-15.953 54.07,-9.541 61.028,7.998 54.548,23.221 48.067,38.444 30.603,45.587 15.541,39.174 0.477,32.762 -6.481,15.223 0,0" /></g><g
           transform="translate(175.0869,635.064)"
           id="g324"><path
             id="path326"
             style="fill:#302e2d;fill-opacity:1;fill-rule:nonzero;stroke:none"
             d="m 0,0 c 1.835,-14.769 15.296,-25.254 30.064,-23.419 l 76.208,9.469 c 14.77,1.835 25.255,15.295 23.42,30.064 L 108.33,188.041 c -1.836,14.769 -15.296,25.254 -30.065,23.418 L 2.057,201.991 c -14.769,-1.835 -25.254,-15.296 -23.419,-30.065 z" /></g><g
           transform="translate(177.144,837.0547)"
           id="g328"><path
             id="path330"
             style="fill:#232222;fill-opacity:1;fill-rule:nonzero;stroke:none"
             d="M 0,0 39.073,4.855 C 28.016,0.398 20.883,-11.067 22.422,-23.458 l 21.363,-171.925 c 1.835,-14.769 15.296,-25.255 30.064,-23.42 l 37.135,4.615 c -2.124,-0.856 -4.39,-1.458 -6.769,-1.753 l -76.208,-9.469 c -14.768,-1.835 -28.229,8.65 -30.064,23.419 L -23.419,-30.065 C -25.254,-15.296 -14.77,-1.835 0,0" /></g><g
           transform="translate(269.0645,619.5859)"
           id="g332"><path
             id="path334"
             style="fill:#ff6f64;fill-opacity:1;fill-rule:nonzero;stroke:none"
             d="m 0,0 -8.631,-1.072 -30.517,225.098 8.631,1.072 z" /></g><g
           transform="translate(155.1025,796.8071)"
           id="g336"><path
             id="path338"
             style="fill:#ffbf1f;fill-opacity:1;fill-rule:nonzero;stroke:none"
             d="m 0,0 c -0.035,0 -0.067,0.005 -0.103,0.005 -0.003,0 -0.006,-0.001 -0.01,-0.001 l -1.265,10.179 c -1.835,14.769 8.65,28.23 23.42,30.065 l 76.208,9.468 c 14.768,1.836 28.229,-8.649 30.063,-23.418 l 1.333,-10.73 C 127.17,29.604 114.093,39.383 99.79,37.605 L 62.654,32.992 h 10e-4 L 23.581,28.137 C 9.458,26.382 -0.739,13.995 0,0" /></g><g
           transform="translate(815.459,655.3213)"
           id="g340"><path
             id="path342"
             style="fill:none;stroke:#ffffff;stroke-width:10;stroke-linecap:round;stroke-linejoin:round;stroke-miterlimit:10;stroke-dasharray:none;stroke-opacity:1"
             d="M 0,0 37.078,-9.583" /></g><g
           transform="translate(815.459,687.2319)"
           id="g344"><path
             id="path346"
             style="fill:none;stroke:#ffffff;stroke-width:10;stroke-linecap:round;stroke-linejoin:round;stroke-miterlimit:10;stroke-dasharray:none;stroke-opacity:1"
             d="M 0,0 37.078,9.583" /></g><g
           transform="translate(584.5405,687.2324)"
           id="g348"><path
             id="path350"
             style="fill:none;stroke:#ffffff;stroke-width:10;stroke-linecap:round;stroke-linejoin:round;stroke-miterlimit:10;stroke-dasharray:none;stroke-opacity:1"
             d="M 0,0 -37.077,9.583" /></g><g
           transform="translate(584.5405,655.3218)"
           id="g352"><path
             id="path354"
             style="fill:none;stroke:#ffffff;stroke-width:10;stroke-linecap:round;stroke-linejoin:round;stroke-miterlimit:10;stroke-dasharray:none;stroke-opacity:1"
             d="M 0,0 -37.077,-9.583" /></g><g
           transform="translate(1180.0479,169.4648)"
           id="g356"><path
             id="path358"
             style="fill:#b5b5b5;fill-opacity:1;fill-rule:nonzero;stroke:none"
             d="M 0,0 C 4.6,-15.893 21.077,-25.086 36.802,-20.535 52.527,-15.982 61.548,0.591 56.947,16.482 52.348,32.376 35.869,41.569 20.145,37.017 4.419,32.466 -4.601,15.893 0,0" /></g><g
           transform="translate(1400,193.5381)"
           id="g360"><path
             id="path362"
             style="fill:#939597;fill-opacity:1;fill-rule:nonzero;stroke:none"
             d="m 0,0 h -96.427 c -8.743,0 -15.832,-7.089 -15.832,-15.832 0,-8.744 7.089,-15.833 15.832,-15.833 H 0 Z" /></g><g
           transform="translate(1400,193.5381)"
           id="g364"><path
             id="path366"
             style="fill:#b5b5b5;fill-opacity:1;fill-rule:nonzero;stroke:none"
             d="m 0,0 h -96.427 c -8.743,0 -15.832,-7.089 -15.832,-15.832 v -10e-4 H 0 Z" /></g><g
           transform="translate(1202.2529,89.5879)"
           id="g368"><path
             id="path370"
             style="fill:#302e2d;fill-opacity:1;fill-rule:nonzero;stroke:none"
             d="m 0,0 c 0.043,-14.882 12.145,-26.912 27.026,-26.869 l 76.794,0.223 c 14.883,0.042 26.913,12.143 26.87,27.026 l -0.503,173.247 c -0.044,14.884 -12.144,26.912 -27.025,26.869 L 26.368,200.274 C 11.485,200.231 -0.545,188.13 -0.502,173.247 Z" /></g><g
           transform="translate(1228.6211,289.8623)"
           id="g372"><path
             id="path374"
             style="fill:#232222;fill-opacity:1;fill-rule:nonzero;stroke:none"
             d="M 0,0 39.373,0.113 C 27.86,-2.979 19.397,-13.502 19.434,-25.988 l 0.503,-173.247 c 0.042,-14.883 12.014,-27.952 26.896,-27.909 0,0 33.016,0.231 30.619,0.223 l -76.794,-0.223 c -14.882,-0.043 -26.983,11.988 -27.026,26.87 L -26.87,-27.027 C -26.913,-12.145 -14.883,-0.043 0,0" /></g><g
           transform="translate(1293.6836,62.9063)"
           id="g376"><path
             id="path378"
             style="fill:#ff6f64;fill-opacity:1;fill-rule:nonzero;stroke:none"
             d="m 0,0 -8.697,-0.024 -3.188,227.133 8.697,0.026 z" /></g><g
           transform="translate(183.2881,161.7187)"
           id="g380"><path
             id="path382"
             style="fill:#939597;fill-opacity:1;fill-rule:nonzero;stroke:none"
             d="m 0,0 c -11.598,0 -21,-9.402 -21,-21 v -11 h -65.25 v 11 c 0,11.598 -9.402,21 -21,21 -11.598,0 -21,-9.402 -21,-21 v -57 c 0,-11.598 9.402,-21 21,-21 11.598,0 21,9.402 21,21 v 11 H -21 v -11 c 0,-11.598 9.402,-21 21,-21 11.598,0 21,9.402 21,21 v 57 C 21,-9.402 11.598,0 0,0" /></g><g
           transform="translate(183.2881,161.7187)"
           id="g384"><path
             id="path386"
             style="fill:#b5b5b5;fill-opacity:1;fill-rule:nonzero;stroke:none"
             d="m 0,0 c -11.598,0 -21,-9.402 -21,-21 v -11 h -65.25 v 11 c 0,11.598 -9.402,21 -21,21 -11.598,0 -21,-9.402 -21,-21 v -14.083 c 0,11.598 9.402,21 21,21 11.598,0 21,-9.402 21,-21 v -11 H -21 v 11 c 0,11.598 9.402,21 21,21 11.598,0 21,-9.402 21,-21 V -21 C 21,-9.402 11.598,0 0,0" /></g><g
           transform="translate(266.5054,215.832)"
           id="g388"><path
             id="path390"
             style="fill:#939597;fill-opacity:1;fill-rule:nonzero;stroke:none"
             d="m 0,0 c 5.979,-9.938 2.768,-22.842 -7.171,-28.82 l -9.426,-5.67 33.632,-55.914 9.427,5.67 c 9.938,5.978 22.842,2.767 28.82,-7.171 5.977,-9.939 2.767,-22.842 -7.171,-28.821 l -48.845,-29.379 c -9.938,-5.978 -22.841,-2.768 -28.82,7.17 -5.978,9.939 -2.767,22.843 7.171,28.821 l 9.427,5.67 -33.633,55.914 -9.426,-5.67 c -9.939,-5.978 -22.842,-2.768 -28.82,7.171 -5.978,9.938 -2.768,22.842 7.171,28.819 L -28.819,7.171 C -18.881,13.148 -5.978,9.938 0,0" /></g><g
           transform="translate(266.5054,215.832)"
           id="g392"><path
             id="path394"
             style="fill:#b5b5b5;fill-opacity:1;fill-rule:nonzero;stroke:none"
             d="m 0,0 c 5.979,-9.938 2.768,-22.842 -7.171,-28.82 l -9.426,-5.67 33.632,-55.914 9.427,5.67 c 9.938,5.978 22.842,2.767 28.82,-7.171 5.977,-9.939 2.767,-22.842 -7.171,-28.821 l -12.069,-7.258 c 9.939,5.978 13.149,18.881 7.171,28.82 -5.977,9.937 -18.88,13.148 -28.819,7.171 l -9.427,-5.67 -33.632,55.914 9.426,5.67 c 9.939,5.978 13.15,18.882 7.171,28.82 -5.977,9.938 -18.882,13.149 -28.819,7.171 l 12.068,7.259 C -18.881,13.148 -5.978,9.938 0,0" /></g><path
           id="path396"
           style="fill:#434e54;fill-opacity:1;fill-rule:nonzero;stroke:none"
           d="M 602.262,911.94 H 0 v -34.53 h 602.262 z" /><g
           transform="translate(1244.8975,796.8071)"
           id="g398"><path
             id="path400"
             style="fill:#ffbf1f;fill-opacity:1;fill-rule:nonzero;stroke:none"
             d="m 0,0 c 0.035,0 0.067,0.005 0.103,0.005 0.003,0 0.006,-0.001 0.01,-0.001 l 1.265,10.179 c 1.835,14.769 -8.65,28.23 -23.42,30.065 l -76.208,9.468 c -14.768,1.836 -28.229,-8.649 -30.063,-23.418 l -1.333,-10.73 c 2.476,14.036 15.553,23.815 29.856,22.037 l 37.136,-4.613 h -10e-4 l 39.074,-4.855 C -9.458,26.382 0.739,13.995 0,0" /></g><g
           id="g402"><g
             id="g404" /><g
             id="g458"><g
               style="opacity:0.25"
               id="g456"
               clip-path="url(#clipPath408)"><g
                 id="g454"><g
                   id="g452"
                   clip-path="url(#clipPath412)"><g
                     id="g450"><g
                       id="g442" /><g
                       id="g448"
                       mask="url(#mask424)"><g
                         id="g446"><path
                           id="path444"
                           style="fill:url(#linearGradient440);stroke:none"
                           d="M 1400,524.478 0,666.737 v 311.959 h 1400 z" /></g></g></g></g></g></g></g></g></g></g></g></svg>