<?xml version="1.0" encoding="UTF-8" standalone="no"?>
<svg
   xmlns:dc="http://purl.org/dc/elements/1.1/"
   xmlns:cc="http://creativecommons.org/ns#"
   xmlns:rdf="http://www.w3.org/1999/02/22-rdf-syntax-ns#"
   xmlns:svg="http://www.w3.org/2000/svg"
   xmlns="http://www.w3.org/2000/svg"
   viewBox="0 0 1866.6667 1306.6667"
   height="1306.6667"
   width="1866.6667"
   xml:space="preserve"
   id="svg2"
   version="1.1"><metadata
     id="metadata8"><rdf:RDF><cc:Work
         rdf:about=""><dc:format>image/svg+xml</dc:format><dc:type
           rdf:resource="http://purl.org/dc/dcmitype/StillImage" /></cc:Work></rdf:RDF></metadata><defs
     id="defs6"><clipPath
       id="clipPath34"
       clipPathUnits="userSpaceOnUse"><path
         id="path32"
         d="m 203.616,243.617 h 992.767 V 840.221 H 203.616 Z" /></clipPath><clipPath
       id="clipPath324"
       clipPathUnits="userSpaceOnUse"><path
         id="path322"
         d="M 0,980 H 1400 V 0 H 0 Z" /></clipPath><clipPath
       id="clipPath332"
       clipPathUnits="userSpaceOnUse"><path
         id="path330"
         d="M 203.616,840.221 H 1196.38 V 243.617 H 203.616 Z" /></clipPath><clipPath
       id="clipPath364"
       clipPathUnits="userSpaceOnUse"><path
         id="path362"
         d="M 0,980 H 1400 V 0 H 0 Z" /></clipPath></defs><g
     transform="matrix(1.3333333,0,0,-1.3333333,0,1306.6667)"
     id="g10"><path
       id="path12"
       style="fill:#6fb5a1;fill-opacity:1;fill-rule:nonzero;stroke:none"
       d="M 0,0 H 1400 V 980 H 0 Z" /><path
       id="path14"
       style="fill:#3a3a3c;fill-opacity:1;fill-rule:nonzero;stroke:none"
       d="M 0,0 H 1400 V 126.114 H 0 Z" /><path
       id="path16"
       style="fill:#2b2a2a;fill-opacity:1;fill-rule:nonzero;stroke:none"
       d="M 897.814,51 H 502.185 v 38 h 395.629 z" /><path
       id="path18"
       style="fill:#333333;fill-opacity:1;fill-rule:nonzero;stroke:none"
       d="M 841.463,89 H 558.537 v 94 h 282.926 z" /><path
       id="path20"
       style="fill:#333333;fill-opacity:1;fill-rule:nonzero;stroke:none"
       d="M 1306.342,168.88 H 93.658 v 739.639 h 1212.684 z" /><g
       transform="translate(1232.9248,229.1172)"
       id="g22"><path
         id="path24"
         style="fill:#3d3d3d;fill-opacity:1;fill-rule:nonzero;stroke:none"
         d="m 0,0 h -1065.849 l 36.54,14.178 h 992.768 z" /></g><path
       id="path26"
       style="fill:#6fb5a1;fill-opacity:1;fill-rule:nonzero;stroke:none"
       d="m 203.617,243.617 h 992.767 V 840.221 H 203.617 Z" /><g
       id="g28"><g
         clip-path="url(#clipPath34)"
         id="g30"><g
           transform="translate(867.0039,523.0361)"
           id="g36"><path
             id="path38"
             style="fill:#9dbfb5;fill-opacity:1;fill-rule:nonzero;stroke:none"
             d="m 0,0 h 276.35 l -41.493,7.046 c 0,0 -21.137,18.006 -34.447,5.48 0,0 -20.351,19.571 -26.615,7.828 0,0 -0.783,26.618 -14.873,19.572 0,0 3.13,41.491 -27.401,30.531 0,0 -29.75,-5.203 -27.4,-34.307 0,0 -10.961,14.231 -11.743,0 0,0 -25.052,10.822 -26.616,-16.579 0,0 -16.443,2.349 -14.092,-8.611 0,0 -16.441,7.046 -18.789,-4.697 z" /></g><g
           transform="translate(1033.3242,728.0137)"
           id="g40"><path
             id="path42"
             style="fill:#9dbfb5;fill-opacity:1;fill-rule:nonzero;stroke:none"
             d="m 0,0 h 125.346 l -18.821,3.195 c 0,0 -9.587,8.168 -15.623,2.486 0,0 -9.232,8.878 -12.072,3.551 0,0 -0.355,12.072 -6.746,8.877 0,0 1.418,18.819 -12.429,13.848 0,0 -13.493,-2.359 -12.428,-15.56 0,0 -4.971,6.454 -5.327,0 0,0 -11.361,4.907 -12.072,-7.52 0,0 -7.458,1.066 -6.391,-3.906 0,0 -7.458,3.196 -8.521,-2.131 z" /></g><g
           transform="translate(559.5601,531.2002)"
           id="g44"><path
             id="path46"
             style="fill:none;stroke:#fef7ec;stroke-width:5;stroke-linecap:butt;stroke-linejoin:miter;stroke-miterlimit:10;stroke-dasharray:none;stroke-opacity:1"
             d="M 0,0 C 0,0 -85.033,-67.575 -191.7,-3.032" /></g><g
           transform="translate(1031.9551,531.2002)"
           id="g48"><path
             id="path50"
             style="fill:none;stroke:#fef7ec;stroke-width:5;stroke-linecap:butt;stroke-linejoin:miter;stroke-miterlimit:10;stroke-dasharray:none;stroke-opacity:1"
             d="M 0,0 C 0,0 -85.031,-67.575 -191.699,-3.032" /></g><g
           transform="translate(279.9834,646.9453)"
           id="g52"><path
             id="path54"
             style="fill:#9dbfb5;fill-opacity:1;fill-rule:nonzero;stroke:none"
             d="M 0,0 H 372.532 L 316.6,9.498 c 0,0 -28.494,24.273 -46.435,7.388 0,0 -27.439,26.384 -35.881,10.553 0,0 -1.055,35.881 -20.051,26.384 0,0 4.221,55.931 -36.937,41.157 0,0 -40.103,-7.013 -36.937,-46.248 0,0 -14.775,19.184 -15.83,0 0,0 -33.771,14.588 -35.882,-22.349 0,0 -22.162,3.167 -18.996,-11.608 0,0 -22.162,9.498 -25.327,-6.332 z" /></g><g
           transform="translate(1126.4521,322.4111)"
           id="g56"><path
             id="path58"
             style="fill:#9dbfb5;fill-opacity:1;fill-rule:nonzero;stroke:none"
             d="m 0,0 c -101.059,33.327 -59.427,32.571 -131.339,-1.475 -76.685,-36.306 -76.642,-41.012 -128.107,-44.807 -51.466,-3.791 -110.562,-8.725 -148.573,5.435 -38.013,14.161 -67.653,33.692 -93.987,23.303 -26.334,-10.387 -131.635,-50.647 -196.622,-19.829 -64.988,30.819 -73.622,66.579 -109.945,41.672 -13.297,-9.116 -28.686,-20.914 -44.332,-32.155 v -116.2 L 0,-142.894 Z" /></g><g
           transform="translate(1142.5029,227.4873)"
           id="g60"><path
             id="path62"
             style="fill:#b2d5cc;fill-opacity:1;fill-rule:nonzero;stroke:none"
             d="m 0,0 c 0,0 -332.71,209.853 -395.448,308.443 l -119.876,-22.406 c 0,0 -200.708,-213.753 -369.682,-286.037 z" /></g><g
           transform="translate(669.0044,544.2544)"
           id="g64"><path
             id="path66"
             style="fill:#93b2a9;fill-opacity:1;fill-rule:nonzero;stroke:none"
             d="m 0,0 c 0,0 -11.95,14.938 -30.622,-8.216 -18.673,-23.154 -108.641,-120.513 -118.972,-129.663 0,0 65.942,24.725 73.411,33.875 0,0 -0.747,-19.98 -11.951,-28.944 0,0 50.79,40.334 57.512,54.151 0,0 -11.95,-37.717 -20.166,-48.174 0,0 41.08,34.355 45.559,44.814 0,0 -4.479,-53.186 -7.468,-55.722 0,0 29.875,51.988 32.116,59.082 l 8.104,-70.58 13.558,45.373 24.647,-38.653 c 0,0 -15.686,56.766 -14.939,63.86 l 48.546,-43.693 -12.696,36.598 64.234,-47.056 -32.117,47.056 c 0,0 72.516,-52.122 97.127,-57.804 0,0 -90.405,71.994 -120.28,125.024 C 65.728,34.357 44.292,4.741 44.292,4.741 44.292,4.741 11.542,30.563 0,0" /></g><g
           transform="translate(669.0044,549.7476)"
           id="g68"><path
             id="path70"
             style="fill:#ffffff;fill-opacity:1;fill-rule:nonzero;stroke:none"
             d="m 0,0 c 0,0 -11.95,14.938 -30.622,-8.216 -18.673,-23.153 -108.641,-120.512 -118.972,-129.663 0,0 65.942,24.726 73.411,33.875 0,0 -0.747,-19.98 -11.951,-28.943 0,0 50.79,40.332 57.512,54.151 0,0 -11.95,-37.719 -20.166,-48.176 0,0 41.08,34.356 45.559,44.814 0,0 -4.479,-53.185 -7.468,-55.721 0,0 29.875,51.988 32.116,59.083 l 8.104,-70.582 13.558,45.374 24.647,-38.652 c 0,0 -15.686,56.765 -14.939,63.86 l 48.546,-43.694 -12.696,36.597 64.234,-47.054 -32.117,47.054 c 0,0 72.516,-52.122 97.127,-57.804 0,0 -90.405,71.995 -120.28,125.025 C 65.728,34.357 44.292,4.741 44.292,4.741 44.292,4.741 11.542,30.563 0,0" /></g><g
           transform="translate(449.4233,766.0396)"
           id="g72"><path
             id="path74"
             style="fill:#e6564b;fill-opacity:1;fill-rule:nonzero;stroke:none"
             d="m 0,0 -7.554,-10.263 21.719,-29.765 c 0,0 132.398,-30.791 238.998,-30.791 v 29.765 c 0,0 -198.396,7.185 -253.163,41.054" /></g><g
           transform="translate(950.5762,766.0396)"
           id="g76"><path
             id="path78"
             style="fill:#e6564b;fill-opacity:1;fill-rule:nonzero;stroke:none"
             d="m 0,0 7.554,-10.263 -21.718,-29.765 c 0,0 -132.399,-30.791 -238.998,-30.791 v 29.765 c 0,0 198.396,7.185 253.162,41.054" /></g><g
           transform="translate(599.8511,745.5127)"
           id="g80"><path
             id="path82"
             style="fill:#e6564b;fill-opacity:1;fill-rule:nonzero;stroke:none"
             d="M 0,0 V -539.856 H -71.845 L -35.922,0 Z" /></g><path
           id="path84"
           style="fill:#3a3a3c;fill-opacity:1;fill-rule:nonzero;stroke:none"
           d="m 614.22,205.656 h -98.53 v 73.897 h 98.53 z" /><path
           id="path86"
           style="fill:#e6564b;fill-opacity:1;fill-rule:nonzero;stroke:none"
           d="m 621.063,645.615 h -88.267 v 30.106 h 88.267 z" /><path
           id="path88"
           style="fill:#e6564b;fill-opacity:1;fill-rule:nonzero;stroke:none"
           d="m 605.326,694.879 h -56.793 v 31.475 h 56.793 z" /><g
           transform="translate(800.1504,745.5127)"
           id="g90"><path
             id="path92"
             style="fill:#e6564b;fill-opacity:1;fill-rule:nonzero;stroke:none"
             d="M 0,0 V -539.856 H 71.844 L 35.92,0 Z" /></g><path
           id="path94"
           style="fill:#3a3a3c;fill-opacity:1;fill-rule:nonzero;stroke:none"
           d="m 785.779,205.656 h 98.531 v 73.897 h -98.531 z" /><path
           id="path96"
           style="fill:#e6564b;fill-opacity:1;fill-rule:nonzero;stroke:none"
           d="m 778.937,645.615 h 88.267 v 30.106 h -88.267 z" /><path
           id="path98"
           style="fill:#e6564b;fill-opacity:1;fill-rule:nonzero;stroke:none"
           d="m 794.674,694.879 h 56.793 v 31.475 h -56.793 z" /><path
           id="path100"
           style="fill:#e6564b;fill-opacity:1;fill-rule:nonzero;stroke:none"
           d="M 945.545,618.658 H 454.457 v 42.01 h 491.088 z" /><path
           id="path102"
           style="fill:#e6564b;fill-opacity:1;fill-rule:nonzero;stroke:none"
           d="m 720.782,639.663 h -41.565 v 86.691 h 41.565 z" /><g
           transform="translate(427.6367,790.6733)"
           id="g104"><path
             id="path106"
             style="fill:#3a3a3c;fill-opacity:1;fill-rule:nonzero;stroke:none"
             d="m 0,0 -8.21,-10.264 23.606,-29.763 c 0,0 143.91,-30.792 259.778,-30.792 v 29.764 C 275.174,-41.055 59.529,-33.87 0,0" /></g><g
           transform="translate(972.3633,790.6733)"
           id="g108"><path
             id="path110"
             style="fill:#3a3a3c;fill-opacity:1;fill-rule:nonzero;stroke:none"
             d="m 0,0 8.211,-10.264 -23.607,-29.763 c 0,0 -143.911,-30.792 -259.777,-30.792 v 29.764 c 0,0 215.644,7.185 275.173,41.055" /></g><g
           transform="translate(599.8511,689.7935)"
           id="g112"><path
             id="path114"
             style="fill:#af3e38;fill-opacity:1;fill-rule:nonzero;stroke:none"
             d="m 0,0 h -39.008 l 0.275,5.086 H 0 Z" /></g><g
           transform="translate(800.1504,689.7935)"
           id="g116"><path
             id="path118"
             style="fill:#af3e38;fill-opacity:1;fill-rule:nonzero;stroke:none"
             d="M 0,0 H 39.008 L 38.732,5.086 H 0 Z" /></g><path
           id="path120"
           style="fill:#af3e38;fill-opacity:1;fill-rule:nonzero;stroke:none"
           d="m 720.782,691.117 h -41.565 v 4.562 h 41.565 z" /><g
           transform="translate(599.8511,609.0088)"
           id="g122"><path
             id="path124"
             style="fill:#af3e38;fill-opacity:1;fill-rule:nonzero;stroke:none"
             d="m 0,0 h -44.955 l 0.524,9.649 H 0 Z" /></g><g
           transform="translate(800.1504,609.0088)"
           id="g126"><path
             id="path128"
             style="fill:#af3e38;fill-opacity:1;fill-rule:nonzero;stroke:none"
             d="M 0,0 H 45.041 L 44.52,9.649 H 0 Z" /></g><path
           id="path130"
           style="fill:#af3e38;fill-opacity:1;fill-rule:nonzero;stroke:none"
           d="m 621.063,665.457 h -88.267 v -4.789 h 88.267 z" /><path
           id="path132"
           style="fill:#af3e38;fill-opacity:1;fill-rule:nonzero;stroke:none"
           d="m 867.204,665.457 h -88.267 v -4.789 h 88.267 z" /><path
           id="path134"
           style="fill:#af3e38;fill-opacity:1;fill-rule:nonzero;stroke:none"
           d="m 720.782,665.457 h -41.565 v -4.789 h 41.565 z" /><g
           transform="translate(940.7578,455.4766)"
           id="g136"><path
             id="path138"
             style="fill:#3c6d5e;fill-opacity:1;fill-rule:nonzero;stroke:none"
             d="m 0,0 c 0,0 -1.773,10.638 -17.375,-2.836 l 8.687,3.411 c 0,0 1.241,-4.003 8.688,-4.003 z" /></g><g
           transform="translate(940.7578,455.4766)"
           id="g140"><path
             id="path142"
             style="fill:#3c6d5e;fill-opacity:1;fill-rule:nonzero;stroke:none"
             d="M 0,0 C 0,0 1.771,10.638 17.372,-2.836 L 8.688,0.575 c 0,0 -1.245,-4.003 -8.688,-4.003 z" /></g><g
           transform="translate(282.5029,689.5142)"
           id="g144"><path
             id="path146"
             style="fill:#3c6d5e;fill-opacity:1;fill-rule:nonzero;stroke:none"
             d="m 0,0 c 0,0 -1.773,10.637 -17.373,-2.836 l 8.686,3.412 c 0,0 1.241,-4.003 8.687,-4.003 z" /></g><g
           transform="translate(282.5029,689.5142)"
           id="g148"><path
             id="path150"
             style="fill:#3c6d5e;fill-opacity:1;fill-rule:nonzero;stroke:none"
             d="M 0,0 C 0,0 1.773,10.637 17.373,-2.836 L 8.687,0.576 c 0,0 -1.242,-4.003 -8.687,-4.003 z" /></g><g
           transform="translate(1014.7852,635.6758)"
           id="g152"><path
             id="path154"
             style="fill:#3c6d5e;fill-opacity:1;fill-rule:nonzero;stroke:none"
             d="m 0,0 c 0,0 -1.774,10.637 -17.375,-2.835 l 8.687,3.411 c 0,0 1.241,-4.003 8.688,-4.003 z" /></g><g
           transform="translate(1014.7852,635.6758)"
           id="g156"><path
             id="path158"
             style="fill:#3c6d5e;fill-opacity:1;fill-rule:nonzero;stroke:none"
             d="M 0,0 C 0,0 1.771,10.637 17.372,-2.835 L 8.686,0.576 c 0,0 -1.243,-4.003 -8.686,-4.003 z" /></g><g
           transform="translate(403.1494,597.1045)"
           id="g160"><path
             id="path162"
             style="fill:#3c6d5e;fill-opacity:1;fill-rule:nonzero;stroke:none"
             d="m 0,0 c 0,0 -2.14,12.839 -20.97,-3.424 l 10.484,4.118 c 0,0 1.499,-4.831 10.486,-4.831 z" /></g><g
           transform="translate(403.1494,597.1045)"
           id="g164"><path
             id="path166"
             style="fill:#3c6d5e;fill-opacity:1;fill-rule:nonzero;stroke:none"
             d="M 0,0 C 0,0 2.14,12.839 20.969,-3.424 L 10.484,0.694 c 0,0 -1.497,-4.831 -10.484,-4.831 z" /></g><g
           transform="translate(472.1777,562.2051)"
           id="g168"><path
             id="path170"
             style="fill:#3c6d5e;fill-opacity:1;fill-rule:nonzero;stroke:none"
             d="m 0,0 c 0,0 -2.14,12.839 -20.97,-3.423 l 10.485,4.118 c 0,0 1.499,-4.832 10.485,-4.832 z" /></g><g
           transform="translate(472.1777,562.2051)"
           id="g172"><path
             id="path174"
             style="fill:#3c6d5e;fill-opacity:1;fill-rule:nonzero;stroke:none"
             d="M 0,0 C 0,0 2.139,12.839 20.97,-3.423 L 10.484,0.695 c 0,0 -1.498,-4.832 -10.484,-4.832 z" /></g><path
           id="path176"
           style="fill:#4c5968;fill-opacity:1;fill-rule:nonzero;stroke:none"
           d="m 371.61,464.427 h -4.935 v 65.969 h 4.935 z" /><g
           transform="translate(385.2168,423.2305)"
           id="g178"><path
             id="path180"
             style="fill:#e6564b;fill-opacity:1;fill-rule:nonzero;stroke:none"
             d="m 0,0 c 0,-5.918 -4.799,-10.716 -10.717,-10.716 h -10.714 c -5.919,0 -10.716,4.798 -10.716,10.716 v 34.155 c 0,5.919 4.797,10.716 10.716,10.716 h 10.714 C -4.799,44.871 0,40.074 0,34.155 Z" /></g><path
           id="path182"
           style="fill:#4c5968;fill-opacity:1;fill-rule:nonzero;stroke:none"
           d="m 345.412,565.556 h -3.375 v 42.749 h 3.375 z" /><g
           transform="translate(354.7129,537.3882)"
           id="g184"><path
             id="path186"
             style="fill:#e6564b;fill-opacity:1;fill-rule:nonzero;stroke:none"
             d="m 0,0 c 0,-4.046 -3.279,-7.326 -7.326,-7.326 h -7.325 c -4.047,0 -7.327,3.28 -7.327,7.326 v 23.352 c 0,4.046 3.28,7.326 7.327,7.326 h 7.325 C -3.279,30.678 0,27.398 0,23.352 Z" /></g><path
           id="path188"
           style="fill:#f9e1d7;fill-opacity:1;fill-rule:nonzero;stroke:none"
           d="M 320.928,225.926 H 203.617 v 131.639 h 117.311 z" /><path
           id="path190"
           style="fill:#e6564b;fill-opacity:1;fill-rule:nonzero;stroke:none"
           d="M 320.928,225.926 H 203.617 v 25.97 h 117.311 z" /><path
           id="path192"
           style="fill:#f9e1d7;fill-opacity:1;fill-rule:nonzero;stroke:none"
           d="M 203.617,405.922 H 316.45 V 483.83 H 203.617 Z" /><g
           transform="translate(316.4507,458.1719)"
           id="g194"><path
             id="path196"
             style="fill:#e2cbc3;fill-opacity:1;fill-rule:nonzero;stroke:none"
             d="M 0,0 V 25.658 H -112.833 V -5.801 h 70.659 c 0,0 20.067,0.218 42.174,5.801" /></g><g
           transform="translate(365.3257,530.396)"
           id="g198"><path
             id="path200"
             style="fill:#e6564b;fill-opacity:1;fill-rule:nonzero;stroke:none"
             d="m 0,0 c 0,0 -91.049,-73.824 -91.049,60.113 h -70.659 V -60.113 h 70.659 c 0,0 99.486,1.055 99.486,60.113 z" /></g><g
           transform="translate(280.623,540.7324)"
           id="g202"><path
             id="path204"
             style="fill:#af3e38;fill-opacity:1;fill-rule:nonzero;stroke:none"
             d="m 0,0 c -3.792,11.43 -6.126,26.702 -6.331,46.854 -0.573,0.92 -1.129,1.895 -1.667,2.923 H -77.006 V -1.382 h 59.999 c 0,0 7.022,0.076 17.007,1.382" /></g><g
           transform="translate(340.9277,608.3047)"
           id="g206"><path
             id="path208"
             style="fill:#e6564b;fill-opacity:1;fill-rule:nonzero;stroke:none"
             d="m 0,0 c 0,0 -77.312,-62.686 -77.312,51.043 h -59.999 V -51.044 h 59.999 c 0,0 84.477,0.896 84.477,51.044 z" /></g><g
           transform="translate(360.332,357.5645)"
           id="g210"><path
             id="path212"
             style="fill:#e6564b;fill-opacity:1;fill-rule:nonzero;stroke:none"
             d="M 0,0 H -156.715 V 48.357 H -26.867 Z" /></g><path
           id="path214"
           style="fill:#e2cbc3;fill-opacity:1;fill-rule:nonzero;stroke:none"
           d="m 203.617,339.545 h 117.311 v 18.02 H 203.617 Z" /><path
           id="path216"
           style="fill:#e6564b;fill-opacity:1;fill-rule:nonzero;stroke:none"
           d="m 294.144,420.25 h -90.526 v -7.735 h 90.526 z" /><path
           id="path218"
           style="fill:#e6564b;fill-opacity:1;fill-rule:nonzero;stroke:none"
           d="m 294.144,452.371 h -90.526 v -2.686 h 90.526 z" /><path
           id="path220"
           style="fill:#e6564b;fill-opacity:1;fill-rule:nonzero;stroke:none"
           d="m 280.185,420.25 h 2.318 v 30.223 h -2.318 z" /><path
           id="path222"
           style="fill:#e6564b;fill-opacity:1;fill-rule:nonzero;stroke:none"
           d="m 271.228,420.25 h 2.319 v 30.223 h -2.319 z" /><path
           id="path224"
           style="fill:#e6564b;fill-opacity:1;fill-rule:nonzero;stroke:none"
           d="m 262.272,420.25 h 2.319 v 30.223 h -2.319 z" /><path
           id="path226"
           style="fill:#e6564b;fill-opacity:1;fill-rule:nonzero;stroke:none"
           d="m 253.317,420.25 h 2.319 v 30.223 h -2.319 z" /><path
           id="path228"
           style="fill:#e6564b;fill-opacity:1;fill-rule:nonzero;stroke:none"
           d="m 244.361,420.25 h 2.32 v 30.223 h -2.32 z" /><path
           id="path230"
           style="fill:#e6564b;fill-opacity:1;fill-rule:nonzero;stroke:none"
           d="m 235.406,420.25 h 2.319 v 30.223 h -2.319 z" /><path
           id="path232"
           style="fill:#e6564b;fill-opacity:1;fill-rule:nonzero;stroke:none"
           d="m 226.451,420.25 h 2.319 v 30.223 h -2.319 z" /><path
           id="path234"
           style="fill:#e6564b;fill-opacity:1;fill-rule:nonzero;stroke:none"
           d="m 217.495,420.25 h 2.32 v 30.223 h -2.32 z" /><path
           id="path236"
           style="fill:#e6564b;fill-opacity:1;fill-rule:nonzero;stroke:none"
           d="m 208.539,420.25 h 2.32 v 30.223 h -2.32 z" /><path
           id="path238"
           style="fill:#3a3a3c;fill-opacity:1;fill-rule:nonzero;stroke:none"
           d="m 294.144,225.926 h -90.526 v 113.619 h 90.526 z" /><path
           id="path240"
           style="fill:#fef7ec;fill-opacity:1;fill-rule:nonzero;stroke:none"
           d="m 282.503,225.926 h -78.886 v 100.188 h 78.886 z" /><path
           id="path242"
           style="fill:#4c5968;fill-opacity:1;fill-rule:nonzero;stroke:none"
           d="m 1028.389,464.427 h 4.936 v 65.969 h -4.936 z" /><g
           transform="translate(1014.7852,423.2305)"
           id="g244"><path
             id="path246"
             style="fill:#e6564b;fill-opacity:1;fill-rule:nonzero;stroke:none"
             d="M 0,0 C 0,-5.918 4.797,-10.716 10.717,-10.716 H 21.43 c 5.918,0 10.715,4.798 10.715,10.716 v 34.155 c 0,5.919 -4.797,10.716 -10.715,10.716 H 10.717 C 4.797,44.871 0,40.074 0,34.155 Z" /></g><path
           id="path248"
           style="fill:#4c5968;fill-opacity:1;fill-rule:nonzero;stroke:none"
           d="m 1054.588,565.556 h 3.376 v 42.749 h -3.376 z" /><g
           transform="translate(1045.2871,537.3882)"
           id="g250"><path
             id="path252"
             style="fill:#e6564b;fill-opacity:1;fill-rule:nonzero;stroke:none"
             d="m 0,0 c 0,-4.046 3.279,-7.326 7.324,-7.326 h 7.326 c 4.047,0 7.328,3.28 7.328,7.326 v 23.352 c 0,4.046 -3.281,7.326 -7.328,7.326 H 7.324 C 3.279,30.678 0,27.398 0,23.352 Z" /></g><path
           id="path254"
           style="fill:#f9e1d7;fill-opacity:1;fill-rule:nonzero;stroke:none"
           d="m 1079.072,225.926 h 117.312 v 131.639 h -117.312 z" /><path
           id="path256"
           style="fill:#e6564b;fill-opacity:1;fill-rule:nonzero;stroke:none"
           d="m 1079.072,225.926 h 117.312 v 25.97 h -117.312 z" /><path
           id="path258"
           style="fill:#f9e1d7;fill-opacity:1;fill-rule:nonzero;stroke:none"
           d="m 1196.384,405.922 h -112.835 v 77.908 h 112.835 z" /><g
           transform="translate(1083.5488,458.1719)"
           id="g260"><path
             id="path262"
             style="fill:#e2cbc3;fill-opacity:1;fill-rule:nonzero;stroke:none"
             d="M 0,0 V 25.658 H 112.835 V -5.801 H 42.174 c 0,0 -20.066,0.218 -42.174,5.801" /></g><g
           transform="translate(1034.6738,530.396)"
           id="g264"><path
             id="path266"
             style="fill:#e6564b;fill-opacity:1;fill-rule:nonzero;stroke:none"
             d="M 0,0 C 0,0 91.049,-73.824 91.049,60.113 H 161.71 V -60.113 H 91.049 c 0,0 -99.485,1.055 -99.485,60.113 z" /></g><g
           transform="translate(1119.377,540.7324)"
           id="g268"><path
             id="path270"
             style="fill:#af3e38;fill-opacity:1;fill-rule:nonzero;stroke:none"
             d="m 0,0 c 3.793,11.43 6.126,26.702 6.33,46.854 0.574,0.92 1.131,1.895 1.666,2.923 H 77.007 V -1.382 H 17.008 c 0,0 -7.022,0.076 -17.008,1.382" /></g><g
           transform="translate(1059.0723,608.3047)"
           id="g272"><path
             id="path274"
             style="fill:#e6564b;fill-opacity:1;fill-rule:nonzero;stroke:none"
             d="m 0,0 c 0,0 77.313,-62.686 77.313,51.043 h 59.999 V -51.044 H 77.313 c 0,0 -84.478,0.896 -84.478,51.044 z" /></g><g
           transform="translate(1039.668,357.5645)"
           id="g276"><path
             id="path278"
             style="fill:#e6564b;fill-opacity:1;fill-rule:nonzero;stroke:none"
             d="M 0,0 H 156.716 V 48.357 H 26.866 Z" /></g><path
           id="path280"
           style="fill:#e2cbc3;fill-opacity:1;fill-rule:nonzero;stroke:none"
           d="m 1196.384,339.545 h -117.312 v 18.02 h 117.312 z" /><path
           id="path282"
           style="fill:#e6564b;fill-opacity:1;fill-rule:nonzero;stroke:none"
           d="m 1105.855,420.25 h 90.528 v -7.735 h -90.528 z" /><path
           id="path284"
           style="fill:#e6564b;fill-opacity:1;fill-rule:nonzero;stroke:none"
           d="m 1105.855,452.371 h 90.528 v -2.686 h -90.528 z" /><path
           id="path286"
           style="fill:#e6564b;fill-opacity:1;fill-rule:nonzero;stroke:none"
           d="m 1119.815,420.25 h -2.318 v 30.223 h 2.318 z" /><path
           id="path288"
           style="fill:#e6564b;fill-opacity:1;fill-rule:nonzero;stroke:none"
           d="m 1128.772,420.25 h -2.32 v 30.223 h 2.32 z" /><path
           id="path290"
           style="fill:#e6564b;fill-opacity:1;fill-rule:nonzero;stroke:none"
           d="m 1137.727,420.25 h -2.318 v 30.223 h 2.318 z" /><path
           id="path292"
           style="fill:#e6564b;fill-opacity:1;fill-rule:nonzero;stroke:none"
           d="m 1146.684,420.25 h -2.319 v 30.223 h 2.319 z" /><path
           id="path294"
           style="fill:#e6564b;fill-opacity:1;fill-rule:nonzero;stroke:none"
           d="m 1155.639,420.25 h -2.32 v 30.223 h 2.32 z" /><path
           id="path296"
           style="fill:#e6564b;fill-opacity:1;fill-rule:nonzero;stroke:none"
           d="m 1164.594,420.25 h -2.318 v 30.223 h 2.318 z" /><path
           id="path298"
           style="fill:#e6564b;fill-opacity:1;fill-rule:nonzero;stroke:none"
           d="m 1173.55,420.25 h -2.318 v 30.223 h 2.318 z" /><path
           id="path300"
           style="fill:#e6564b;fill-opacity:1;fill-rule:nonzero;stroke:none"
           d="m 1182.504,420.25 h -2.317 v 30.223 h 2.317 z" /><path
           id="path302"
           style="fill:#e6564b;fill-opacity:1;fill-rule:nonzero;stroke:none"
           d="m 1191.461,420.25 h -2.318 v 30.223 h 2.318 z" /><path
           id="path304"
           style="fill:#3a3a3c;fill-opacity:1;fill-rule:nonzero;stroke:none"
           d="m 1105.855,225.926 h 90.528 v 113.619 h -90.528 z" /><path
           id="path306"
           style="fill:#fef7ec;fill-opacity:1;fill-rule:nonzero;stroke:none"
           d="m 1117.497,225.926 h 78.887 v 100.188 h -78.887 z" /><g
           transform="translate(444.4609,504.7856)"
           id="g308"><path
             id="path310"
             style="fill:#e6564b;fill-opacity:1;fill-rule:nonzero;stroke:none"
             d="M 0,0 H 24.38 L 12.19,-33.456 Z" /></g><g
           transform="translate(931.1582,504.7856)"
           id="g312"><path
             id="path314"
             style="fill:#e6564b;fill-opacity:1;fill-rule:nonzero;stroke:none"
             d="M 0,0 H 24.38 L 12.189,-33.456 Z" /></g><path
           id="path316"
           style="fill:#3a3a3c;fill-opacity:1;fill-rule:nonzero;stroke:none"
           d="M 1196.384,157.08 H 203.617 v 70.407 h 992.767 z" /></g></g><g
       id="g318"><g
         clip-path="url(#clipPath324)"
         id="g320"><g
           id="g326"><g
             id="g328" /><g
             id="g338"><g
               style="opacity:0.5"
               id="g336"
               clip-path="url(#clipPath332)"><path
                 id="path334"
                 style="fill:#ee3924;fill-opacity:1;fill-rule:nonzero;stroke:none"
                 d="M 1196.384,243.617 H 203.616 v 596.604 h 992.768 z" /></g></g></g></g></g><text
       id="text344"
       style="font-variant:normal;font-weight:900;font-stretch:normal;font-size:117.70649719px;font-family:'Gotham Black';-inkscape-font-specification:GothamBlack;writing-mode:lr-tb;fill:#ffffff;fill-opacity:1;fill-rule:nonzero;stroke:none"
       transform="matrix(1,0,0,-1,499.9585,698.5845)"><tspan
         id="tspan340"
         y="0"
         x="0 99.344284 201.74895 312.74619">GAME</tspan><tspan
         id="tspan342"
         y="116.88255"
         x="7.1800966 113.82218 212.10712 299.44534">OVER</tspan></text>
<g
       transform="translate(203.6162,243.6172)"
       id="g346"><path
         id="path348"
         style="fill:#2b2a2a;fill-opacity:1;fill-rule:nonzero;stroke:none"
         d="M 0,0 -36.541,-13.646 V 610.78 L 0,596.604 Z" /></g><g
       transform="translate(1196.3838,243.6172)"
       id="g350"><path
         id="path352"
         style="fill:#2b2a2a;fill-opacity:1;fill-rule:nonzero;stroke:none"
         d="M 0,0 36.54,-14.5 V 610.78 L 0,596.604 Z" /></g><g
       transform="translate(167.0752,854.3975)"
       id="g354"><path
         id="path356"
         style="fill:#3d3d3d;fill-opacity:1;fill-rule:nonzero;stroke:none"
         d="m 0,0 h 1065.849 l -36.54,-14.177 H 36.541 Z" /></g><g
       id="g358"><g
         clip-path="url(#clipPath364)"
         id="g360"><g
           transform="translate(857.083,366.1562)"
           id="g366"><path
             id="path368"
             style="fill:#d9a76f;fill-opacity:1;fill-rule:nonzero;stroke:none"
             d="m 0,0 c 0,0 -6,-29 -19,-37 0,0 49,-65 -9,-83 l -41,60 10,95 z" /></g><g
           transform="translate(762.083,353.1562)"
           id="g370"><path
             id="path372"
             style="fill:#d9a76f;fill-opacity:1;fill-rule:nonzero;stroke:none"
             d="m 0,0 4,-52.828 c 0,0 36,-22 42,26.414 L 52,22 Z" /></g><g
           transform="translate(546.9165,366.1562)"
           id="g374"><path
             id="path376"
             style="fill:#d9a76f;fill-opacity:1;fill-rule:nonzero;stroke:none"
             d="m 0,0 c 0,0 6,-29 19,-37 0,0 -49,-65 9,-83 l 41,60 -10,95 z" /></g><g
           transform="translate(641.9165,353.1562)"
           id="g378"><path
             id="path380"
             style="fill:#d9a76f;fill-opacity:1;fill-rule:nonzero;stroke:none"
             d="m 0,0 -4,-52.828 c 0,0 -36,-22 -42,26.414 L -52,22 Z" /></g><g
           transform="translate(872.4004,505.334)"
           id="g382"><path
             id="path384"
             style="fill:#f6c284;fill-opacity:1;fill-rule:nonzero;stroke:none"
             d="m 0,0 c 0,0 34,18.667 58,0 24,-18.666 62.666,-47.016 62.666,-47.016 0,0 24.667,-12.318 22.667,-62.318 -2,-50 -6.666,-162.666 -6.666,-162.666 0,0 -9.334,-36.667 21.333,-73.334 l 140.6,-160 H 112.666 c 0,0 -33.334,108 -84,126.667 C -22,-360 -22.667,-263.334 -22.667,-263.334 l 5.525,72.687 z" /></g><g
           transform="translate(531.5996,505.334)"
           id="g386"><path
             id="path388"
             style="fill:#f6c284;fill-opacity:1;fill-rule:nonzero;stroke:none"
             d="m 0,0 c 0,0 -34,18.667 -58,0 -24,-18.666 -62.666,-47.016 -62.666,-47.016 0,0 -24.667,-12.318 -22.667,-62.318 2,-50 6.666,-162.666 6.666,-162.666 0,0 9.334,-36.667 -21.333,-73.334 l -144.6,-160 h 189.934 c 0,0 33.334,108 84,126.667 C 22,-360 22.667,-263.334 22.667,-263.334 l -5.525,72.687 z" /></g><g
           transform="translate(808.3477,529.3374)"
           id="g390"><path
             id="path392"
             style="fill:#333333;fill-opacity:1;fill-rule:nonzero;stroke:none"
             d="m 0,0 c 5.7,33.336 51.454,30.33 51.454,30.33 0,0 45.754,3.006 51.453,-30.33 l 5.729,-49.742 -57.182,-4.853 -57.182,4.853 z" /></g><g
           transform="translate(798.4463,514.7754)"
           id="g394"><path
             id="path396"
             style="fill:#3d3d3d;fill-opacity:1;fill-rule:nonzero;stroke:none"
             d="m 0,0 c 6.797,33.336 61.355,30.332 61.355,30.332 0,0 54.559,3.004 61.355,-30.332 l 6.831,-49.74 -68.186,-4.854 -68.185,4.854 z" /></g><g
           transform="translate(798.4463,500.2173)"
           id="g398"><path
             id="path400"
             style="fill:#333333;fill-opacity:1;fill-rule:nonzero;stroke:none"
             d="m 0,0 c 6.797,33.336 61.355,30.332 61.355,30.332 0,0 54.559,3.004 61.355,-30.332 l 6.831,-49.741 -68.186,-4.853 -68.185,4.853 z" /></g><g
           transform="translate(492.7471,529.3374)"
           id="g402"><path
             id="path404"
             style="fill:#333333;fill-opacity:1;fill-rule:nonzero;stroke:none"
             d="m 0,0 c 5.699,33.336 51.453,30.33 51.453,30.33 0,0 45.754,3.006 51.453,-30.33 l 5.729,-49.742 -57.182,-4.853 -57.182,4.853 z" /></g><g
           transform="translate(482.8447,514.7754)"
           id="g406"><path
             id="path408"
             style="fill:#3d3d3d;fill-opacity:1;fill-rule:nonzero;stroke:none"
             d="m 0,0 c 6.797,33.336 61.355,30.332 61.355,30.332 0,0 54.559,3.004 61.354,-30.332 l 6.832,-49.74 -68.186,-4.854 -68.185,4.854 z" /></g><g
           transform="translate(482.8447,500.2173)"
           id="g410"><path
             id="path412"
             style="fill:#333333;fill-opacity:1;fill-rule:nonzero;stroke:none"
             d="m 0,0 c 6.797,33.336 61.355,30.332 61.355,30.332 0,0 54.559,3.004 61.354,-30.332 l 6.832,-49.741 -68.186,-4.853 -68.185,4.853 z" /></g><path
           id="path414"
           style="fill:#3d3d3d;fill-opacity:1;fill-rule:nonzero;stroke:none"
           d="M 703.397,359.052 H 554.514 v 146.533 h 148.883 z" /><g
           transform="translate(457.6631,434.3223)"
           id="g416"><path
             id="path418"
             style="fill:#333333;fill-opacity:1;fill-rule:nonzero;stroke:none"
             d="m 0,0 -14.656,-143.764 c 0,0 -12.563,-53.039 29.311,-72.58 41.872,-19.541 69.788,23.031 83.745,46.758 13.959,23.729 69.004,132.484 69.004,132.484 z" /></g><path
           id="path420"
           style="fill:#333333;fill-opacity:1;fill-rule:nonzero;stroke:none"
           d="M 703.397,358.926 H 554.514 v 133.395 h 148.883 z" /><g
           transform="translate(630.7373,428.041)"
           id="g422"><path
             id="path424"
             style="fill:#2b2a2a;fill-opacity:1;fill-rule:nonzero;stroke:none"
             d="m 0,0 c 0,-47.795 -38.744,-86.538 -86.537,-86.538 -47.794,0 -86.537,38.743 -86.537,86.538 0,47.793 38.743,86.537 86.537,86.537 C -38.744,86.537 0,47.793 0,0" /></g><g
           transform="translate(623.126,428.041)"
           id="g426"><path
             id="path428"
             style="fill:#333333;fill-opacity:1;fill-rule:nonzero;stroke:none"
             d="m 0,0 c 0,-43.59 -35.336,-78.927 -78.926,-78.927 -43.59,0 -78.926,35.337 -78.926,78.927 0,43.589 35.336,78.926 78.926,78.926 C -35.336,78.926 0,43.589 0,0" /></g><path
           id="path430"
           style="fill:#3d3d3d;fill-opacity:1;fill-rule:nonzero;stroke:none"
           d="M 567.39,367.133 H 521.011 V 488.949 H 567.39 Z" /><path
           id="path432"
           style="fill:#3d3d3d;fill-opacity:1;fill-rule:nonzero;stroke:none"
           d="M 605.108,404.852 H 483.292 v 46.379 h 121.816 z" /><path
           id="path434"
           style="fill:#3d3d3d;fill-opacity:1;fill-rule:nonzero;stroke:none"
           d="M 672.687,359.052 H 821.57 V 505.585 H 672.687 Z" /><g
           transform="translate(946.3389,434.3223)"
           id="g436"><path
             id="path438"
             style="fill:#333333;fill-opacity:1;fill-rule:nonzero;stroke:none"
             d="m 0,0 4.677,-45.873 9.979,-97.891 c 0,0 12.561,-53.039 -29.312,-72.58 -41.871,-19.541 -69.787,23.031 -83.746,46.758 -13.957,23.729 -69.002,132.484 -69.002,132.484 z" /></g><path
           id="path440"
           style="fill:#333333;fill-opacity:1;fill-rule:nonzero;stroke:none"
           d="M 672.687,358.926 H 821.57 V 492.321 H 672.687 Z" /><g
           transform="translate(773.2646,428.041)"
           id="g442"><path
             id="path444"
             style="fill:#2b2a2a;fill-opacity:1;fill-rule:nonzero;stroke:none"
             d="m 0,0 c 0,-47.795 38.744,-86.538 86.537,-86.538 47.793,0 86.537,38.743 86.537,86.538 0,47.793 -38.744,86.537 -86.537,86.537 C 38.744,86.537 0,47.793 0,0" /></g><g
           transform="translate(780.875,428.041)"
           id="g446"><path
             id="path448"
             style="fill:#333333;fill-opacity:1;fill-rule:nonzero;stroke:none"
             d="m 0,0 c 0,-43.59 35.337,-78.927 78.927,-78.927 43.589,0 78.926,35.337 78.926,78.927 0,43.589 -35.337,78.926 -78.926,78.926 C 35.337,78.926 0,43.589 0,0" /></g><path
           id="path450"
           style="fill:#3d3d3d;fill-opacity:1;fill-rule:nonzero;stroke:none"
           d="m 882.991,367.133 h -46.379 v 121.816 h 46.379 z" /><path
           id="path452"
           style="fill:#3d3d3d;fill-opacity:1;fill-rule:nonzero;stroke:none"
           d="M 920.709,404.852 H 798.893 v 46.379 h 121.816 z" /><g
           transform="translate(875.6211,466.8027)"
           id="g454"><path
             id="path456"
             style="fill:#2b2a2a;fill-opacity:1;fill-rule:nonzero;stroke:none"
             d="m 0,0 c 0,-8.627 -7.192,-15.621 -15.819,-15.621 -8.627,0 -15.621,6.994 -15.621,15.621 0,8.629 6.994,15.622 15.621,15.622 C -7.192,15.622 0,8.629 0,0" /></g><g
           transform="translate(875.4229,389.2295)"
           id="g458"><path
             id="path460"
             style="fill:#2b2a2a;fill-opacity:1;fill-rule:nonzero;stroke:none"
             d="m 0,0 c 0,-8.628 -6.994,-15.621 -15.621,-15.621 -8.627,0 -15.621,6.993 -15.621,15.621 0,8.628 6.994,15.622 15.621,15.622 C -6.994,15.622 0,8.628 0,0" /></g><g
           transform="translate(821.0146,443.6367)"
           id="g462"><path
             id="path464"
             style="fill:#2b2a2a;fill-opacity:1;fill-rule:nonzero;stroke:none"
             d="m 0,0 c 12.531,0 15.622,-6.992 15.622,-15.62 0,-8.627 -6.994,-15.621 -15.622,-15.621 -8.628,0 -15.621,6.994 -15.621,15.621 C -15.621,-6.993 -8.628,0 0,0" /></g><g
           transform="translate(898.5879,443.6367)"
           id="g466"><path
             id="path468"
             style="fill:#2b2a2a;fill-opacity:1;fill-rule:nonzero;stroke:none"
             d="m 0,0 c 8.63,0 15.624,-6.993 15.624,-15.62 0,-8.627 -6.994,-15.621 -15.624,-15.621 -8.626,0 -15.62,6.994 -15.62,15.621 C -15.62,-6.993 -8.626,0 0,0" /></g><g
           transform="translate(530.5498,468.4668)"
           id="g470"><path
             id="path472"
             style="fill:#2b2a2a;fill-opacity:1;fill-rule:nonzero;stroke:none"
             d="M 0,0 V -20.148 L 13.649,-33.73 27.301,-20.148 V 0 Z" /></g><g
           transform="translate(557.8506,387.5234)"
           id="g474"><path
             id="path476"
             style="fill:#2b2a2a;fill-opacity:1;fill-rule:nonzero;stroke:none"
             d="M 0,0 V 20.146 L -13.65,33.729 -27.301,20.146 V 0 Z" /></g><g
           transform="translate(503.7275,414.3437)"
           id="g478"><path
             id="path480"
             style="fill:#2b2a2a;fill-opacity:1;fill-rule:nonzero;stroke:none"
             d="M 0,0 H 20.147 L 33.729,13.65 20.147,27.3 H 0 Z" /></g><g
           transform="translate(584.6719,441.6436)"
           id="g482"><path
             id="path484"
             style="fill:#2b2a2a;fill-opacity:1;fill-rule:nonzero;stroke:none"
             d="M 0,0 H -20.147 L -33.729,-13.649 -20.147,-27.3 H 0 Z" /></g><g
           transform="translate(544.1992,481.5889)"
           id="g486"><path
             id="path488"
             style="fill:#333333;fill-opacity:1;fill-rule:nonzero;stroke:none"
             d="M 0,0 -9.678,-7.909 H 9.678 Z" /></g><g
           transform="translate(544.1992,374.4004)"
           id="g490"><path
             id="path492"
             style="fill:#333333;fill-opacity:1;fill-rule:nonzero;stroke:none"
             d="M 0,0 9.678,7.908 H -9.678 Z" /></g><g
           transform="translate(597.793,427.9941)"
           id="g494"><path
             id="path496"
             style="fill:#333333;fill-opacity:1;fill-rule:nonzero;stroke:none"
             d="M 0,0 -7.909,9.678 V -9.678 Z" /></g><g
           transform="translate(490.6055,427.9941)"
           id="g498"><path
             id="path500"
             style="fill:#333333;fill-opacity:1;fill-rule:nonzero;stroke:none"
             d="M 0,0 7.908,-9.678 V 9.678 Z" /></g><path
           id="path502"
           style="fill:#2b2a2a;fill-opacity:1;fill-rule:nonzero;stroke:none"
           d="m 682.693,425.658 h -27.915 v 14.183 h 27.915 z" /><g
           transform="translate(721.3086,425.6582)"
           id="g504"><path
             id="path506"
             style="fill:#2b2a2a;fill-opacity:1;fill-rule:nonzero;stroke:none"
             d="M 0,0 V 14.183 L 27.915,8.259 V 6.637 Z" /></g><g
           transform="translate(906.9639,428.4482)"
           id="g508"><path
             id="path510"
             style="fill:none;stroke:#d1d3d4;stroke-width:1;stroke-linecap:butt;stroke-linejoin:miter;stroke-miterlimit:10;stroke-dasharray:none;stroke-opacity:1"
             d="m 0,0 c 0,-4.625 -3.75,-8.375 -8.375,-8.375 -4.625,0 -8.375,3.75 -8.375,8.375 0,4.624 3.75,8.374 8.375,8.374 C -3.75,8.374 0,4.624 0,0 Z" /></g><path
           id="path512"
           style="fill:none;stroke:#d1d3d4;stroke-width:1;stroke-linecap:butt;stroke-linejoin:miter;stroke-miterlimit:10;stroke-dasharray:none;stroke-opacity:1"
           d="m 829.112,419.918 h -16.194 v 16.196 h 16.194 z" /><g
           transform="translate(859.8008,474.6133)"
           id="g514"><path
             id="path516"
             style="fill:none;stroke:#d1d3d4;stroke-width:1;stroke-linecap:butt;stroke-linejoin:miter;stroke-miterlimit:10;stroke-dasharray:none;stroke-opacity:1"
             d="M 0,0 -7.718,-13.725 H 7.868 Z" /></g><g
           transform="translate(853.4053,395.627)"
           id="g518"><path
             id="path520"
             style="fill:none;stroke:#d1d3d4;stroke-width:1;stroke-linecap:butt;stroke-linejoin:miter;stroke-miterlimit:10;stroke-dasharray:none;stroke-opacity:1"
             d="M 0,0 12.794,-12.795" /></g><g
           transform="translate(853.4053,382.832)"
           id="g522"><path
             id="path524"
             style="fill:none;stroke:#d1d3d4;stroke-width:1;stroke-linecap:butt;stroke-linejoin:miter;stroke-miterlimit:10;stroke-dasharray:none;stroke-opacity:1"
             d="M 0,0 12.794,12.794" /></g><path
           id="path526"
           style="fill:#2b2a2a;fill-opacity:1;fill-rule:nonzero;stroke:none"
           d="m 717.354,388.535 h -27.916 v 14.183 h 27.916 z" /><g
           transform="translate(840.7773,349.1143)"
           id="g528"><path
             id="path530"
             style="fill:#2b2a2a;fill-opacity:1;fill-rule:nonzero;stroke:none"
             d="m 0,0 c 0,-33.471 -27.134,-60.603 -60.604,-60.603 -33.47,0 -60.604,27.132 -60.604,60.603 0,33.471 27.134,60.603 60.604,60.603 C -27.134,60.603 0,33.471 0,0" /></g><g
           transform="translate(835.0742,349.1143)"
           id="g532"><path
             id="path534"
             style="fill:#333333;fill-opacity:1;fill-rule:nonzero;stroke:none"
             d="m 0,0 c 0,-30.32 -24.581,-54.899 -54.901,-54.899 -30.321,0 -54.9,24.579 -54.9,54.899 0,30.32 24.579,54.899 54.9,54.899 C -24.581,54.899 0,30.32 0,0" /></g><g
           transform="translate(818.7393,349.1143)"
           id="g536"><path
             id="path538"
             style="fill:#2b2a2a;fill-opacity:1;fill-rule:nonzero;stroke:none"
             d="m 0,0 c 0,-21.3 -17.266,-38.566 -38.566,-38.566 -21.299,0 -38.565,17.266 -38.565,38.566 0,21.3 17.266,38.565 38.565,38.565 C -17.266,38.565 0,21.3 0,0" /></g><g
           transform="translate(684.4326,349.1143)"
           id="g540"><path
             id="path542"
             style="fill:#2b2a2a;fill-opacity:1;fill-rule:nonzero;stroke:none"
             d="m 0,0 c 0,-33.471 -27.135,-60.603 -60.605,-60.603 -33.471,0 -60.603,27.132 -60.603,60.603 0,33.471 27.132,60.603 60.603,60.603 C -27.135,60.603 0,33.471 0,0" /></g><g
           transform="translate(678.7275,349.1143)"
           id="g544"><path
             id="path546"
             style="fill:#333333;fill-opacity:1;fill-rule:nonzero;stroke:none"
             d="m 0,0 c 0,-30.32 -24.578,-54.899 -54.9,-54.899 -30.32,0 -54.901,24.579 -54.901,54.899 0,30.32 24.581,54.899 54.901,54.899 C -24.578,54.899 0,30.32 0,0" /></g><g
           transform="translate(662.3936,349.1143)"
           id="g548"><path
             id="path550"
             style="fill:#2b2a2a;fill-opacity:1;fill-rule:nonzero;stroke:none"
             d="m 0,0 c 0,-21.3 -17.266,-38.566 -38.566,-38.566 -21.299,0 -38.566,17.266 -38.566,38.566 0,21.3 17.267,38.565 38.566,38.565 C -17.266,38.565 0,21.3 0,0" /></g><g
           transform="translate(570.2666,442.624)"
           id="g552"><path
             id="path554"
             style="fill:#f6c284;fill-opacity:1;fill-rule:nonzero;stroke:none"
             d="m 0,0 c 0,0 19.999,53.709 -18.667,59.042 -38.666,5.333 -44,-52.347 -44,-52.347 0,0 -29.999,-115.221 -70.666,-138.104 L -26,-155.624 c 0,0 9.333,97.133 26,155.624" /></g><g
           transform="translate(551.4551,345.9902)"
           id="g556"><path
             id="path558"
             style="fill:#f6c284;fill-opacity:1;fill-rule:nonzero;stroke:none"
             d="m 0,0 c 0,0 8.758,-96.84 -3.688,-156 l -102.834,-20.326 -33.775,117.336 56.479,40.816 z" /></g><g
           transform="translate(833.7334,442.624)"
           id="g560"><path
             id="path562"
             style="fill:#f6c284;fill-opacity:1;fill-rule:nonzero;stroke:none"
             d="m 0,0 c 0,0 -19.999,53.709 18.667,59.042 38.666,5.333 44,-52.347 44,-52.347 0,0 29.999,-115.221 70.666,-138.104 L 26,-155.624 c 0,0 -9.333,97.133 -26,155.624" /></g><g
           transform="translate(852.5449,345.9902)"
           id="g564"><path
             id="path566"
             style="fill:#f6c284;fill-opacity:1;fill-rule:nonzero;stroke:none"
             d="m 0,0 c 0,0 -8.759,-96.84 3.688,-156 l 102.834,-20.326 33.775,117.336 -56.48,40.816 z" /></g><path
           id="path568"
           style="fill:#2b2a2a;fill-opacity:1;fill-rule:nonzero;stroke:none"
           d="M 841.463,158 H 557.851 v 10.88 h 283.612 z" /></g></g></g></svg>